<?xml version="1.0" encoding="utf-8"?>
<!-- Generator: Adobe Illustrator 23.0.3, SVG Export Plug-In . SVG Version: 6.00 Build 0)  -->
<svg version="1.1" id="图层_1" xmlns="http://www.w3.org/2000/svg" xmlns:xlink="http://www.w3.org/1999/xlink" x="0px" y="0px"
	 viewBox="0 0 169.8 169.8" style="enable-background:new 0 0 169.8 169.8;" xml:space="preserve">
<style type="text/css">
	.st0{fill:#D4D4D4;}
	.st1{fill:#444444;}
</style>
<g>
	<path class="st0" d="M0.2,169.5H53v-24.3c0,0-0.9-10.2-11.1-11.8H10.8c0,0-10.6,2.2-10.6,13.1V169.5z"/>
	<path class="st1" d="M53.5,170H-0.3v-23.6c0-11.2,10.8-13.5,11-13.6l0.1,0h31.1c10.5,1.7,11.6,12.2,11.6,12.3L53.5,170z M0.7,169
		h51.8v-23.8c0-0.4-1-9.8-10.7-11.3l-31,0c-0.8,0.2-10.1,2.5-10.1,12.6V169z"/>
</g>
<g>
	<path class="st0" d="M58.5,169.5h52.8v-24.3c0,0-0.9-10.2-11.1-11.8H69.1c0,0-10.6,2.2-10.6,13.1V169.5z"/>
	<path class="st1" d="M111.8,170H58v-23.6c0-11.2,10.8-13.5,11-13.6l0.1,0h31.1c10.5,1.7,11.6,12.2,11.6,12.3L111.8,170z M59,169
		h51.8v-23.8c0-0.4-1-9.8-10.7-11.3l-31,0c-0.8,0.2-10.1,2.5-10.1,12.6V169z"/>
</g>
<g>
	<path class="st0" d="M116.6,169.5h52.8v-24.3c0,0-0.9-10.2-11.1-11.8h-31.1c0,0-10.6,2.2-10.6,13.1V169.5z"/>
	<path class="st1" d="M169.9,170h-53.8v-23.6c0-11.2,10.8-13.5,11-13.6l0.1,0h31.1c10.5,1.7,11.6,12.2,11.6,12.3L169.9,170z
		 M117.1,169h51.8v-23.8c0-0.4-1-9.8-10.7-11.3l-31,0c-0.8,0.2-10.1,2.5-10.1,12.6V169z"/>
</g>
<path class="st0" d="M140.8,46.8H93.2c-1.3,0-2.3-1-2.3-2.3V41c0-1.3,1-2.3,2.3-2.3h47.6c1.3,0,2.3,1,2.3,2.3v3.4
	C143,45.7,142,46.8,140.8,46.8z"/>
<path class="st0" d="M140.9,68.1h-14.4c-1.2,0-2.1-1-2.1-2.1v-3.2c0-1.2,1-2.1,2.1-2.1h14.4c1.2,0,2.1,1,2.1,2.1V66
	C143,67.1,142.1,68.1,140.9,68.1z"/>
<path class="st0" d="M25.8,118.4c0,0-2.9-3.3-3.3-9.4c0,0-7.8-0.7-11.4-9.9V28.5c0,0,1.7-10.5,13.7-11.5h122.6
	c0,0,9.6,0.6,11.5,11.3v71.1c0,0-4.1,9.6-12,10.3H91.9l-6.8,8.7h65.4c0,0,16.3-1.5,18.1-19.9V26.2c0,0-1.1-15.7-20.9-18.3H22.2
	C22.2,8,4.6,9.2,1,28.5v71.3C1,99.9,3.8,117.8,25.8,118.4z"/>
<path class="st1" d="M75.2,122.8H36.1V119c-1.6-0.9-6.3-3.5-8.6-6.7l-0.2-0.3V68.4l0.1-0.2c0.2-0.4,4-8.7,17.8-8.6l0.6,0L55,77.8
	l10.3-18.2l0.7,0.1c0.1,0,14.1,2.2,15.7,14.4l0,0.1v25.6L114,69.6l5.3,5l-42.5,44.1H75L75.2,122.8z M38.1,120.8h35l-0.2-4.1h3.1
	l40.5-42.1l-2.5-2.3l-34.3,32V74.3C78.5,65,69,62.3,66.4,61.7L54.9,82L44.7,61.6c-11,0.1-14.7,6.1-15.3,7.2v42.6
	c2.5,3.3,8.1,6.1,8.2,6.1l0.6,0.3L38.1,120.8z"/>
<path class="st1" d="M55.5,61.6c-1.8,0-8.1-0.9-13.1-12.4h-2.6v-7.5h3c0.1-1.6,0.5-4.8,2.7-7.3c2.1-2.4,5.2-3.7,9.3-3.8
	c0.1,0,10.9-0.5,12.2,11.2h3.4v8.3h-3.3C66.3,52.6,63,60.5,56,61.6C55.9,61.6,55.8,61.6,55.5,61.6z M41.8,47.3h2l0.3,0.6
	c5.2,12.3,11.6,11.8,11.7,11.8c6.9-1.1,9.7-10.7,9.7-10.8l0.2-0.7h2.8v-4.4h-3.2l-0.1-0.9c-0.7-10.7-9.8-10.3-10.2-10.2
	c-3.5,0.1-6.1,1.2-7.9,3.1c-2.6,2.9-2.3,6.9-2.3,6.9l0.1,1.1l-3.1,0V47.3z"/>
</svg>
