<?xml version="1.0" encoding="utf-8"?>
<!-- Generator: Adobe Illustrator 23.0.3, SVG Export Plug-In . SVG Version: 6.00 Build 0)  -->
<svg version="1.1" id="图层_1" xmlns="http://www.w3.org/2000/svg" xmlns:xlink="http://www.w3.org/1999/xlink" x="0px" y="0px"
	 viewBox="0 0 169.8 169.8" style="enable-background:new 0 0 169.8 169.8;" xml:space="preserve">
<style type="text/css">
	.st0{fill:#D4D4D4;}
	.st1{fill:#373737;}
</style>
<g>
	<path class="st0" d="M59.3,102c0,0-33.7,0.7-46.2,43c0,0-4.2,23.8,14.4,22.5l118.6,0.1c0,0,13.2-3.5,10.3-16.9
		c0,0-5.2-48.1-48.6-46.1l-23.1,36.6L59.3,102z"/>
	<path class="st1" d="M129.5,64.9l-2.8-2c-0.4-0.3-39.5-27.1-86.1,0.1l-2.7,1.6V11.2l0.7-0.5C39.2,10.2,53.2-0.5,85.9,0
		c0.8,0,21.9-0.9,42.7,11l0.9,0.5V64.9z M41.5,13v45.4c40.2-21.9,74.7-5.7,84.5-0.1V13.6c-19.6-10.8-39.7-10-40-10
		C58.3,3.2,44.6,11,41.5,13z"/>
	<g>
		<path class="st1" d="M98.2,29.7H70c-0.6,0-1.2-0.5-1.2-1.2v-1.8c0-0.6,0.5-1.2,1.2-1.2h28.2c0.6,0,1.2,0.5,1.2,1.2v1.8
			C99.4,29.1,98.8,29.7,98.2,29.7z"/>
		<path class="st1" d="M82,41.7V13.5c0-0.6,0.5-1.2,1.2-1.2H85c0.6,0,1.2,0.5,1.2,1.2v28.2c0,0.6-0.5,1.2-1.2,1.2h-1.8
			C82.5,42.9,82,42.3,82,41.7z"/>
	</g>
	<path class="st1" d="M84.2,110.9c-0.1,0-0.2,0-0.2,0c-47.8-2.8-46.1-49.1-46.1-49.5l3.5,0.2c-0.1,1.8-1.5,43.3,42.7,45.8
		c1.6,0,40.1,0.5,41.8-46l3.5,0.1C127.8,109.9,87.3,110.9,84.2,110.9z"/>
	<path class="st0" d="M46.8,63.9c0,0,35.7-20.3,74.6,1c0,0,0,34.7-37.7,37.9C83.7,102.8,49.5,103,46.8,63.9z"/>
	<path class="st1" d="M21.6,169.8l-0.3,0c-0.2,0-4.2-0.7-7.2-5c-3.7-5.2-4.5-13.2-2.5-23.7c0.1-0.5,9.3-34.8,47.6-41l1.2-0.2
		l23.9,39.6l21.5-38.6l1.1,0c47.3,2,51.5,49.1,51.5,49.6c0.6,6.6-0.7,11.6-3.8,15.1c-3.7,4.1-8.5,4.2-8.7,4.2H21.6z M100.4,166.3
		h45.5c0.1,0,3.5-0.1,6.1-3.1c2.4-2.7,3.3-6.8,2.9-12.4c-0.1-1.8-4-43.7-47-46.2L86.3,143L100.4,166.3z M21.8,166.3h74.4l-13.8-22.9
		l-0.2-0.1l0.1-0.1l-23.7-39.3c-35,6.3-43.5,37.7-43.6,38c-2.2,11.7-0.2,17.8,1.9,20.8C18.9,165.5,21.3,166.2,21.8,166.3z"/>
	<polygon class="st1" points="93.9,158.5 91.7,155.8 122.5,131 113.9,104.3 117.2,103.2 126.6,132.2 	"/>
	<polygon class="st1" points="87.7,169.4 41.9,132.1 56,102 59.2,103.5 46.3,131.1 90,166.7 	"/>
</g>
</svg>
