<?xml version="1.0" encoding="utf-8"?>
<!-- Generator: Adobe Illustrator 23.0.3, SVG Export Plug-In . SVG Version: 6.00 Build 0)  -->
<svg version="1.1" id="图层_1" xmlns="http://www.w3.org/2000/svg" xmlns:xlink="http://www.w3.org/1999/xlink" x="0px" y="0px"
	 viewBox="0 0 169.8 169.8" style="enable-background:new 0 0 169.8 169.8;" xml:space="preserve">
<style type="text/css">
	.st0{fill:#E2E2E2;}
	.st1{fill:#434343;}
</style>
<polygon class="st0" points="87.2,167.9 120.6,66.1 84.9,19.3 139.9,19.3 168.6,65.8 "/>
<path class="st1" d="M87.2,169.5L0,66.4l32.8-49.3h106.5l0.3,0.5l30.2,48.2L87.2,169.5z M2.4,66.3l84.7,100.1l80.2-100.6l-29.2-46.6
	H33.9L2.4,66.3z"/>
<rect x="1.2" y="65.1" transform="matrix(1 -3.453904e-03 3.453904e-03 1 -0.2278 0.2937)" class="st1" width="167.4" height="1.9"/>
<polygon class="st1" points="86.3,168.2 51.3,66.4 32.4,18.5 34.2,17.8 53.2,65.7 88.1,167.6 "/>
<polygon class="st1" points="120.9,68.1 84.9,20.9 53,66.6 51.4,65.5 84.9,17.6 120.4,64.1 139,17.8 140.9,18.5 "/>
<polygon class="st1" points="88.1,168.2 86.3,167.6 119.7,65.8 121.6,66.4 "/>
</svg>
