<?xml version="1.0" encoding="utf-8"?>
<!-- Generator: Adobe Illustrator 23.0.3, SVG Export Plug-In . SVG Version: 6.00 Build 0)  -->
<svg version="1.1" id="图层_1" xmlns="http://www.w3.org/2000/svg" xmlns:xlink="http://www.w3.org/1999/xlink" x="0px" y="0px"
	 viewBox="0 0 32.3 32.3" style="enable-background:new 0 0 32.3 32.3;" xml:space="preserve">
<style type="text/css">
	.st0{fill:#C9A95B;}
	.st1{fill:#FFFFFF;}
</style>
<path class="st0" d="M29.4,32.3H2.8C1.3,32.3,0,31,0,29.4V2.8C0,1.3,1.3,0,2.8,0h26.6c1.6,0,2.8,1.3,2.8,2.8v26.6
	C32.3,31,31,32.3,29.4,32.3z"/>
<path class="st1" d="M8.4,13.9l5.7,6.7c0,0,1.3,1.4,2.6,0l5.8-6.6c0,0,0.6-0.6,0.4-1.3c-0.1-0.4-0.4-0.5-1-0.5H9.1
	c0,0-0.9-0.1-1.1,0.5C8,13,8,13.4,8.4,13.9z"/>
</svg>
