<?xml version="1.0" encoding="utf-8"?>
<!-- Generator: Adobe Illustrator 23.0.3, SVG Export Plug-In . SVG Version: 6.00 Build 0)  -->
<svg version="1.1" id="图层_1" xmlns="http://www.w3.org/2000/svg" xmlns:xlink="http://www.w3.org/1999/xlink" x="0px" y="0px"
	 viewBox="0 0 169.8 169.8" style="enable-background:new 0 0 169.8 169.8;" xml:space="preserve">
<style type="text/css">
	.st0{fill:#373737;}
	.st1{fill:#D4D4D4;}
	.st2{fill:#FFFFFF;}
	.st3{fill:#444444;}
</style>
<path class="st0" d="M138.9,43.6H29.1V12.3C29.1,5.6,34.6,0,41.4,0h85.2c6.8,0,12.3,5.5,12.3,12.3V43.6z M31,41.6h105.9V12.3
	c0-5.7-4.6-10.3-10.3-10.3H41.4C35.7,2,31,6.7,31,12.3V41.6z"/>
<path class="st1" d="M156.8,162.5H11.4c-1.6,0-2.8-1.3-2.8-2.8V51.7c0-1.6,1.3-2.8,2.8-2.8h145.4c1.6,0,2.8,1.3,2.8,2.8v107.9
	C159.6,161.2,158.3,162.5,156.8,162.5z"/>
<path class="st1" d="M130.6,13.6c0-3.1-2.5-5.7-5.7-5.7H42.4c-3.1,0-5.7,2.5-5.7,5.7v29h93.8V13.6z"/>
<path class="st0" d="M160.9,169.8H8.4c-3.6,0-6.6-3-6.6-6.6V48.2c0-3.6,3-6.6,6.6-6.6h152.5c3.6,0,6.6,3,6.6,6.6v115.1
	C167.5,166.9,164.5,169.8,160.9,169.8z M8.4,43.6c-2.5,0-4.6,2.1-4.6,4.6v115.1c0,2.5,2.1,4.6,4.6,4.6h152.5c2.5,0,4.6-2.1,4.6-4.6
	V48.2c0-2.5-2.1-4.6-4.6-4.6H8.4z"/>
<g>
	<path class="st2" d="M42.7,72.8l10.6,10.3c0,0,8.5,1.5,11.7-2.5c0,0,4.3-3.7,2.2-9.6l-11-12.2c0,0,28.3-4.4,25,25.3l50.3,47
		c0,0,2.6,14.9-12.1,14L68.6,96.4c0,0-18.7,5.4-25.9-10.3C42.7,86,40.1,80.4,42.7,72.8z"/>
	<path class="st3" d="M120.6,145.7c-0.4,0-0.8,0-1.2,0l-0.2,0l-0.1-0.1L68.4,96.9C66,97.5,49,101.1,42.3,86.2
		c-0.1-0.2-2.7-5.9,0-13.6l0.3-0.7l11,10.7c1.1,0.2,8.3,1.1,11.1-2.3c0.2-0.2,4-3.6,2.2-9.1L55.2,58.5l0.9-0.1
		c0.5-0.1,12.6-1.9,20.1,5.4c4.6,4.4,6.5,11.2,5.5,20.2l50.3,47l0,0.2c0.1,0.3,1.2,7-2.6,11.3C127.4,144.6,124.5,145.7,120.6,145.7z
		 M119.7,144.7c4,0.2,7.1-0.8,9-3c3.2-3.6,2.6-9.3,2.4-10.3L80.7,84.3l0-0.2c1-8.8-0.8-15.4-5.2-19.7c-6-5.8-15.4-5.5-18.3-5.2
		l10.5,11.7C69.8,77,65.4,81,65.3,81c-3.2,4.1-11.7,2.7-12.1,2.6l-0.1,0l-10.1-9.9c-2.1,6.9,0.2,12,0.2,12.1
		c6.9,15.1,25.1,10.1,25.3,10l0.3-0.1L119.7,144.7z"/>
</g>
<g>
	<polygon class="st2" points="81.1,103.8 79.2,96.4 86.6,89.2 91.5,89.9 95.4,86.2 95.4,81.4 121.8,57 136.1,72 109.1,96.4 
		104.1,95.7 100.9,98.4 101.6,103.9 91.9,112.9 86.6,109.8 49.3,143.1 41.5,143.1 44.2,135.1 	"/>
	<path class="st3" d="M49.5,143.6h-8.7l2.9-8.8l36.7-31.2l-1.9-7.4l7.9-7.5l4.9,0.7l3.5-3.4v-4.8l26.9-24.8l15,15.7l-27.5,24.8
		l-5.1-0.7l-2.7,2.4l0.6,5.6L92,113.5l-5.3-3L49.5,143.6z M42.2,142.6h6.9l37.4-33.4l5.3,3l9.2-8.5l-0.6-5.6l3.5-3l5.1,0.7L135.4,72
		l-13.6-14.3L95.9,81.6v4.8l-4.2,4l-4.9-0.7l-7.1,6.8l1.9,7.4l-37,31.5L42.2,142.6z"/>
</g>
</svg>
