<?xml version="1.0" encoding="utf-8"?>
<!-- Generator: Adobe Illustrator 23.0.3, SVG Export Plug-In . SVG Version: 6.00 Build 0)  -->
<svg version="1.1" id="图层_1" xmlns="http://www.w3.org/2000/svg" xmlns:xlink="http://www.w3.org/1999/xlink" x="0px" y="0px"
	 viewBox="0 0 648.5 648.2" style="enable-background:new 0 0 648.5 648.2;" xml:space="preserve">
<style type="text/css">
	.st0{fill:#646464;}
	.st1{fill:#FFFFFF;}
</style>
<g>
	<path class="st0" d="M324.6,648.8c179.1,0,324.3-145.2,324.3-324.3c0-179.1-145.2-324.3-324.3-324.3C145.5,0.3,0.3,145.5,0.3,324.5
		c0,86,34.2,168.5,95,229.3C156.1,614.6,238.6,648.8,324.6,648.8L324.6,648.8z M189.8,362.3"/>
</g>
<path class="st1" d="M190.1,379.1l119.5-136.5c3.9-4.4,9.5-7,15.4-7c5.9,0,11.5,2.6,15.4,7l119.5,136.5c7.1,8.5,6.1,21.1-2.2,28.4
	c-8.3,7.3-20.9,6.7-28.5-1.5L325,287.1l-104.1,119c-4.8,5.7-12.2,8.4-19.5,7c-7.3-1.4-13.3-6.6-15.6-13.7
	C183.4,392.4,185.1,384.6,190.1,379.1L190.1,379.1z"/>
</svg>
