<svg id="图层_1" data-name="图层 1" xmlns="http://www.w3.org/2000/svg" viewBox="0 0 237 237"><defs><style>.cls-1{fill:#fff;}</style></defs><title>tubiao2</title><path class="cls-1" d="M118.5,237A118.5,118.5,0,1,1,237,118.5,118.64,118.64,0,0,1,118.5,237Zm0-234.86A116.36,116.36,0,1,0,234.86,118.5,116.49,116.49,0,0,0,118.5,2.14Z"/><rect class="cls-1" x="51.24" y="122.86" width="36.9" height="48.82"/><path class="cls-1" d="M138.2,172.74H99.52V91.15H138.2Zm-36.54-2.13h34.41V93.28H101.66Z"/><rect class="cls-1" x="147.58" y="112.25" width="36.54" height="59.43"/><polygon class="cls-1" points="64.05 88.87 51.43 90.71 60.54 99.64 58.38 112.25 69.68 106.3 80.97 112.25 78.81 99.64 87.92 90.71 75.31 88.87 69.66 77.39 64.05 88.87"/><path class="cls-1" d="M131.55,81.65,118.85,75l-12.72,6.69,2.43-14.19-10.25-10,14.19-2.07,6.36-12.93,6.32,12.93,14.19,2.07-10.24,10ZM102.88,58.9l8,7.82-1.89,11,9.88-5.2,9.87,5.2-1.89-11,8-7.82-11-1.61-4.9-10-4.94,10Z"/><polygon class="cls-1" points="160.21 76.44 147.59 78.29 156.7 87.21 154.54 99.83 165.84 93.87 177.13 99.83 174.97 87.21 184.08 78.29 171.47 76.44 165.82 64.97 160.17 76.44 160.21 76.44"/><path class="cls-1" d="M160.21,76.44"/></svg>