<?xml version="1.0" encoding="utf-8"?>
<!-- Generator: Adobe Illustrator 23.0.3, SVG Export Plug-In . SVG Version: 6.00 Build 0)  -->
<svg version="1.1" id="图层_1" xmlns="http://www.w3.org/2000/svg" xmlns:xlink="http://www.w3.org/1999/xlink" x="0px" y="0px"
	 viewBox="0 0 237 237" style="enable-background:new 0 0 237 237;" xml:space="preserve">
<style type="text/css">
	.st0{fill:#FFFFFF;}
</style>
<path class="st0" d="M73.7,82.8c0-2.5,1.8-3.9,4.2-3.9c2.4,0,4.2,1.5,4.2,3.9c0,2.3-1.8,3.9-4.2,3.9C75.5,86.7,73.7,85,73.7,82.8"/>
<path class="st0" d="M74.9,96.4c0-1.2,1-2.3,2.3-2.3h1.5c1.2,0,2.3,1,2.3,2.3v31.5c0,1.2-1,2.3-2.3,2.3h-1.5c-1.2,0-2.3-1-2.3-2.3
	V96.4z"/>
<path class="st0" d="M126.1,128.1l-9.8-16.8c0,0-1.5-2.3,0.6-3.1c5.4-2,8.9-6.3,8.9-13c0-10.1-7.1-13.7-17-13.7h-13
	c-1.2,0-2.3,1-2.3,2.3v44.1c0,1.3,1,2.3,2.3,2.3h1.6c1.2,0,2.3-1,2.3-2.3v-16.1c0-1.2,1-2.3,2.3-2.3h4.2c1.2,0,2.8,0.9,3.4,2
	l9.5,16.7c0.6,1.1,2.1,2,3.4,2h2.4C126.3,130.1,126.8,129.2,126.1,128.1 M107.9,104.5H102c-1.2,0-2.3-1-2.3-2.3V88.7
	c0-1.2,1-2.3,2.3-2.3h5.9c7.6,0,11.8,2.3,11.8,8.7C119.7,101.5,115.6,104.5,107.9,104.5"/>
<path class="st0" d="M135.7,83.8c0-1.2,1-2.3,2.3-2.3h23.5c1.2,0,2.3,1,2.3,2.3v0.6c0,1.2-1,2.3-2.3,2.3h-17.3c-1.2,0-2.3,1-2.3,2.3
	v10.7c0,1.2,1,2.3,2.3,2.3H158c1.2,0,2.3,1,2.3,2.3v0.7c0,1.2-1,2.3-2.3,2.3h-13.9c-1.2,0-2.3,1-2.3,2.3v13.2c0,1.2,1,2.3,2.3,2.3
	h18.1c1.2,0,2.3,1,2.3,2.3v0.7c0,1.2-1,2.3-2.3,2.3H138c-1.2,0-2.3-1-2.3-2.3V83.8z"/>
<path class="st0" d="M150.3,168.1c0.1-0.6,0.6-1,1.1-0.8h0.4c1.9,0,3.1-1.5,3.8-3.6l0.4-1.3l-6.1-15.3c-0.3-0.7,0.1-1.3,0.9-1.3h0.2
	c0.8,0,1.6,0.6,1.8,1.3l2.4,6.7c0.3,0.7,0.7,1.9,0.9,2.6l0.7,2.1c0.2,0.7,0.6,0.7,0.9,0l0.7-2.1c0.2-0.7,0.6-1.9,0.9-2.6l2.1-6.6
	c0.2-0.7,1-1.3,1.8-1.3c0.7,0,1.2,0.6,0.9,1.3l-5.8,16.7c-1.2,3.3-2.9,5.8-6.2,5.8h-0.8C150.6,169.4,150.2,168.7,150.3,168.1"/>
<path class="st0" d="M137.4,147.2V161c0,0.8-0.6,1.4-1.4,1.4H136c-0.8,0-1.4-0.6-1.4-1.4v-13.9c0-0.8,0.6-1.4,1.4-1.4h0.1
	C136.8,145.8,137.4,146.4,137.4,147.2"/>
<path class="st0" d="M138,140.6c0,1-0.8,1.8-1.9,1.8c-1.1,0-1.9-0.8-1.9-1.8c0-1.1,0.8-1.8,1.9-1.8C137.2,138.8,138,139.5,138,140.6
	"/>
<path class="st0" d="M147.4,161.5c0.1,0.6-0.2,1.2-0.7,1.3H146c-2.1,0-2.9-1.3-2.9-3.7v-14v-5.7c0-0.8,0.6-1.4,1.4-1.4h0.1
	c0.8,0,1.4,0.6,1.4,1.4v5.6v14.2c0,0.9,0.4,1.2,0.8,1.2h0.2C147,160.5,147.3,160.9,147.4,161.5"/>
<path class="st0" d="M85.3,140c0.7,0,1.4,0.5,1.4,1.2c0,0.7-0.6,1.2-1.4,1.2h-7.4c-0.8,0-1.4,0.6-1.4,1.4v4.9c0,0.7,0.6,1.4,1.4,1.4
	h5.8c0.7,0,1.4,0.5,1.4,1.2c0,0.7-0.6,1.2-1.4,1.2h-5.8c-0.8,0-1.4,0.6-1.4,1.4v7.3c0,0.8-0.6,1.4-1.4,1.4h-0.1
	c-0.8,0-1.4-0.6-1.4-1.4v-19.7c0-0.8,0.6-1.4,1.4-1.4H85.3z"/>
<path class="st0" d="M101.1,159.1v1.9c0,0.8-0.5,1.4-1.1,1.4c-0.6,0-1.2-0.4-1.3-1c-0.1-0.5-0.3-1-0.6-0.7c-1.5,1.2-3.2,2.1-5.1,2.1
	c-2.8,0-4.9-1.7-4.9-4.7c0-3.5,2.9-5.3,9.5-6.1c0.2,0,0.4,0,0.4,0c0.2,0,0.4-0.2,0.4-0.4c0,0,0-0.5-0.1-0.9
	c-0.3-1.6-1.2-2.9-3.3-2.9c-1.9,0-3.8,1.1-3.8,1.1c-0.6,0.4-1.4,0.3-1.7-0.3c-0.3-0.5,0-1.3,0.6-1.6c0,0,2.7-1.5,5.3-1.5
	c4,0,5.7,2.7,5.7,6.8V159.1z M98.3,158v-3.9c0-0.2-0.2-0.4-0.4-0.3c0,0-0.4,0-0.7,0.1c-4.7,0.7-6.4,2-6.4,4c0,1.9,1.3,2.7,2.9,2.7
	c1.3,0,2.5-0.5,3.8-1.5c0.3-0.2,0.5-0.4,0.5-0.4C98.2,158.5,98.3,158.2,98.3,158"/>
<path class="st0" d="M129.3,154.6v6.4c0,0.8-0.6,1.4-1.4,1.4h-0.1c-0.8,0-1.4-0.6-1.4-1.4v-6.3v-2.5c0-3.1-1-4.4-3.1-4.4
	c-0.9,0-1.9,0.4-3,1.3c-0.4,0.3-0.9,0.9-0.9,0.9c-0.1,0.1-0.3,0.4-0.3,0.6v4.1v6.2c0,0.8-0.6,1.4-1.4,1.4h-0.1
	c-0.8,0-1.4-0.6-1.4-1.4V155v-2.7c0-3.1-1-4.4-3.1-4.4c-1,0-2,0.5-3.2,1.5c-0.3,0.3-0.8,0.7-0.8,0.7c-0.1,0.2-0.3,0.4-0.3,0.6v3.9
	v6.4c0,0.8-0.6,1.4-1.4,1.4h-0.1c-0.8,0-1.4-0.6-1.4-1.4v-6.4v-7.5c0-0.8,0.5-1.4,1.1-1.4c0.6,0,1.2,0.5,1.3,1.2
	c0.1,0.7,0.1,0.8,0.1,0.8c0,0.2,0.2,0.3,0.3,0.1c0,0,0.5-0.5,0.9-0.8c1.2-1,2.6-1.7,4.1-1.7c1.9,0,3.2,0.7,4,1.9
	c0.2,0.4,0.4,0.9,0.4,0.9c0.1,0.2,0.3,0.2,0.4,0.1c0,0,0.6-0.6,1-1c1.3-1.2,2.7-2,4.2-2c3.4,0,5,2.3,5,6.5V154.6z"/>
<path class="st0" d="M180.5,179.5h-124c-30.9,0-56-25.1-56-56v-10c0-30.9,25.1-56,56-56h124c30.9,0,56,25.1,56,56v10
	C236.5,154.4,211.4,179.5,180.5,179.5z M56.5,59.5c-29.8,0-54,24.2-54,54v10c0,29.8,24.2,54,54,54h124c29.8,0,54-24.2,54-54v-10
	c0-29.8-24.2-54-54-54H56.5z"/>
<path class="st0" d="M123.5,236.5h-10c-30.9,0-56-25.1-56-56v-124c0-30.9,25.1-56,56-56h10c30.9,0,56,25.1,56,56v124
	C179.5,211.4,154.4,236.5,123.5,236.5z M113.5,2.5c-29.8,0-54,24.2-54,54v124c0,29.8,24.2,54,54,54h10c29.8,0,54-24.2,54-54v-124
	c0-29.8-24.2-54-54-54H113.5z"/>
</svg>
