<?xml version="1.0" encoding="utf-8"?>
<!-- Generator: Adobe Illustrator 23.0.3, SVG Export Plug-In . SVG Version: 6.00 Build 0)  -->
<svg version="1.1" id="图层_1" xmlns="http://www.w3.org/2000/svg" xmlns:xlink="http://www.w3.org/1999/xlink" x="0px" y="0px"
	 viewBox="0 0 237 237" style="enable-background:new 0 0 237 237;" xml:space="preserve">
<style type="text/css">
	.st0{fill:#FFFFFF;}
</style>
<title>tubiao3</title>
<path class="st0" d="M118.5,237C53.1,237,0,183.9,0,118.5S53.1,0,118.5,0S237,53.1,237,118.5C236.9,183.9,183.9,236.9,118.5,237z
	 M118.5,2.1C54.2,2.1,2.1,54.2,2.1,118.5s52.1,116.4,116.4,116.4s116.4-52.1,116.4-116.4C234.8,54.3,182.7,2.2,118.5,2.1z"/>
<g>
	<path class="st0" d="M137.8,102.4l26.7,26.7l18.3-18.3c0.9-0.9,0.9-2.4,0-3.3l0,0L145,69.8c-0.9-0.9-2.4-0.9-3.3,0l0,0l-15.9,15.9
		l-0.3,0.4l-30.8,30.8c6.7,4.3,15.4,3.4,21-2.2l19.1-19.2c0.9-0.9,2.2-1.3,3.5-1c1.9,0.5,3,2.4,2.5,4.3c-0.2,0.7-0.5,1.2-1,1.7
		L137.8,102.4L137.8,102.4z M132.8,107.4l-12.1,12.1c-9.3,9.3-24.4,9.3-33.7,0l0,0c-1.4-1.4-1.4-3.6,0-5l0,0L113.5,88L97,71.7
		c-0.9-0.9-2.4-0.9-3.3,0l0,0L56,109.4c-0.9,0.9-0.9,2.4,0,3.3l0,0l62.5,62.5l6.4-6.4l-14.6-14.6c-1.4-1.4-1.4-3.6,0-5l0,0l0.8-0.8
		c1.4-1.4,3.6-1.4,5,0l14.6,14.6l5.5-5.5L121.5,143c-1.4-1.4-1.4-3.6,0-5l0,0l0.8-0.8c1.4-1.4,3.6-1.4,5,0l14.6,14.6l5.5-5.5
		l-14.6-14.6c-1.4-1.4-1.4-3.6,0-5l0,0l0.8-0.8c1.4-1.4,3.6-1.4,5,0l14.5,14.6l6.4-6.4L132.8,107.4L132.8,107.4z M167,136.6l-46,46
		c-1.4,1.4-3.6,1.4-5,0l0,0l-65-65c-3.7-3.7-3.7-9.6,0-13.3l0,0l37.7-37.7c3.7-3.7,9.6-3.7,13.3,0l0,0L118.4,83l18.3-18.3
		c3.7-3.7,9.6-3.7,13.3,0l37.8,37.8c3.7,3.7,3.7,9.6,0,13.3l0,0L167,136.6z"/>
</g>
</svg>
