<?xml version="1.0" encoding="utf-8"?>
<!-- Generator: Adobe Illustrator 23.0.3, SVG Export Plug-In . SVG Version: 6.00 Build 0)  -->
<svg version="1.1" id="图层_1" xmlns="http://www.w3.org/2000/svg" xmlns:xlink="http://www.w3.org/1999/xlink" x="0px" y="0px"
	 viewBox="0 0 594 53.94" style="enable-background:new 0 0 594 53.94;" xml:space="preserve">
<style type="text/css">
	.st0{fill:#040000;}
</style>
<g>
	<path class="st0" d="M7.02,23.63c1.68,7.44-1.68,16.8-0.24,23.46c-0.48,1.74-1.62,2.88-3.12,3.66c-0.78,0.3-1.68-0.24-1.02-1.44
		c-1.14,0.36-0.9,0-1.38-0.54c-1.2-1.26-1.26-1.5-0.42-4.2C1.08,43.85,0,43.31,0,42.47c0.12-2.58,0.96-5.64,1.26-7.98
		c0.18-2.16,0-4.86,0.24-7.26c0.12-1.44,1.44-1.86,0.48-3.84C3.6,21.53,5.22,22.91,7.02,23.63z M0.72,7.79
		c-0.48,2.58,0.72,4.74,1.98,6.3c4.26,0.54,5.64-3.06,4.98-6.06c-1.26-0.3-0.48-1.8-1.62-1.92C4.68,6.47,4.2,5.99,3.18,5.39
		C2.76,6.59,1.98,7.43,0.72,7.79z"/>
	<path class="st0" d="M50.4,12.83c0.54,0.84-0.36,1.74-0.42,2.64c-0.06,0.24,0.48,0.3,0.42,0.66c-0.84,7.68-8.58,14.28-14.7,18
		c1.5,0.6,2.58,1.02,4.8,1.26c4.14,0.54,6.78,3.66,9.9,5.52c1.8,1.08,2.88,2.46,4.86,3.72c-0.48,0.42-0.6,0.96,0.18,1.08
		c-0.18,1.92-2.04,0.72-2.16,2.64c-2.76-0.12-4.68-2.7-6.6-4.38c-2.34-0.54-3.96-2.94-6.9-3.36c-0.06,0.36-0.78,0.6-1.14,0.66
		c-1.5-0.96-3.54-0.9-4.32-1.86c-5.28,0.66-9-0.66-12.42,2.22c1.62,3,1.5,7.74,1.68,10.74c-1.14,0.24-2.46,0.9-2.82,1.26
		c-4.32-1.44-3.3-6.06-3.96-9.42c-0.06-0.48-0.54-0.9-0.66-1.32c-1.14-4.56,0.42-9.06,0.24-13.62c-0.18-3.96-0.18-7.86,0.24-11.88
		c-0.96,0.54-1.62,0.18-3.12,0.24c-1.32-1.5-1.26-2.82-1.74-5.04c1.38-0.72,3.3,0,3.3-1.32c1.8-0.9,4.2-0.6,5.28-2.64
		c1.86-0.48,3.66-0.12,4.8-1.5c1.14,0.48,1.68-0.48,2.64,0c0.48-0.06,0.48-0.6,0.48-1.14c6.66-0.18,13.26-2.22,17.34,2.88
		c2.1,0.48,3.9,1.38,3.9,3.96C49.74,13.43,50.04,12.17,50.4,12.83z M24.96,14.63c-0.84,0.3-0.78-0.24-1.14-0.24
		c-1.56,1.8-1.56,0.12-3.12,1.8c2.16,2.34,1.08,2.52,1.98,6.18c-0.48,0.48-1.08-0.06-1.74,0c-0.48,2.88,0.24,7.14-0.06,10.8
		c0.36,0.54,1.86-1.14,1.8,0.78c9.48-5.22,18.18-6.78,22.92-19.8c-1.5-3.48-7.62-3.18-10.98-2.46
		C30.9,11.57,28.38,13.43,24.96,14.63z"/>
	<path class="st0" d="M88.56,44.32c-5.76,3.78-11.82,6.18-20.52,6.48c-4.32-1.2-8.34-3.72-8.58-8.88c-0.12-0.24-0.36-0.36-0.66-0.54
		c0.66-4.26-2.4-2.88-4.98-4.32c0-2.1,0.96-3.18,1.62-4.44c1.56,0.42,1.86-0.48,3.18,0.66c0.54,0,0.48-0.84,1.08-0.78
		c0.48-4.38,4.26-7.26,6.3-10.68c1.14-0.72,3-0.72,3.36-2.46c0.3,0.18,0.48,0.36,0.48,0.84c0.54-1.44,2.94-1.2,3.36-1.98
		c2.82,0.72,4.98-0.66,8.16,0.96c0.78,2.22,2.28,1.44,2.64,3.72c0.6,4.2-2.76,6.9-4.98,9.36c-1.14,0.24-1.74-0.3-2.04,1.02
		c-2.4,0.24-3.54,3.6-5.58,3.12c-0.24,0.48-0.6,0.78-0.72,1.38c-0.78-0.78-0.96-0.06-1.8-0.78c-1.2,2.16-5.7,0.54-5.82,3.42
		c0.06-0.36,0.42,1.44,0.42,1.5c1.32,2.64,5.28,3.48,9.24,3c1.8-0.18,3.78-1.38,5.82-2.1c1.32-0.42,2.88-0.54,3.9-0.84
		c0.3-0.12,0.9-1.2,1.2-1.26c0.36-0.12,0.9,0.54,1.2,0.42c1.8-0.36,1.2-1.98,2.34-2.34C88.2,40.55,88.32,41.99,88.56,44.32z
		 M64.5,33.29c3.96-0.06,4.74-2.22,7.98-2.64c0.78-1.44,2.7-2.46,3.78-2.22c0.78-1.92,3.96-2.28,3.9-5.04
		c-6.9-2.34-10.98,2.34-14.7,6.6C65.4,30.65,64.26,32.99,64.5,33.29z"/>
	<path class="st0" d="M115.08,5.63c0.3,0,1.8-0.24,1.86-0.54c0.84,1.92,5.04,2.22,3.3,4.62c-1.86,0.54-5.46,0.54-6.84-0.18
		c-2.34,0.24-3.24,1.02-6,1.56c-0.36,0.24-0.54,0.66-0.78,0.96c-2.46,1.26-4.74,3.9-6.66,6.18c-3.72,4.44-4.5,15.48-1.2,21.06
		c3.3,5.88,8.28,5.52,12.36,6.06c0.42-0.06,0.12-0.84,0.48-1.02c1.26,0.78,2.28-0.78,3.24,0.24c1.74-1.38,2.76-1.86,5.82-2.28
		c-0.3-0.3-0.96-2.58,1.38-1.68c-0.9-3.36-0.24-6.48-1.74-9.3c0.42-0.36,0.96-1.8,1.02-2.58c-2.64-1.2-7.32,1.08-9.96,2.58
		c-1.08-0.66-3-0.6-4.44-0.96c-0.42-1.86,0.66-2.04,0-4.38c2.58-2.28,7.08-2.16,9.9-2.28c0.3,0,0.24-0.9,0.3-1.2
		c1.62-0.06,5.28-1.38,6.24-0.72c4.2-1.26-0.18,0.3,4.86-0.9c1.2,1.86,3.3-1.02,2.76,2.82c0.24,0,0.36-0.06,0.96-0.36
		c0.06,4.92-8.34,0.78-5.88,7.44c0,1.14,0.36,3.78,0,5.4c0.36,0.18,1.26-0.54,1.38,0.18c-0.24,1.92-0.9,5.22-0.48,7.32
		c-2.16,3.78-4.32,2.52-7.38,4.92c-1.14-0.42-3.84,1.2-4.74,1.86c-5.94-0.6-13.86,1.02-17.1-4.2c-2.28-0.06-3.18-3.54-5.22-4.68
		c-1.38-3.54-1.8-8.16-1.44-12.42c0.24-2.82,0.06-6.48,1.98-7.98c-0.6-1.02,0.18-1.86,0-3.24c1.2-0.42,2.04-1.26,2.22-2.7
		c1.86-0.54,2.76-2.52,2.94-3.96c1.32,1.02,0.72-2.16,2.82-1.26c0.72-0.24,0.36-1.32,0.78-2.1c0.66,0,1.08,0.06,1.08,0.72
		c0.36-0.3,0.78-0.48,0.78-1.08c1.5,0.48,2.76-0.3,3.24-1.5c3.12-0.84,4.86-1.14,7.98-1.26C114.84,5.21,115.14,5.15,115.08,5.63z"/>
	<path class="st0" d="M161.7,23.09c0.72,0.18,0.48,0.18,1.2,0c0.96,1.32,2.16,2.4,3.06,3.84c2.7,6.84-0.78,12.84-4.02,17.04
		c-0.42,0.06-0.42-0.18-0.48-0.48c-0.9,2.22-3.12,3.18-4.5,4.98c-1.38-0.18-1.92,0.42-2.1,1.44c-2.1,0.54-4.86,1.2-6.42,0.42
		c-0.24,0.18-0.24,0.6-0.72,0.48c0.36-0.84-0.78-0.12-0.72-0.72c-2.94,0.06-4.74-1.14-6.36-3.54c-4.68-1.5-5.4-8.1-4.5-14.46
		c1.2,0.12,0.18-1.56,1.38-2.1c1.08-3.96,4.08-7.92,8.1-9.72c0.78-0.84,1.68-1.74,3.06-1.92c0.66-0.24,1.44-0.78,2.7-0.54
		c3.42-0.42,6.18,0.9,8.22,3.42C160.92,21.23,161.7,21.77,161.7,23.09z M145.2,27.23c-2.22,4.68-5.94,8.22-2.7,15.78
		c1.5,2.46,4.14,1.92,7.62,1.68c0.12-0.66,1.5-0.72,1.62-1.38c2.52,0.42,3.72-2.4,5.88-3.12c0.48-2.04,1.92-3.06,3.3-4.26
		c0.6-2.82,1.14-4.02,0.66-7.44c-1.14-0.66-2.16-2.7-3.96-2.64c0.12-0.78,0.12-0.48,0-1.2c-2.88-0.54-4.5,0.12-6.96-1.38
		C148.62,24.23,147.36,26.45,145.2,27.23z"/>
	<path class="st0" d="M194.76,4.12c1.2,0,2.08,0.46,2.64,1.38c0.08,1.12-0.04,2.26-0.36,3.42c-0.4,1.32-0.64,2.7-0.72,4.14
		c0.2,0.44,0.51,0.57,0.93,0.39c0.42-0.18,0.79-0.21,1.11-0.09c0.92-0.04,1.82,0.1,2.7,0.42c0.76,0.92,0.84,2,0.24,3.24
		c0.4,0.2,0.49,0.48,0.27,0.84c-0.22,0.36-0.11,0.58,0.33,0.66c-1.32,0.24-2.64,0.7-3.96,1.38c-0.96,0.36-1.48,0.99-1.56,1.89
		c-0.08,0.9-0.26,1.73-0.54,2.49c0.36,0.64,0.76,0.6,1.2-0.12c1.12,0.04,2.46,0,4.02-0.12c0.84-0.08,1.58,0.06,2.22,0.42
		c0.68,0.44,1.12,0.96,1.32,1.56c-0.12,0.8-0.54,1.2-1.26,1.2c-3.32-0.44-6.42,0.04-9.3,1.44c1,0.32,1.86,0.82,2.58,1.5
		c-0.4,1.04-0.28,2,0.36,2.88c0.84,0.36,1.7,0.42,2.58,0.18c0.56-0.08,1.06-0.14,1.5-0.18c0.4-0.36,0.6-0.8,0.6-1.32
		c0.68,0.6,1.38,1.04,2.1,1.32c1.44,0.24,2.26,1,2.46,2.28c-0.56,1.16-1.7,1.58-3.42,1.26c-1.76-0.12-3.48-0.34-5.16-0.66
		c-1.04,0.04-1.38,0.64-1.02,1.8c0.16,1.12,0.16,2.16,0,3.12c-0.2,0.64,0.06,0.98,0.78,1.02c4.24,0.6,8.32,1.66,12.24,3.18
		c1.6,0.56,3.16,1.14,4.68,1.74c0.96,0.08,1.7,0.48,2.22,1.2c0.4,0.4,0.72,0.74,0.96,1.02c-0.2,0.4-0.2,0.84,0,1.32
		c-0.56,0.64-1.31,0.9-2.25,0.78c-0.94-0.12-1.83-0.18-2.67-0.18c-3.76-0.96-7.38-2.24-10.86-3.84c-1.92-0.52-3.74-1.26-5.46-2.22
		c-1.72-0.96-3.6-1.58-5.64-1.86c-1.92-0.68-3.92-1.2-6-1.56l-2.28,1.74c-0.72,0.52-1.5,0.94-2.34,1.26
		c-0.84,0.32-1.5-0.02-1.98-1.02c-1-0.52-1.02-0.98-0.06-1.38c1.52-2,3.26-3.78,5.22-5.34c0.88-0.76,1.48-1.54,1.8-2.34
		c0,0.08,0.08-0.06,0.24-0.42c0.16-0.36,0.32-0.44,0.48-0.24c0.2-0.6,0.54-0.6,1.02,0c0.56,0.04,0.98,0.18,1.26,0.42
		c0.48-0.04,0.98,0.14,1.5,0.54c1,0.28,1.3,0.96,0.9,2.04c-0.72,0.72-1.46,1.22-2.22,1.5c-0.28,0.24-0.63,0.53-1.05,0.87
		s-0.37,0.59,0.15,0.75c1.24,0.16,2.45,0.31,3.63,0.45c1.18,0.14,1.49-0.31,0.93-1.35c0.52-0.52,0.58-1.06,0.18-1.62
		c0-1.24,0.02-2.38,0.06-3.42c-0.16-1.04-0.34-2.02-0.54-2.94c-0.4,0.08-0.66-0.06-0.78-0.42c-0.12-0.36-0.4-0.42-0.84-0.18
		c-1.84,0.52-3.7,1.26-5.58,2.22c-1.68,0.88-3.5,1.42-5.46,1.62c-1.2,0.04-1.88-0.5-2.04-1.62c-1.04-1.04-1.2-2.14-0.48-3.3
		c0.04,0.88,0.3,1.66,0.78,2.34c1.6-0.16,3.02-0.58,4.26-1.26l4.98-2.34c0.8-0.4,1.6-0.6,2.4-0.6c1.48-0.52,2.92-1.12,4.32-1.8
		c-0.52-1.08-0.74-2.36-0.66-3.84c-0.84-0.44-1.74-0.84-2.7-1.2c-0.64-0.28-1.24-0.58-1.8-0.9c-0.08-0.6-0.48-1.03-1.2-1.29
		c-0.72-0.26-0.84-0.65-0.36-1.17c0.72,0.4,1.48,0.4,2.28,0c1.56-0.56,2.9-1.46,4.02-2.7c0.2-2.04,0.3-4.02,0.3-5.94
		c0.16-0.92-0.13-1.4-0.87-1.44c-0.74-0.04-1.43-0.12-2.07-0.24c-0.2,0.08-0.17,0.02,0.09-0.18c0.26-0.2,0.19-0.38-0.21-0.54
		c0.24-0.88,0.78-1.56,1.62-2.04C192.52,4.33,193.6,4.33,194.76,4.12z M186.36,40.24c0.84-0.24,0.82-0.32-0.06-0.24
		C186.06,40.16,186.08,40.24,186.36,40.24z"/>
	<path class="st0" d="M245.1,3.53c1,0.52,2.08,0.94,3.24,1.26c1,0.8,1.56,1.94,1.68,3.42c-0.32,0.32-0.48,0.7-0.48,1.14l-0.06,7.68
		c1.12,0,1.9,0.34,2.34,1.02c0.32,0.8,0.02,1.36-0.9,1.68c0.08,0.76-0.26,1.28-1.02,1.56c-0.12,0.96-0.24,2.08-0.36,3.36
		c-0.12,0.52,0.08,0.83,0.6,0.93c0.52,0.1,0.68,0.35,0.48,0.75c-0.24,0.88-0.62,1.66-1.14,2.34c-0.04,0.88-0.04,1.64,0,2.28
		c-0.12,0.56,0.05,0.76,0.51,0.6c0.46-0.16,0.77-0.1,0.93,0.18c0.96,0,1.84-0.04,2.64-0.12c1.8-0.16,2.48,0.44,2.04,1.8
		c0,1.36-0.6,1.88-1.8,1.56c-1.64-0.2-3.14-0.2-4.5,0c0.12,1.16,0.1,2.3-0.06,3.42c-0.12,0.84,0.34,1.16,1.38,0.96
		c1.28,0.2,2.5,0.44,3.66,0.72c2.48,0.28,4.94,0.8,7.38,1.56c4.64,1.68,9.34,3.26,14.1,4.74c0.6,0.08,1.25,0.23,1.95,0.45
		c0.7,0.22,1.09-0.07,1.17-0.87c-0.08-0.44,0.06-0.62,0.42-0.54c0.56-0.04,1.08,0.14,1.56,0.54c1,0.64,1.38,1.44,1.14,2.4
		c0.08,0.4-0.08,0.66-0.48,0.78c-0.52,1.24-1.48,2.04-2.88,2.4c-0.92,0.04-1.62,0.04-2.1,0c-0.84,0.08-1.72,0.02-2.64-0.18
		c-1.2-0.2-2.26-0.54-3.18-1.02c-0.72,0.16-1.26-0.1-1.62-0.78c-1.16-0.08-2.1-0.34-2.82-0.78c-0.68-0.2-1.3-0.46-1.86-0.78
		c-5.12-2.2-10.3-4.3-15.54-6.3c-0.28-0.32-0.6-0.4-0.96-0.24c-0.36,0.16-0.64,0-0.84-0.48c-0.84-0.36-1.76-0.6-2.76-0.72
		c-1.08-0.08-2.2-0.22-3.36-0.42c-0.64-0.16-1.26-0.32-1.86-0.48c-1.08,1.92-2.5,3.52-4.26,4.8c-0.72,0.64-1.1,0.6-1.14-0.12
		c-0.24-0.48-0.38-1.06-0.42-1.74c0.2-0.96,0.78-1.88,1.74-2.76c2.2-2.6,4.54-4.92,7.02-6.96c0.6-0.56,1.04-1.02,1.32-1.38
		c-0.92,0.24-1.82,0.64-2.7,1.2c-1.04,0.28-2.11,0.73-3.21,1.35c-1.1,0.62-2.29,1.21-3.57,1.77c-0.72-0.76-1.38-1.6-1.98-2.52
		c-0.6-0.52-0.54-1.06,0.18-1.62c0.12-0.4,0.28-0.4,0.48,0c0.2,0.4,0.38,0.74,0.54,1.02c1.2-0.48,2.38-0.96,3.54-1.44
		c1.4-0.88,2.8-1.64,4.2-2.28c1.68-0.64,3.1-1.56,4.26-2.76c-0.48-0.84-0.74-1.76-0.78-2.76c-1.28,0.64-2.58,0.7-3.9,0.18
		c-0.84-0.72-1.42-1.56-1.74-2.52c-0.32-0.48-0.27-0.9,0.15-1.26c0.42-0.36,0.67-0.24,0.75,0.36c0.2,0.64,0.61,0.84,1.23,0.6
		c0.62-0.24,1.17-0.44,1.65-0.6c1.16-0.36,2.04-0.94,2.64-1.74c-0.04-1.8,0-3.46,0.12-4.98c0.12-2.04,0.04-4.08-0.24-6.12
		c0-0.72-0.31-0.99-0.93-0.81c-0.62,0.18-1.15,0.39-1.59,0.63c-0.68,0.32-0.78,0.22-0.3-0.3c0.76-1.08,1.44-2.14,2.04-3.18
		L245.1,3.53z M243.9,32.8c-1.4,1.8-2.76,3.66-4.08,5.58c1.08,0.36,2.44,0.46,4.08,0.3c0.76,0.04,1.44,0.04,2.04,0
		c-0.2-0.88-0.38-1.72-0.54-2.52c0.48-0.52,0.72-1.12,0.72-1.8c0-0.52-0.01-1.1-0.03-1.74c-0.02-0.64-0.35-0.82-0.99-0.54
		L243.9,32.8z M243.36,31.19c0.72-0.08,1.44-0.02,2.16,0.18c0.52,0.28,0.79,0.07,0.81-0.63c0.02-0.7-0.19-0.93-0.63-0.69
		C244.9,30.37,244.12,30.74,243.36,31.19z M267.6,15.58c0.96,0.92,0.96,1.9,0,2.94c-0.04,0.48-0.28,1.04-0.72,1.68
		c-1.52,1.48-3.12,2.76-4.8,3.84c-0.12,0.36,0.08,0.5,0.6,0.42c0.52-0.08,0.88,0.06,1.08,0.42c1.12,0.64,1.04,1.42-0.24,2.34
		c-1.12,0.4-1.9,1.06-2.34,1.98c0.12,0.92-0.08,1.76-0.6,2.52c0.68,0.08,1.42-0.04,2.22-0.36c0.32-0.32,0.64-0.44,0.96-0.36
		c0.28-0.48,0.59-0.52,0.93-0.12c0.34,0.4,0.67,0.44,0.99,0.12c0.8,0.28,1.64,0.45,2.52,0.51c0.88,0.06,1.56,0.41,2.04,1.05
		c0.88,0.48,0.98,0.94,0.3,1.38c-0.44,0.76-1.2,1.28-2.28,1.56c-2.04,0.56-4.16,0.78-6.36,0.66c-1.32-0.04-2.5-0.5-3.54-1.38
		c-0.64-0.92-1.19-1.94-1.65-3.06c-0.46-1.12-0.37-2.22,0.27-3.3c-0.04-0.88-0.06-1.8-0.06-2.76s-0.5-1.56-1.5-1.8
		c-0.56,0.08-0.7,0-0.42-0.24c0.28-0.24,0.62-0.34,1.02-0.3c0.88,0.44,1.8,0.72,2.76,0.84c0.92-0.92,1.38-2.1,1.38-3.54
		c0.2-0.24,0.36-0.6,0.48-1.08c0.12-0.48-0.04-0.5-0.48-0.06c-0.92,0.08-1.8-0.14-2.64-0.66c0.04-0.16-0.21-0.24-0.75-0.24
		c-0.54,0-0.63-0.14-0.27-0.42c0.44-0.16,0.38-0.46-0.18-0.9c0.96-0.36,1.78-0.9,2.46-1.62c0.68-0.16,1.24-0.5,1.68-1.02
		c0.44-0.52,1-0.76,1.68-0.72c0.48-0.28,0.88-0.62,1.2-1.02C264.94,13.69,266.36,14.59,267.6,15.58z M260.58,18.34
		c0,0.56,0.13,0.63,0.39,0.21c0.26-0.42,0.19-0.55-0.21-0.39L260.58,18.34z"/>
	<path class="st0" d="M295.26,44.38c0-0.44-0.08-0.75-0.24-0.93c-0.16-0.18-0.32-0.31-0.48-0.39c-0.16-0.08-0.34-0.18-0.54-0.3
		c-0.16-0.04-0.26-0.16-0.3-0.36l0.06-1.68c0-0.96,0.23-1.55,0.69-1.77c0.46-0.22,1.13-0.33,2.01-0.33c0.36,0,0.78,0.04,1.26,0.12
		c0.44,0.16,0.87,0.36,1.29,0.6c0.42,0.24,0.77,0.53,1.05,0.87c0.28,0.34,0.42,0.75,0.42,1.23c0,0.56-0.2,1.21-0.6,1.95
		c-0.4,0.74-0.91,1.43-1.53,2.07c-0.62,0.64-1.28,1.17-1.98,1.59c-0.7,0.42-1.37,0.63-2.01,0.63c-0.04,0-0.06-0.02-0.06-0.06v-0.06
		c0-0.52,0.16-1.04,0.48-1.56C295.1,45.49,295.26,44.95,295.26,44.38z"/>
	<path class="st0" d="M369.3,3.46c0,4.52,0.8,9.04,2.4,13.56c0.04,1.72,0.64,3.05,1.8,3.99c1.16,0.94,2.08,2.05,2.76,3.33
		c-1.28,0.36-1.55,1.35-0.81,2.97c0.74,1.62,1.39,2.51,1.95,2.67c1.24-1.08,1.95-2.48,2.13-4.2c0.18-1.72,1.01-2.72,2.49-3
		c2.68,1.36,3.16,3.09,1.44,5.19c-1.72,2.1-3.16,4.11-4.32,6.03c1.08,4.04,3.26,7.8,6.54,11.28c0.96-2.44,1.35-5.17,1.17-8.19
		c-0.18-3.02-0.69-5.77-1.53-8.25c1.76,2.56,2.97,5.55,3.63,8.97s1.71,6.65,3.15,9.69c0.6,0.96,1.13,2.27,1.59,3.93
		c0.46,1.66-0.01,2.63-1.41,2.91c-3.8-0.64-6.88-2.54-9.24-5.7c-2.36-3.16-4.32-6.38-5.88-9.66c-0.8-0.56-1.72-0.21-2.76,1.05
		c-1.04,1.26-2.06,2.03-3.06,2.31c-1.84,1.28-2.89,1.22-3.15-0.18c-0.26-1.4-0.11-2.76,0.45-4.08c0.08,0.64,0.51,0.95,1.29,0.93
		c0.78-0.02,1.37-0.59,1.77-1.71c2.32-1.6,3.06-3.45,2.22-5.55c-0.84-2.1-1.64-4.19-2.4-6.27c-1.56-0.2-3.23,0-5.01,0.6
		c-1.78,0.6-3.49,1.12-5.13,1.56c-0.44,1.6-0.06,2.07,1.14,1.41c1.2-0.66,1.78-0.93,1.74-0.81c-2.48,2.44-3.66,5.16-3.54,8.16
		s0.06,6.14-0.18,9.42c-0.28,1.2-0.89,1.77-1.83,1.71c-0.94-0.06-1.63-0.49-2.07-1.29c-1-1.48-2.3-2.3-3.9-2.46
		c-1.6-0.16-3.14-0.08-4.62,0.24c-0.96-2.16-0.48-4.02,1.44-5.58l5.34-4.26c1.4-0.4,2.3-1.37,2.7-2.91c0.4-1.54-0.22-1.91-1.86-1.11
		c-2.24,2.2-4.52,2.5-6.84,0.9c-2.32-1.6-2.82-3.78-1.5-6.54c-0.16,0.88-0.07,1.95,0.27,3.21c0.34,1.26,1.27,1.67,2.79,1.23
		c0.96-0.24,2.16-0.66,3.6-1.26c1.44-0.6,1.48-1.14,0.12-1.62c-1.68-0.48-1.96-0.87-0.84-1.17c1.12-0.3,2.12-0.81,3-1.53
		c2.4,1,4.65,1.06,6.75,0.18s4.17-1.86,6.21-2.94L365.82,4.3c0.28-1.48-0.31-2.4-1.77-2.76c-1.46-0.36-1.61-0.74-0.45-1.14
		C366,0.37,367.9,1.39,369.3,3.46z M360.72,8.74c1.2,0.12,2.44,0.84,3.72,2.16c1.28,1.32,1.66,2.82,1.14,4.5
		c-1.68,0.08-3.48,0.42-5.4,1.02c-1.92,0.6-3.72,0.98-5.4,1.14c-1.52-0.4-1.82-0.89-0.9-1.47c0.92-0.58,1.8-1.19,2.64-1.83
		c1.6-0.76,2.42-1.7,2.46-2.82c0.04-1.12-0.02-2.38-0.18-3.78C359.28,8.71,359.92,9.07,360.72,8.74z M354.69,39.34
		c-1.06,0.92-1.17,1.66-0.33,2.22c1.6,1,2.55,0.7,2.85-0.9c0.3-1.6,0.23-2.86-0.21-3.78C356.52,37.61,355.75,38.43,354.69,39.34z
		 M359.49,44.26c0.14-0.24,0.09-0.32-0.15-0.24h-0.12C359.26,44.43,359.35,44.5,359.49,44.26z M381.6,10.42
		c1.8,0.92,2.58,2.58,2.34,4.98c-1.76,0.92-3.49,0.77-5.19-0.45c-1.7-1.22-3.31-2.49-4.83-3.81c-1.52-0.6-1.93-0.97-1.23-1.11
		c0.7-0.14,1.63-0.33,2.79-0.57C377.76,9.19,379.8,9.51,381.6,10.42z"/>
	<path class="st0" d="M420.72,13.91c1.04,0.64,1.98,1.34,2.82,2.1c0.6,0.8,0.76,1.66,0.48,2.58c-0.08,1.68-1,2.74-2.76,3.18
		c-1.76,1.48-3.46,3-5.1,4.56c-0.48,1.04-0.74,2.08-0.78,3.12c1.88,1.92,3.08,4.16,3.6,6.72c0.08,0.6,0.02,1.19-0.18,1.77
		c-0.2,0.58-0.44,1.11-0.72,1.59c-0.32,0.68-0.9,0.98-1.74,0.9c-1.04-0.8-1.55-1.79-1.53-2.97c0.02-1.18-0.11-2.29-0.39-3.33
		c-0.44-0.44-0.7-0.96-0.78-1.56c0.08-1.2,0.06-2.4-0.06-3.6c-0.36-0.56-0.22-1.08,0.42-1.56c0.68-0.56,1.3-1.32,1.86-2.28
		c0.92-1.32,1.83-2.62,2.73-3.9s1.27-2.84,1.11-4.68c0.12-0.6-0.02-1.08-0.42-1.44c-0.4-0.36-0.46-0.8-0.18-1.32L420.72,13.91z
		 M436.32,8.57c1,0.52,1.98,1.2,2.94,2.04c0.76,0.4,1.24,0.96,1.44,1.68c0.04,2.2-0.1,4.28-0.42,6.24c0,1-0.2,1.86-0.6,2.58
		c-0.32,1.8-0.8,3.54-1.44,5.22c1-0.08,1.98-0.48,2.94-1.2c1.08-0.72,2.2-0.94,3.36-0.66c2.28,0.2,3.4,1.46,3.36,3.78
		c0.04,0.64,0.04,1.18,0,1.62c-0.12,1.16-0.18,2.28-0.18,3.36c-0.32,0.56-0.37,1.14-0.15,1.74c0.22,0.6,0.23,1.18,0.03,1.74
		c-0.48,0.72-0.62,1.55-0.42,2.49c0.2,0.94,0.08,1.77-0.36,2.49c0.16,1.44-0.22,2.68-1.14,3.72c-0.32,0.76-0.94,1.14-1.86,1.14
		c-1.28,0.24-2.34,0.18-3.18-0.18l-3.84-0.54c-0.56-0.36-1.1-0.5-1.62-0.42c0.16-0.8,0.08-1.54-0.24-2.22
		c-0.32-0.68-0.34-1.38-0.06-2.1c-0.48-0.84-0.72-1.86-0.72-3.06c0.16-0.96,0.3-1.86,0.42-2.7c-0.08-1.44,0.36-2.74,1.32-3.9
		c1.44,0.12,2.74,0.36,3.9,0.72c1.28,0.36,1.94,1.24,1.98,2.64c0.12,1.32-0.4,2.22-1.56,2.7c-1.36-1.08-2.62-2.28-3.78-3.6
		c-0.52,0.6-0.56,1.36-0.12,2.28c-0.16,2,0.68,3.56,2.52,4.68c1.36-0.12,2.66-0.38,3.9-0.78c0.8-0.2,1.22-0.7,1.26-1.5
		c0.04-0.8,0.16-1.5,0.36-2.1c0.36-3.28,0.48-6.46,0.36-9.54c-1.08-0.4-2.12-0.3-3.12,0.3c-1.52,0.32-3.02,0.8-4.5,1.44
		c-0.24,1-0.72,1.76-1.44,2.28c-0.6-2.72-0.66-5.52-0.18-8.4c0.6-2.6,1.06-5.28,1.38-8.04c0.4-1.56,0.32-3.08-0.24-4.56
		c-0.44-0.64-0.92-0.79-1.44-0.45c-0.52,0.34-1.02,0.71-1.5,1.11c-1.16,1.88-2.14,3.86-2.94,5.94c-0.48,1.56-1.06,3.08-1.74,4.56
		l-1.62,4.5c0.72,0.64,1,1.38,0.84,2.22c0,1.28-0.14,2.54-0.42,3.78v5.1c-0.2,1.52-0.72,2.78-1.56,3.78
		c-0.48,0.68-0.92,0.78-1.32,0.3c-0.4-0.48-0.8-0.9-1.2-1.26c-0.8-0.28-1.62-0.62-2.46-1.02c-0.76,0.36-1.06,0.1-0.9-0.78
		c0.64-3.12,1.76-5.96,3.36-8.52c0.28-0.56,0.38-1.02,0.3-1.38c-0.84,0.44-1.76,0.38-2.76-0.18c-0.48-0.52-0.92-1.1-1.32-1.74
		c1.4-0.32,2.72-0.74,3.96-1.26c0.6,0.16,1.24,0.24,1.92,0.24c2.48-3.72,4.52-7.62,6.12-11.7c0.6-2,1.92-3.54,3.96-4.62H436.32z
		 M423.24,35.57c-0.04,0.68,0.18,0.84,0.66,0.48c0.48-0.36,0.64-0.82,0.48-1.38c0.16-1.04,0.04-1.6-0.36-1.68
		C423.54,33.79,423.28,34.65,423.24,35.57z"/>
	<path class="st0" d="M494.34,6.7c1.32,0.24,2.2,1.12,2.64,2.64c0.44,1.4,0.62,2.84,0.54,4.32c0.08,0.44-0.09,0.75-0.51,0.93
		c-0.42,0.18-0.55,0.41-0.39,0.69c1.08,0.12,2.02-0.1,2.82-0.66c0.28,0.52,0.74,0.52,1.38,0c0.12,0.36,0.33,0.45,0.63,0.27
		c0.3-0.18,0.55-0.21,0.75-0.09c0.36-0.12,0.77-0.18,1.23-0.18c0.46,0,0.51,0.22,0.15,0.66c1,0.96,1.28,2.06,0.84,3.3
		c-1.44,1.56-3.16,2.74-5.16,3.54c-0.4,0.72-0.95,1.37-1.65,1.95c-0.7,0.58-0.97,1.39-0.81,2.43c0,1.4,0.24,2.72,0.72,3.96
		c0.72,0.56,1.36,1.1,1.92,1.62c0.12,0.88,0.14,1.64,0.06,2.28c-0.12,1.04-0.58,1.9-1.38,2.58c-0.8,0.68-1.54,1.38-2.22,2.1
		c-0.32,0.08-0.53,0.33-0.63,0.75c-0.1,0.42-0.27,0.57-0.51,0.45c-0.76,0.48-1.7,0.9-2.82,1.26c-1.04,0.12-1.96,0.44-2.76,0.96
		c-0.6,0.28-0.98,0.64-1.14,1.08c1.8-0.4,3.58-0.76,5.34-1.08c0.32-0.44,0.69-0.59,1.11-0.45c0.42,0.14,0.75,0.01,0.99-0.39
		c0.48,0.32,1.22,0.38,2.22,0.18c1,0.44,2.06,0.78,3.18,1.02c0.52,0.08,0.8,0.39,0.84,0.93c0.04,0.54,0.28,0.91,0.72,1.11
		c-0.6,0.08-0.76,0.46-0.48,1.14c-0.2,1.36-0.95,2.05-2.25,2.07c-1.3,0.02-2.51,0.07-3.63,0.15c-0.84,0.12-1.64,0.16-2.4,0.12
		c-0.84,0.4-1.72,0.46-2.64,0.18c-1.2,0.2-2.36,0.06-3.48-0.42c-1.2-0.6-1.88-1.58-2.04-2.94c-0.52-1.72-0.28-3.16,0.72-4.32
		c1-1.6,2.04-3.18,3.12-4.74c0.6-0.8,0.4-1.26-0.6-1.38c-1.72-0.88-3.1-2.12-4.14-3.72c-0.24-0.28-0.28-0.36-0.12-0.24
		c0.16,0.12,0.24,0.02,0.24-0.3c0.56,0.36,1.2,0.52,1.92,0.48c1.64-0.32,3.16-0.74,4.56-1.26c-0.04-0.84-0.2-1.66-0.48-2.46
		c-1.48-0.44-3.04-0.54-4.68-0.3c-0.84-0.44-1.44-0.14-1.8,0.9c-0.28,0.48-0.54,0.94-0.78,1.38c-0.92,1.32-2.1,2.12-3.54,2.4
		c-0.44,0.08-0.85,0.3-1.23,0.66c-0.38,0.36-0.57,0.24-0.57-0.36L477,28.96c0.08-2.36,0.98-4.46,2.7-6.3
		c0.48-0.68,0.97-1.46,1.47-2.34c0.5-0.88,0.53-1.8,0.09-2.76c-0.44-0.84-0.64-1.68-0.6-2.52c0.68-0.44,1.22-0.38,1.62,0.18
		c0.96,0.16,1.74,0.6,2.34,1.32c1.52,0.48,2.5,1.4,2.94,2.76c0.4,1.24,0.42,2.42,0.06,3.54c1.24-0.48,2.44-1,3.6-1.56
		c0.08-1.88,0.22-3.76,0.42-5.64c0.04-1.52,0.14-3.02,0.3-4.5c-0.8-0.28-1.2-0.88-1.2-1.8c-0.28-0.96-0.03-1.63,0.75-2.01
		c0.78-0.38,1.59-0.65,2.43-0.81L494.34,6.7z M496.71,17.48c0.18-0.3,0.05-0.37-0.39-0.21C496.4,17.71,496.53,17.78,496.71,17.48z"
		/>
	<path class="st0" d="M532.86,26.03c-0.52,0.8-0.5,1.58,0.06,2.34c0.56,0.76,1.1,1.42,1.62,1.98c0.44,0.48,0.52,1.06,0.24,1.74
		c-0.08,2.28-0.02,4.54,0.18,6.78c0.8-1,1.48-1.92,2.04-2.76c0.24-0.44,0.3-0.52,0.18-0.24c-0.12,0.28-0.08,0.52,0.12,0.72
		c0.2-0.52,0.54-0.82,1.02-0.9c0.28-0.56,0.36-0.58,0.24-0.06c-0.12,0.52-0.2,0.94-0.24,1.26c-0.68,1.72-1.08,3.56-1.2,5.52
		c-0.56,1.84-1.26,3.68-2.1,5.52c-0.68,1.16-1.28,1.06-1.8-0.3c-0.2-0.52-0.52-0.96-0.96-1.32c-0.12-0.96-0.5-1.8-1.14-2.52
		c0.12-0.4,0.3-0.86,0.54-1.38c-0.24-1.6-0.42-3.18-0.54-4.74c-0.24-1.04-0.38-2.14-0.42-3.3c-0.04-2.28,0-4.52,0.12-6.72
		c0-0.8,0.34-1.3,1.02-1.5c0.68-0.2,1.16-0.62,1.44-1.26C533.24,25.28,533.1,25.66,532.86,26.03z M536.58,9.88
		c1.52,0.4,3.02,1.08,4.5,2.04c0.6,0.48,1.06,0.98,1.38,1.5c0.48,0.76,0.76,1.5,0.84,2.22c0.08,1.52-0.58,2.22-1.98,2.1
		c-0.88,0.04-1.68-0.12-2.4-0.48c-0.6-0.24-0.64-0.62-0.12-1.14c-1.4-1.56-2.94-2.98-4.62-4.26c-0.4-0.08-0.85-0.31-1.35-0.69
		c-0.5-0.38-0.37-0.55,0.39-0.51c0.68-0.44,1.4-0.7,2.16-0.78H536.58z M537.6,36.67c0-0.26-0.16-0.23-0.48,0.09
		C537.44,36.97,537.6,36.94,537.6,36.67z M537.81,36.44c0.1-0.26,0.01-0.29-0.27-0.09C537.62,36.67,537.71,36.7,537.81,36.44z
		 M560.04,6.28c0.92,0.84,1.88,1.6,2.88,2.28c0.48,0.4,0.93,0.94,1.35,1.62c0.42,0.68,0.33,1.32-0.27,1.92
		c-0.44,1.04-1.24,1.8-2.4,2.28c-0.88,0.64-1.74,1.1-2.58,1.38c-0.28,0.2-0.66,0.43-1.14,0.69c-0.48,0.26-0.52,0.59-0.12,0.99
		c1.76-0.2,2.92,0.5,3.48,2.1c0.12,0.76,0.14,1.42,0.06,1.98c0.8-0.12,1.5-0.32,2.1-0.6c0.68,0.72,1.67,1.13,2.97,1.23
		c1.3,0.1,2.47,0.73,3.51,1.89c0.04,0.44-0.2,0.63-0.72,0.57c-0.52-0.06-0.8,0.11-0.84,0.51c0.32,0.36,0.14,0.58-0.54,0.66
		c-0.36,0.24-0.74,0.4-1.14,0.48c-0.28,0.32-0.46,0.36-0.54,0.12c-0.08-0.24-0.26-0.26-0.54-0.06c0.12,0.24-0.08,0.4-0.6,0.48
		c-0.36,0.04-0.6,0-0.72-0.12c-0.88,0.28-1.88,0.66-3,1.14c0.12,1.6-0.14,3.12-0.78,4.56c-0.52,0.8-1.14,1.44-1.86,1.92
		c-0.04-0.56-0.22-0.7-0.54-0.42c-0.32,0.28-0.64,0.42-0.96,0.42c-0.16,0.2-0.42,0.14-0.78-0.18c-0.72-0.16-1.46,0.12-2.22,0.84
		c0.08,0.88,0.02,1.66-0.18,2.34c-0.52,0.92-0.98,1.86-1.38,2.82c-0.6,0.88-0.98,1.8-1.14,2.76l2.52-1.8c2.84-3,6.2-4.98,10.08-5.94
		c0.56-0.56,1.34-0.82,2.34-0.78c1.28-0.08,2.26,0.36,2.94,1.32c0.48,0.4,0.93,0.9,1.35,1.5c0.42,0.6,0.37,1.16-0.15,1.68
		c-0.92,0.52-1.64,1.24-2.16,2.16c-0.72,0.88-1.56,1.8-2.52,2.76c0.52,0.32,1.11,0.43,1.77,0.33c0.66-0.1,1.23,0.09,1.71,0.57
		c0.12,0.72,0.4,1.3,0.84,1.74c0.36,0.24,0.37,0.45,0.03,0.63c-0.34,0.18-0.53,0.43-0.57,0.75c-1,0.36-2.08,0.61-3.24,0.75
		c-1.16,0.14-2.3,0.21-3.42,0.21c-0.96-0.08-1.96-0.25-3-0.51c-1.04-0.26-1.6-0.95-1.68-2.07c-0.52-0.56-0.52-1.09,0-1.59
		c0.52-0.5,1-0.91,1.44-1.23c1-0.56,1.54-1.26,1.62-2.1c-1.56,0.72-3.12,1.5-4.68,2.34c-1.6,1.52-3.2,2.86-4.8,4.02
		c-0.6-0.16-1.07-0.02-1.41,0.42c-0.34,0.44-0.75,0.6-1.23,0.48c-0.96-0.72-1.66-1.7-2.1-2.94c0-0.44-0.19-0.84-0.57-1.2
		c-0.38-0.36-0.47-0.74-0.27-1.14c0.32-1.68,1.16-3.08,2.52-4.2c1.64-1.84,3.14-3.72,4.5-5.64c0.8-1.44,1.16-2.96,1.08-4.56
		c-0.64,0.48-1.24,0.68-1.8,0.6c-3.28,1.16-6.5,2.34-9.66,3.54c-1.32,0.52-2.36,0.12-3.12-1.2c-0.08-1.04-0.54-1.98-1.38-2.82
		c-0.12-1,0.25-1.56,1.11-1.68c0.86-0.12,1.63-0.32,2.31-0.6c0.6,0.16,1.16,0.04,1.68-0.36c0,0.68,0.12,1.42,0.36,2.22
		c3.84-0.84,7.52-1.92,11.04-3.24c0.16-0.92,0.22-1.86,0.18-2.82c-0.2-1.08-0.26-2.2-0.18-3.36c-0.28-0.76-0.82-1.14-1.62-1.14
		c-0.64,0.36-0.96,0.5-0.96,0.42c0.36-0.36,0.24-0.52-0.36-0.48c-0.64,0.16-1.34,0.3-2.1,0.42c-0.48,0.28-0.8,0.22-0.96-0.18
		c-0.04,0.04,0.14-0.16,0.54-0.6c-0.2-0.32-0.44-0.34-0.72-0.06c-0.28,0.28-0.56,0.36-0.84,0.24c-0.64,0.56-0.8,0.62-0.48,0.18
		c0.2-0.48,0.5-0.76,0.9-0.84c2.96-2.16,5.64-4.58,8.04-7.26c0.72-0.6,0.52-1.04-0.6-1.32c0.32-0.28,0.92-0.4,1.8-0.36
		c0.64-0.68,1.36-1.3,2.16-1.86H560.04z M549,18.34c0.24,0.16,0.4,0.11,0.48-0.15c0.08-0.26-0.02-0.27-0.3-0.03L549,18.34z
		 M554.34,17.57c-0.52,0.56-0.34,0.68,0.54,0.36c0.32,0.28,0.63,0.17,0.93-0.33c0.3-0.5,0.19-0.67-0.33-0.51
		C555.04,17.17,554.66,17.32,554.34,17.57z M561.48,23.32c0.48,0,0.64-0.24,0.48-0.72c-0.16-0.48-0.4-0.6-0.72-0.36
		C560.8,23.05,560.88,23.41,561.48,23.32z"/>
	<path class="st0" d="M586.32,45.04c0.32-0.6,0.78-1.12,1.38-1.56c0.6-0.44,1.32-0.66,2.16-0.66c0.56,0,1.09,0.24,1.59,0.72
		c0.5,0.48,0.75,0.96,0.75,1.44c0,0.2-0.05,0.45-0.15,0.75c-0.1,0.3-0.25,0.6-0.45,0.9c-0.2,0.3-0.45,0.54-0.75,0.72
		c-0.3,0.18-0.63,0.27-0.99,0.27c-1.04,0-1.74-0.06-2.1-0.18s-0.59-0.29-0.69-0.51c-0.1-0.22-0.17-0.51-0.21-0.87
		C586.86,45.79,586.68,45.45,586.32,45.04z M587.76,32.15c0-2.4,0.1-4.79,0.3-7.17c0.2-2.38,0.3-4.79,0.3-7.23
		c0-0.6-0.05-1.22-0.15-1.86c-0.1-0.64-0.15-1.28-0.15-1.92c0-0.8,0.32-1.34,0.96-1.62c0.64-0.28,1.4-0.42,2.28-0.42
		c0.6,0,1.11,0.16,1.53,0.48c0.42,0.32,0.79,0.64,1.11,0.96v0.6c0.04,0.32,0.06,0.52,0.06,0.6v0.96c0,0.4-0.1,0.72-0.3,0.96
		l-0.18,2.1c-0.04,1.04-0.09,2.13-0.15,3.27c-0.06,1.14-0.13,2.19-0.21,3.15c-0.04,1.04-0.08,1.74-0.12,2.1
		c-0.04,1.8-0.17,3.57-0.39,5.31c-0.22,1.74-0.57,3.47-1.05,5.19c-0.04,0.2-0.14,0.42-0.3,0.66c-0.08,0.32-0.21,0.62-0.39,0.9
		c-0.18,0.28-0.39,0.54-0.63,0.78c-0.16,0.24-0.34,0.36-0.54,0.36c-0.56,0-0.98-0.37-1.26-1.11c-0.28-0.74-0.47-1.58-0.57-2.52
		c-0.1-0.94-0.15-1.85-0.15-2.73V32.15z"/>
</g>
</svg>
