<?xml version="1.0" encoding="utf-8"?>
<!-- Generator: Adobe Illustrator 23.0.3, SVG Export Plug-In . SVG Version: 6.00 Build 0)  -->
<svg version="1.1" id="图层_1" xmlns="http://www.w3.org/2000/svg" xmlns:xlink="http://www.w3.org/1999/xlink" x="0px" y="0px"
	 viewBox="0 0 200 200" style="enable-background:new 0 0 200 200;" xml:space="preserve">
<style type="text/css">
	.st0{clip-path:url(#SVGID_2_);fill:#373737;}
	.st1{fill:#373737;}
</style>
<g>
	<g>
		<defs>
			<rect id="SVGID_1_" x="29.8" y="0.1" width="140.4" height="199.7"/>
		</defs>
		<clipPath id="SVGID_2_">
			<use xlink:href="#SVGID_1_"  style="overflow:visible;"/>
		</clipPath>
		<path class="st0" d="M99.9,12.9c31.6,0,57.3,25.6,57.4,57.2c0,0.4,0,0.9,0,1.3c0.6,9.1-1.3,19.7-5.6,31.6
			c-3.9,10.6-9.6,22.2-17.2,34.5c-12.1,19.7-26.2,36.9-35.1,47.2c-8.8-9.2-22.4-24.6-34.2-43.5c-7.4-11.8-13.1-23.4-16.9-34.4
			C44,94.3,42,82.2,42.5,71.1c0-0.5,0-0.9,0-1.4c-0.4-14.6,5.2-28.5,15.6-39.2C69.1,19.2,84.2,12.9,99.9,12.9 M99.9,0.3
			c-38.6,0-71,31.2-70,69.8v0.5C27.5,125.4,76.7,179.9,94,197.3c1.5,1.5,3.6,2.4,5.8,2.3c2.2-0.1,4.2-1,5.7-2.6
			c17.1-19.1,67.7-79.7,64.5-126.5c0-0.2,0-0.3,0-0.5C169.8,31.5,138.5,0.3,99.9,0.3L99.9,0.3z M99.9,0.3"/>
	</g>
	<path class="st1" d="M100,40c15,0,27.8,10.6,30.8,25.2c2.9,14.7-4.9,29.4-18.8,35.1c-13.8,5.7-29.8,0.9-38.1-11.6
		c-8.3-12.4-6.7-29,3.9-39.6C83.7,43.3,91.7,40,100,40 M100,27.4c-24.3,0-44,19.7-44,44c0,24.3,19.7,44,44,44c24.3,0,44-19.7,44-44
		C144,47.1,124.3,27.4,100,27.4L100,27.4z M100,27.4"/>
</g>
</svg>
