<?xml version="1.0" encoding="utf-8"?>
<!-- Generator: Adobe Illustrator 23.0.3, SVG Export Plug-In . SVG Version: 6.00 Build 0)  -->
<svg version="1.1" id="图层_1" xmlns="http://www.w3.org/2000/svg" xmlns:xlink="http://www.w3.org/1999/xlink" x="0px" y="0px"
	 viewBox="0 0 204.69 200" style="enable-background:new 0 0 204.69 200;" xml:space="preserve">
<style type="text/css">
	.st0{fill:#FFFFFF;}
</style>
<path class="st0" d="M151.64,33.95l0.42,0.04c15.55,2.61,51.72,10.55,51.72,27.86c0,0.33-0.01,0.6-0.04,1.01h0.04l-0.63,71.2
	c0,9.28-10.68,17.3-30.87,23.19c-2.07,0.6-4.16,1.15-6.25,1.66c-0.46,0.24-0.97,0.36-1.48,0.37c-13.08,2.96-26.37,4.86-39.75,5.66
	l-0.66,22.33c-0.29,6.78-6.02,12.04-12.8,11.76c-3.2-0.14-6.21-1.51-8.41-3.84c-3.4,3.6-8.62,4.81-13.26,3.08
	c-4.63-1.72-7.77-6.06-7.95-10.99l-0.67-22.33c-41.86-2.71-80.12-13.43-80.12-31.03l0.64-72.31c0.03-11.59,18.37-21.93,50.34-27.48
	c0.98-0.13,1.97,0.17,2.71,0.82c0.75,0.63,1.18,1.56,1.18,2.54l-0.08,45.9c2.2,0.36,4.61,0.68,6.69,0.98v-20.6
	c0-0.57-0.04-1.12-0.04-1.69c0.07-10.38,8.53-18.74,18.91-18.67c0,0,0,0,0,0h8.36c0.86-0.01,1.69,0.31,2.32,0.9l10.96,10.56
	l11.42-10.61c0.62-0.56,1.44-0.86,2.28-0.84h8.8c5.34,0.13,10.34,2.62,13.66,6.8c3.11,3.8,4.61,8.67,4.16,13.56v20.54
	c1.66-0.23,3.35-0.47,4.98-0.72l-0.05-46.34c0-0.98,0.43-1.9,1.18-2.54c0.75-0.63,1.74-0.9,2.71-0.74L151.64,33.95z M118.06,165.34
	c-3.9,0.18-7.75,0.29-11.91,0.34v21.21c0.02,3.12,2.58,5.64,5.7,5.61c3.01-0.02,5.48-2.4,5.61-5.41L118.06,165.34z M87.67,165.38
	l0.68,21.72c0.11,3,2.58,5.36,5.58,5.35c1.48,0,2.9-0.59,3.95-1.64c1.04-1.04,1.62-2.46,1.61-3.93v-21.18
	C95.55,165.66,91.61,165.55,87.67,165.38L87.67,165.38z M120.28,126.18L98.73,146.5l-0.01,0.01L85.8,158.68
	c5.51,0.27,11.03,0.41,16.55,0.41c18.25,0.13,36.47-1.5,54.4-4.87L120.28,126.18L120.28,126.18z M65.85,126.67L38.78,152.2
	c12.47,3.01,25.17,4.99,37.96,5.9l14.46-13.63L65.85,126.67L65.85,126.67z M8.11,73.68l-0.53,60.39c0,5.36,9.02,11.42,23.73,16.04
	l31.93-30.12c1.16-1.09,2.92-1.22,4.22-0.3l28.66,20.13l21.63-20.39c1.2-1.12,3.03-1.22,4.33-0.22l43.1,33.11
	c1.79-0.45,3.53-0.92,5.21-1.41c16.08-4.69,26.08-11.16,26.08-16.88l0.53-60.18c-10.4,8.54-31.68,14.42-56.06,17.4
	c-0.33,0.1-0.67,0.16-1.01,0.15l-0.22-0.01c-4.96,0.58-10.06,1.05-15.21,1.39c-0.57,0.2-1.18,0.24-1.77,0.12
	c-13.27,0.81-26.58,0.82-39.85,0.01c-0.52,0.1-1.06,0.06-1.57-0.1c-5.03-0.33-10.06-0.78-15.07-1.35c-0.55,0.08-1.11,0.01-1.63-0.2
	C39.98,88.28,18.48,82.34,8.11,73.68L8.11,73.68z M92.9,99.99c6.52,0,11.8,5.28,11.8,11.8c0,6.52-5.28,11.8-11.8,11.8
	c-6.52,0-11.8-5.28-11.8-11.8c-0.01-6.51,5.27-11.8,11.78-11.8C92.89,99.99,92.9,99.99,92.9,99.99z M92.9,106.1
	c-3.14,0-5.69,2.55-5.69,5.69c0,3.14,2.55,5.69,5.69,5.69c3.14,0,5.69-2.55,5.69-5.69l0,0C98.59,108.65,96.05,106.1,92.9,106.1z
	 M125.22,50.02l-0.74,0.01h-6.55l-12.77,11.86c-0.03,0.02-0.05,0-0.07,0.01c-0.13,0.11-0.26,0.21-0.4,0.3l-0.15,0.09l-0.14,0.07
	c-0.05,0.03-0.1,0.05-0.15,0.08l-0.14,0.06l-0.16,0.06l-0.14,0.04l-0.17,0.05l-0.14,0.03l-0.17,0.03l-0.15,0.02
	c-0.06,0-0.11,0.01-0.17,0.01h-0.32c-0.11-0.01-0.21-0.02-0.32-0.04c-0.11-0.01-0.21-0.03-0.31-0.06c-0.1-0.03-0.21-0.06-0.31-0.09
	l-0.15-0.05c-0.1-0.04-0.19-0.09-0.29-0.14l-0.16-0.09c-0.09-0.06-0.19-0.12-0.27-0.18c-0.04-0.03-0.08-0.05-0.12-0.08l-0.07-0.05
	l-0.07-0.06c-0.02-0.02-0.04-0.01-0.06-0.03L88.28,50.03h-7.01c-3.22-0.02-6.32,1.23-8.62,3.49c-2.29,2.25-3.59,5.32-3.6,8.53
	c0,0.41,0,0.82,0.04,1.22c0,0.11-0.01,0.23-0.02,0.34v21.55c3.33,0.34,6.67,0.64,10,0.88v-7.34c0-1.84,1.49-3.33,3.33-3.33
	c1.84,0,3.33,1.49,3.33,3.33v7.75c5.42,0.29,11.11,0.44,16.88,0.44c5.91,0,11.87-0.15,17.29-0.45v-7.73c0-1.84,1.49-3.33,3.33-3.33
	c1.84,0,3.33,1.49,3.33,3.33v7.31c3.33-0.25,6.67-0.54,10-0.89V63.61c0-0.11,0.01-0.22,0.03-0.32c0.34-3.2-0.62-6.4-2.67-8.87
	c-2.25-2.91-5.78-4.54-9.45-4.38L125.22,50.02z M154.85,41.21l0.05,41.25c5.38-0.99,10.71-2.24,15.97-3.75
	c16.19-4.7,26.24-11.16,26.24-16.88C197.11,55.36,184,46.63,154.85,41.21L154.85,41.21z M49.15,41.47l-1.52,0.3
	C20.47,47.22,8.22,55.62,8.22,61.83c0,5.72,10.06,12.18,26.24,16.88c4.82,1.38,9.7,2.55,14.62,3.49L49.15,41.47L49.15,41.47z
	 M104.71,0.92c10.26-0.16,18.7,8.02,18.87,18.27v5.96c-0.36,10.42-9.1,18.58-19.52,18.23c-9.92-0.34-17.89-8.3-18.23-18.23V19.2
	C86,8.94,94.45,0.76,104.71,0.92z M104.71,7.62h-0.05c-6.5-0.1-11.84,5.08-11.95,11.58v5.96c0.22,6.63,5.77,11.83,12.4,11.61
	c6.33-0.21,11.41-5.29,11.61-11.61V19.2C116.58,12.69,111.21,7.52,104.71,7.62z"/>
<path class="st0" d="M104.71,0c10.76-0.15,19.61,8.43,19.79,19.19v5.96c-0.02,5.12-2.12,10.02-5.83,13.55
	c-7.81,7.46-20.11,7.46-27.92,0c-3.71-3.53-5.81-8.43-5.83-13.55V19.2C85.09,8.44,93.95-0.15,104.71,0z M104.71,42.46
	c9.72,0.14,17.73-7.58,17.95-17.3V19.2c-0.35-9.91-8.67-17.67-18.58-17.32c-9.43,0.33-16.99,7.9-17.32,17.32v5.96
	C86.98,34.87,94.99,42.59,104.71,42.46z M104.66,6.7h0.05c3.4-0.02,6.66,1.29,9.11,3.65c2.42,2.31,3.8,5.5,3.82,8.85v5.97
	c-0.23,7.14-6.2,12.75-13.34,12.52c-6.82-0.22-12.3-5.7-12.52-12.52V19.2C91.91,12.2,97.66,6.61,104.66,6.7z M104.71,35.86
	c6.01,0.1,10.97-4.69,11.09-10.71V19.2c-0.15-5.99-5.1-10.74-11.09-10.66h-0.05c-5.98-0.08-10.91,4.68-11.03,10.66v5.96
	C93.74,31.17,98.7,35.96,104.71,35.86z M151.5,33.02c0.24,0,0.48,0.02,0.71,0.06c10.89,1.7,21.58,4.54,31.89,8.47
	c13.67,5.57,20.6,12.4,20.6,20.3v0.09l-0.63,72.14c0,4.92-2.77,9.5-8.23,13.6c-5.31,3.99-13.15,7.51-23.31,10.47
	c-2.05,0.59-4.12,1.15-6.19,1.66c-0.53,0.25-1.1,0.39-1.68,0.41c-12.82,2.91-25.85,4.78-38.97,5.6l-0.64,21.49
	c-0.1,3.4-1.54,6.63-4,8.98c-2.45,2.37-5.73,3.69-9.15,3.69h-0.06c-3.3-0.01-6.49-1.25-8.92-3.48c-3.67,3.37-8.91,4.39-13.58,2.65
	c-4.99-1.84-8.37-6.51-8.55-11.82l-0.64-21.49c-21.55-1.45-41.12-4.98-55.17-9.93c-6.5-2.06-12.59-5.23-18.02-9.37
	C2.34,142.7,0,138.46,0,133.93l0.64-72.32c0.1-3.33,1.38-6.51,3.6-8.98c2.85-3.2,6.26-5.85,10.07-7.82
	c8.81-4.85,21.76-8.85,37.44-11.58h0.03c1.24-0.17,2.5,0.21,3.44,1.04c0.96,0.8,1.51,1.99,1.5,3.24L56.64,82.6
	c1.27,0.2,2.59,0.39,3.87,0.57l0.97,0.14V63.77c0-0.27,0-0.53-0.02-0.82c-0.02-0.28-0.02-0.58-0.02-0.88
	c0-5.21,2.1-10.21,5.82-13.86c3.71-3.69,8.73-5.75,13.96-5.73h8.41c1.1-0.02,2.16,0.4,2.96,1.15l10.33,9.96l10.78-10.03
	c0.8-0.72,1.83-1.1,2.9-1.08h8.83c5.61,0.13,10.87,2.75,14.35,7.14c3.26,3.97,4.83,9.06,4.38,14.18v19.45
	c1.13-0.16,2.17-0.31,3.14-0.45l-0.05-45.55c0-1.25,0.55-2.43,1.5-3.24C149.53,33.38,150.5,33.02,151.5,33.02L151.5,33.02z
	 M151.57,34.87c-0.59-0.02-1.17,0.18-1.63,0.57c-0.54,0.46-0.85,1.12-0.85,1.83l0.05,47.13l-0.78,0.12c-1.48,0.22-3.11,0.46-5,0.72
	l-1.05,0.14V63.69c0.44-4.65-0.98-9.29-3.95-12.89v-0.01c-3.14-3.97-7.89-6.33-12.95-6.45h-8.83c-0.6-0.01-1.19,0.2-1.64,0.6
	L102.9,56.14L91.32,44.98c-0.44-0.42-1.03-0.65-1.64-0.65h-8.46c-9.84-0.02-17.85,7.91-17.93,17.75c0,0.27,0,0.53,0.02,0.81
	c0.02,0.28,0.02,0.58,0.02,0.88v21.66l-1.05-0.15l-2.02-0.29c-1.55-0.22-3.16-0.45-4.69-0.7l-0.78-0.13l0.08-46.68
	c0.01-0.71-0.3-1.38-0.85-1.83l-0.02-0.02c-0.54-0.47-1.25-0.69-1.96-0.6c-15.48,2.69-28.22,6.63-36.85,11.38
	C6.9,51,2.5,56.25,2.49,61.62l-0.64,72.32c0,9.79,12.91,16.4,23.75,20.22c14.08,4.96,33.79,8.48,55.51,9.88l0.84,0.05l0.69,23.16
	c0.16,4.56,3.06,8.58,7.35,10.15c4.29,1.6,9.12,0.48,12.27-2.85l0.67-0.71l0.67,0.71c2.15,2.27,5.13,3.55,8.25,3.56h0.06
	c6.1,0.05,11.12-4.79,11.3-10.88l0.69-23.16l0.84-0.06c13.33-0.79,26.58-2.68,39.6-5.63l0.1-0.02h0.1c0.37,0,0.74-0.09,1.08-0.26
	l0.09-0.05l0.1-0.03c2.08-0.51,4.16-1.06,6.21-1.66c9.94-2.9,17.59-6.32,22.71-10.17c4.98-3.73,7.49-7.82,7.49-12.13l0.62-70.28
	h-0.09l0.06-0.98c0.03-0.43,0.04-0.66,0.04-0.96c0-3.75-1.88-7.32-5.58-10.6c-4.15-3.41-8.84-6.11-13.87-7.99
	c-10.18-3.85-20.72-6.65-31.47-8.36L151.57,34.87z M154.84,40.29h0.92v0.16c13.21,2.51,24.12,5.91,31.58,9.87
	c2.94,1.46,5.62,3.38,7.94,5.7c1.62,1.52,2.61,3.6,2.75,5.82c-0.08,1.84-0.8,3.6-2.03,4.97c-1.56,1.82-3.4,3.38-5.45,4.63
	c-6.06,3.61-12.6,6.36-19.42,8.17c-5.29,1.51-10.65,2.77-16.06,3.77l-1.09,0.2l-0.05-42.35h0.84L154.84,40.29z M155.82,81.35
	c4.98-0.95,9.92-2.13,14.8-3.52c6.65-1.76,13.03-4.44,18.95-7.94c4.34-2.79,6.63-5.57,6.63-8.05c0-3.02-3.54-6.62-9.71-9.89
	c-7.23-3.83-17.83-7.15-30.71-9.62L155.82,81.35z M48.23,40.54h0.92v0.92h0.92l-0.06,41.85l-1.1-0.21
	c-4.95-0.95-9.86-2.12-14.71-3.5c-6.82-1.81-13.36-4.56-19.43-8.16c-2.05-1.25-3.88-2.81-5.45-4.63c-1.23-1.37-1.94-3.13-2.03-4.97
	c0.13-2.12,1.05-4.12,2.58-5.61c2.15-2.23,4.66-4.09,7.41-5.51c7.08-3.9,17.5-7.31,30.15-9.85l0.78-0.15L48.23,40.54z M48.17,81.08
	l0.06-38.49l-0.41,0.08c-12.47,2.51-22.71,5.84-29.62,9.65c-5.74,3.17-9.04,6.64-9.04,9.51c0,2.47,2.29,5.26,6.63,8.05
	c5.92,3.51,12.3,6.18,18.95,7.94C39.16,79.1,43.64,80.18,48.17,81.08z M125.2,49.1c3.71,0.06,7.19,1.8,9.45,4.74
	c2.19,2.67,3.23,6.11,2.87,9.55v0.03c-0.01,0.07-0.02,0.14-0.02,0.21v22.31l-0.83,0.09c-3.29,0.35-6.66,0.65-10.03,0.9L125.66,87
	v-8.3c0-1.33-1.08-2.41-2.41-2.41c-1.33,0-2.41,1.08-2.41,2.41v8.6l-0.87,0.05c-5.42,0.3-11.42,0.45-17.33,0.45
	c-5.76,0-11.45-0.15-16.93-0.44l-0.87-0.05v-8.62c0-1.33-1.08-2.41-2.41-2.41c-1.33,0-2.41,1.08-2.41,2.41v8.34l-0.99-0.07
	c-3.35-0.24-6.69-0.54-10.02-0.88l-0.83-0.08V63.61c0-0.08,0.01-0.17,0.02-0.25v-0.03c-0.03-0.43-0.05-0.86-0.04-1.29
	c0.04-7.17,5.88-12.96,13.05-12.94h7.46l12.45,11.99c0.03,0.02,0.06,0.04,0.09,0.07l0.15,0.12l0.06,0.04
	c0.07,0.05,0.14,0.09,0.21,0.14l0.13,0.07c0.06,0.03,0.13,0.06,0.2,0.09l0.11,0.04c0.07,0.03,0.15,0.05,0.22,0.07h0.02
	c0.05,0.02,0.11,0.03,0.16,0.03h0.02c0.08,0.01,0.16,0.02,0.24,0.03h0.35l0.25-0.03l0.08-0.02l0.25-0.07l0.09-0.04l0.13-0.05
	l0.08-0.04l0.13-0.07l0.09-0.05c0.1-0.07,0.2-0.15,0.3-0.23l0.01-0.01c0.06-0.05,0.12-0.09,0.18-0.12l12.88-11.96h6.9
	c0.22,0,0.44-0.01,0.66-0.01L125.2,49.1z M135.69,63.18c0.3-2.95-0.58-5.89-2.47-8.18l-0.02-0.02c-1.93-2.51-4.91-4-8.08-4.03
	l-0.65,0.01h-6.19l-12.53,11.63c-0.07,0.06-0.15,0.11-0.23,0.15c-0.11,0.08-0.21,0.16-0.33,0.24l-0.02,0.01L105,63.09l-0.03,0.01
	l-0.14,0.07c-0.07,0.04-0.14,0.07-0.21,0.1l-0.16,0.07c-0.07,0.03-0.14,0.05-0.21,0.08l-0.05,0.02l-0.37,0.1l-0.18,0.04l-0.43,0.05
	c-0.05,0-0.11,0.01-0.2,0.01h-0.39c-0.12-0.01-0.24-0.02-0.36-0.04c-0.15-0.02-0.29-0.05-0.44-0.09c-0.12-0.03-0.25-0.07-0.37-0.12
	l-0.2-0.08c-0.12-0.05-0.23-0.11-0.35-0.16l-0.03-0.02l-0.18-0.11c-0.11-0.07-0.22-0.14-0.32-0.21l-0.05-0.02
	c-0.05-0.03-0.1-0.07-0.14-0.1l-0.07-0.05c-0.08-0.04-0.14-0.09-0.21-0.15l-12-11.55h-6.72c-6.16-0.02-11.17,4.95-11.21,11.1v0.01
	c0,0.38,0,0.76,0.03,1.11c0.01,0.13,0.01,0.27-0.01,0.4v20.76c2.71,0.27,5.44,0.51,8.15,0.72v-6.35c0-2.35,1.91-4.25,4.26-4.25
	c2.35,0,4.25,1.9,4.25,4.25v6.87c5.18,0.26,10.54,0.39,15.96,0.39c5.57,0,11.21-0.14,16.36-0.41v-6.86c0-2.35,1.91-4.25,4.26-4.25
	c2.35,0,4.25,1.9,4.25,4.25v6.31c2.73-0.21,5.47-0.46,8.15-0.74v-20.7C135.66,63.45,135.67,63.31,135.69,63.18z M197.95,71.88
	l-0.55,62.15c0,3.14-2.57,6.45-7.43,9.59c-6.03,3.6-12.53,6.35-19.32,8.16c-1.73,0.5-3.49,0.98-5.24,1.42l-0.43,0.11l-43.45-33.38
	c-0.94-0.72-2.27-0.65-3.14,0.16L96.22,141l-29.28-20.56c-0.94-0.66-2.22-0.57-3.06,0.22l-32.32,30.48l-0.52-0.16
	c-6.21-1.79-12.14-4.44-17.62-7.86c-4.48-3.02-6.76-6.07-6.76-9.05l0.53-60.4l1.13-0.24l0.38-0.46c4.89,4.09,12.48,7.7,22.57,10.75
	c10.94,3.16,22.14,5.38,33.46,6.65l0.12,0.01l0.11,0.04c0.37,0.15,0.77,0.19,1.17,0.14l0.12-0.02l0.12,0.01
	c4.98,0.57,10.03,1.02,15.02,1.35h0.11l0.11,0.03c0.36,0.11,0.75,0.14,1.12,0.07l0.11-0.02h0.11c13.23,0.8,26.51,0.79,39.74-0.01
	h0.12l0.12,0.02c0.43,0.09,0.88,0.06,1.29-0.08l0.12-0.04h0.12c5.12-0.34,10.23-0.81,15.16-1.39h0.08l0.27,0.01
	c0.24,0,0.48-0.04,0.72-0.11l0.08-0.03l0.08-0.01c26.26-3.21,46.01-9.32,55.59-17.19L197.95,71.88z M64.4,92.17
	c-25.57-3.11-45.09-8.98-55.36-16.61l-0.53,58.51c0,2.3,2.05,4.9,5.94,7.53c5.18,3.23,10.77,5.74,16.63,7.46l31.53-29.74
	c1.47-1.39,3.72-1.55,5.38-0.39l28.05,19.7l21.09-19.87c1.53-1.44,3.87-1.56,5.53-0.28l42.74,32.84c1.59-0.4,3.17-0.83,4.74-1.29
	c6.61-1.76,12.95-4.43,18.83-7.94c4.31-2.79,6.59-5.57,6.59-8.05l0.51-58.29c-10.31,7.52-29.68,13.32-54.94,16.41
	c-0.39,0.11-0.8,0.17-1.2,0.17h-0.19c-4.91,0.58-9.97,1.04-15.06,1.38c-0.65,0.2-1.33,0.25-2,0.13c-13.24,0.8-26.51,0.81-39.74,0.01
	c-0.59,0.09-1.2,0.05-1.78-0.11c-4.98-0.32-9.95-0.77-14.9-1.34C65.63,92.47,64.99,92.39,64.4,92.17L64.4,92.17z M92.91,99.07h0.92
	v0.03c7.01,0.51,12.28,6.6,11.77,13.61c-0.51,7.01-6.6,12.28-13.61,11.77c-7.01-0.51-12.28-6.6-11.77-13.61
	C80.71,104.22,86.24,99.07,92.91,99.07z M92.91,122.65c6,0.25,11.07-4.42,11.32-10.42c0.25-6-4.42-11.07-10.42-11.32
	c-0.3-0.01-0.6-0.01-0.9,0h-0.15c-6,0.28-10.64,5.38-10.36,11.38C82.68,117.95,87.24,122.46,92.91,122.65L92.91,122.65z
	 M92.91,105.17h0.92v0.07c3.59,0.52,6.07,3.85,5.55,7.44c-0.52,3.59-3.85,6.07-7.44,5.55c-3.59-0.52-6.07-3.85-5.55-7.44
	C86.86,107.55,89.64,105.16,92.91,105.17z M92.91,116.55c2.63,0,4.77-2.13,4.77-4.76c0-2.63-2.13-4.77-4.76-4.77c0,0-0.01,0-0.01,0
	h-0.18c-2.63,0.1-4.68,2.32-4.58,4.95C88.25,114.52,90.35,116.55,92.91,116.55z M120.16,124.92l0.69,0.53l38.09,29.28l-1.99,0.4
	c-18,3.38-36.28,5.01-54.59,4.88h-0.03c-5.5,0-11.06-0.14-16.57-0.41l-2.16-0.11l36.02-33.95L120.16,124.92z M154.58,153.69
	l-34.24-26.3l-32.32,30.47c4.76,0.2,9.56,0.3,14.3,0.3h0.02C119.86,158.27,137.34,156.78,154.58,153.69L154.58,153.69z
	 M65.77,125.47l26.89,18.89l-15.57,14.69l-0.41-0.03c-12.85-0.91-25.6-2.89-38.12-5.92l-1.63-0.41L65.77,125.47z M89.74,144.56
	l-23.8-16.7l-25.29,23.85c11.76,2.74,23.72,4.55,35.77,5.43L89.74,144.56z M119.01,164.37l-0.63,22.74
	c-0.17,3.63-3.25,6.43-6.87,6.27c-3.48-0.16-6.24-3.01-6.27-6.5v-22.11l0.91-0.01c4.13-0.05,8.01-0.16,11.87-0.34L119.01,164.37z
	 M116.55,187.05l0.57-20.74c-3.27,0.14-6.57,0.23-10.04,0.28v20.29c0.03,2.56,2.09,4.63,4.65,4.68h0.11
	C114.36,191.56,116.44,189.57,116.55,187.05L116.55,187.05z M87.71,164.46h0.01c3.91,0.17,7.87,0.28,11.78,0.31h0.92v22.1
	c0.01,3.57-2.87,6.48-6.45,6.49c-0.01,0-0.02,0-0.04,0h-0.02c-3.49,0.01-6.36-2.75-6.48-6.24l-0.68-21.72l0.92-0.03L87.71,164.46z
	 M98.57,166.61c-3.3-0.04-6.64-0.13-9.95-0.26l0.65,20.73c0.08,2.5,2.14,4.47,4.64,4.46h0.02c2.55,0.01,4.63-2.05,4.64-4.61
	c0-0.01,0-0.02,0-0.03L98.57,166.61z"/>
</svg>
