<?xml version="1.0" encoding="utf-8"?>
<!-- Generator: Adobe Illustrator 23.0.3, SVG Export Plug-In . SVG Version: 6.00 Build 0)  -->
<svg version="1.1" id="图层_1" xmlns="http://www.w3.org/2000/svg" xmlns:xlink="http://www.w3.org/1999/xlink" x="0px" y="0px"
	 viewBox="0 0 107.78 118.82" style="enable-background:new 0 0 107.78 118.82;" xml:space="preserve">
<style type="text/css">
	.st0{fill:#FFFFFF;}
</style>
<path class="st0" d="M100.68,76.84V41.9c4.06-0.91,7.1-4.54,7.1-8.88c0-5.03-4.08-9.1-9.1-9.1c-2.65,0-5.03,1.14-6.69,2.95
	L63.3,10.36c0.04-0.35,0.07-0.7,0.07-1.06c0-5.03-4.08-9.1-9.1-9.1c-5.03,0-9.1,4.08-9.1,9.1c0,0.41,0.04,0.81,0.09,1.21
	L16.76,27.45c-1.67-2.14-4.26-3.53-7.18-3.53c-5.03,0-9.1,4.08-9.1,9.1c0,4.34,3.04,7.96,7.1,8.88v34.94
	c-4.06,0.91-7.1,4.54-7.1,8.88c0,5.03,4.08,9.1,9.1,9.1c2.62,0,4.97-1.11,6.63-2.88l28.99,17.07c-0.02,0.23-0.04,0.47-0.04,0.71
	c0,5.03,4.08,9.1,9.1,9.1c5.03,0,9.1-4.08,9.1-9.1c0-0.03,0-0.05,0-0.08l28.78-17.59c1.65,1.71,3.97,2.77,6.53,2.77
	c5.03,0,9.1-4.08,9.1-9.1C107.78,81.38,104.74,77.75,100.68,76.84z M56.26,83.71V68.38c1.85-0.42,3.48-1.39,4.72-2.75L90.02,82.9
	c-0.09,0.27-0.16,0.54-0.22,0.82H56.26z M18.45,83.71c-0.09-0.38-0.2-0.76-0.33-1.12l29.12-17.3c1.26,1.54,3.02,2.64,5.03,3.09
	v15.33H18.45z M16.33,39.11l13.79,8.19L12.46,77.09c-0.29-0.1-0.58-0.18-0.88-0.25V41.9C13.45,41.48,15.1,40.48,16.33,39.11z
	 M96.68,41.9v34.94c-0.23,0.05-0.46,0.11-0.68,0.18l-17.4-30.36l13.1-7.79C92.96,40.37,94.7,41.46,96.68,41.9z M92.53,79.01
	c-0.16,0.15-0.31,0.29-0.46,0.45l-29.1-17.29c0.26-0.84,0.4-1.73,0.4-2.66c0-1.21-0.24-2.36-0.67-3.41l12.45-7.4L92.53,79.01z
	 M60.41,52.81c-1.15-1.06-2.57-1.82-4.14-2.17V18.18c0.41-0.09,0.81-0.21,1.19-0.36l15.71,27.41L60.41,52.81z M52.26,18.18v32.45
	c-1.74,0.39-3.29,1.27-4.5,2.5L35.6,45.9l16.47-27.78C52.14,18.14,52.2,18.16,52.26,18.18z M45.67,56.54
	c-0.32,0.93-0.51,1.93-0.51,2.97c0,0.76,0.1,1.49,0.28,2.19L15.95,79.22c-0.02-0.02-0.05-0.04-0.07-0.07l17.68-29.81L45.67,56.54z
	 M89.98,30.33c-0.26,0.85-0.41,1.76-0.41,2.7c0,0.79,0.11,1.54,0.3,2.27l-13.27,7.88l-15.8-27.56c0.42-0.44,0.8-0.91,1.12-1.43
	L89.98,30.33z M46.67,14.32c0.5,0.76,1.11,1.44,1.81,2.02L32.16,43.86L18.3,35.62c0.24-0.82,0.38-1.69,0.38-2.6
	c0-0.67-0.08-1.31-0.21-1.94L46.67,14.32z M18.24,88.5c0.08-0.26,0.15-0.52,0.21-0.78h33.81v13.12c-2.48,0.56-4.57,2.13-5.83,4.25
	L18.24,88.5z M62.36,105.56c-1.22-2.37-3.43-4.13-6.09-4.72V87.71H89.8c0.07,0.31,0.16,0.62,0.26,0.92L62.36,105.56z"/>
</svg>
