<?xml version="1.0" encoding="utf-8"?>
<!-- Generator: Adobe Illustrator 23.0.3, SVG Export Plug-In . SVG Version: 6.00 Build 0)  -->
<svg version="1.1" id="图层_1" xmlns="http://www.w3.org/2000/svg" xmlns:xlink="http://www.w3.org/1999/xlink" x="0px" y="0px"
	 viewBox="0 0 109.32 107.84" style="enable-background:new 0 0 109.32 107.84;" xml:space="preserve">
<style type="text/css">
	.st0{fill:#373737;}
</style>
<g>
	<path class="st0" d="M65,13.44l1.36,1.42l1.71-0.97c0.37-0.21,9.16-5.09,17.68,0.77c0.06,0.04,6.1,4,5.07,11.85l-0.25,1.91
		l1.78,0.73c0.12,0.05,11.96,5.03,11.07,16.61c-0.03,0.71-1.08,17.39-20.16,19.77l0.62,4.96c23.34-2.92,24.52-24.3,24.53-24.43
		c0.84-10.88-7.03-17.88-12.48-20.75c0.33-9.74-7.15-14.64-7.42-14.81C79.85,4.54,71.03,7.14,67.34,8.7
		C56.84-1.31,44.81-0.02,43.58,0.14c-21.21,1.89-25.85,18.7-26.81,24.32C2.72,28.84,1.29,41.13,1.24,41.62
		C0.37,48.6,1.87,54.6,5.71,59.45c7.44,9.41,20.96,10.98,21.53,11.04l0.54-4.97c-0.12-0.01-11.99-1.38-18.15-9.17
		c-2.98-3.76-4.13-8.51-3.43-14.14c0.05-0.42,1.33-10.34,13.43-13.36l1.77-0.45l0.11-1.83c0.05-0.8,1.47-19.6,22.55-21.45l0.14-0.02
		C44.68,5.03,55.74,3.62,65,13.44z"/>
	<path class="st0" d="M37.89,30.33c-3.09,0-5.6,2.51-5.6,5.6s2.51,5.6,5.6,5.6s5.6-2.51,5.6-5.6S40.98,30.33,37.89,30.33z
		 M37.89,36.54c-0.33,0-0.6-0.27-0.6-0.6s0.27-0.6,0.6-0.6s0.6,0.27,0.6,0.6S38.23,36.54,37.89,36.54z"/>
	<path class="st0" d="M49.29,35.93c0,3.09,2.51,5.6,5.6,5.6s5.6-2.51,5.6-5.6s-2.51-5.6-5.6-5.6S49.29,32.84,49.29,35.93z
		 M55.5,35.93c0,0.33-0.27,0.6-0.6,0.6s-0.6-0.27-0.6-0.6s0.27-0.6,0.6-0.6S55.5,35.6,55.5,35.93z"/>
	<path class="st0" d="M77.5,35.93c0-3.09-2.51-5.6-5.6-5.6s-5.6,2.51-5.6,5.6s2.51,5.6,5.6,5.6S77.5,39.02,77.5,35.93z M71.29,35.93
		c0-0.33,0.27-0.6,0.6-0.6s0.6,0.27,0.6,0.6s-0.27,0.6-0.6,0.6S71.29,36.27,71.29,35.93z"/>
	<path class="st0" d="M35.39,80.61H20.97c-1.31-4.44-5.41-7.69-10.27-7.69C4.8,72.92,0,77.72,0,83.62s4.8,10.71,10.71,10.71
		c5.23,0,9.58-3.77,10.52-8.72h19.17V44.83h-5V80.61z M10.71,89.33C7.56,89.33,5,86.77,5,83.62s2.56-5.71,5.71-5.71
		s5.71,2.56,5.71,5.71S13.85,89.33,10.71,89.33z"/>
	<path class="st0" d="M57.54,86.75L57.4,44.82l-5,0.02l0.14,41.88c-4.73,1.11-8.27,5.35-8.27,10.42c0,5.9,4.8,10.71,10.71,10.71
		s10.71-4.8,10.71-10.71C65.68,92.11,62.21,87.9,57.54,86.75z M54.98,102.84c-3.15,0-5.71-2.56-5.71-5.71s2.56-5.71,5.71-5.71
		s5.71,2.56,5.71,5.71S58.12,102.84,54.98,102.84z"/>
	<path class="st0" d="M98.62,72.4c-5.04,0-9.27,3.51-10.4,8.21H74.39V44.83h-5v40.78h18.82c1.13,4.7,5.36,8.21,10.4,8.21
		c5.9,0,10.71-4.8,10.71-10.71C109.32,77.2,104.52,72.4,98.62,72.4z M98.62,88.81c-3.15,0-5.71-2.56-5.71-5.71s2.56-5.71,5.71-5.71
		c3.15,0,5.71,2.56,5.71,5.71S101.76,88.81,98.62,88.81z"/>
</g>
</svg>
