<?xml version="1.0" encoding="utf-8"?>
<!-- Generator: Adobe Illustrator 23.0.3, SVG Export Plug-In . SVG Version: 6.00 Build 0)  -->
<svg version="1.1" id="图层_1" xmlns="http://www.w3.org/2000/svg" xmlns:xlink="http://www.w3.org/1999/xlink" x="0px" y="0px"
	 viewBox="0 0 169.8 169.83" style="enable-background:new 0 0 169.8 169.83;" xml:space="preserve">
<style type="text/css">
	.st0{fill:#7C7C7D;}
	.st1{fill:#C7C6C6;stroke:#666767;stroke-miterlimit:10;}
</style>
<path class="st0" d="M84.89,169.82L-0.03,84.91L84.89,0l84.91,84.91l-0.35,0.35L84.89,169.82z M1.39,84.91l83.5,83.5l83.5-83.5
	l-83.5-83.5L1.39,84.91z"/>
<path class="st0" d="M84.89,169.82L-0.03,84.91L84.89,0l84.91,84.91l-0.35,0.35L84.89,169.82z M1.39,84.91l83.5,83.5l83.5-83.5
	l-83.5-83.5L1.39,84.91z"/>
<path class="st1" d="M76.5,75.5l-2.14-2.28h-3.1l-1.93-1.59l-1.86-0.62l-0.55-2.14c0,0-1.79-4.34,0.28-6.97l1.45-1.72l0.69-0.88
	l0.14-2.5l1.52-0.69l0.36-0.55l1.98-0.48l-0.07-0.9h1.17l0.83-1.66l4.62-0.34l0.48-1.17c0,0,2.34-2.48,4.48,0.34l1.45,0.41
	c0,0,1.93-1.79,3.66,1.24c0,0,4-0.97,5.59,1.72c0,0,2.9-0.41,3.66,3.24c0,0,5.03,1.03,4.97,9.59c0,0,0.28,11.72-4.76,10.34
	c0,0-3.38,9.31-9.59-3.24c0,0-4.28-1.59-5.86,0.69c0,0-1.45,2.48-4.21-1.59C79.74,73.78,79.33,75.99,76.5,75.5z"/>
<path class="st1" d="M112.16,76.33c3.86-14.55-3.45-22.69-3.45-22.69C96.98,40.19,75.12,44.4,75.12,44.4
	c-15.17,3.59-18.07,14.21-18.07,14.21l-2.07,12.76c-1.24,6.41-5.17,9.24-5.17,9.24c-3.23,3.91,1.52,4.21,1.52,4.21h3.45v4.9
	l0.9,0.62l-0.14,3.17l1.24,0.83v4.34c0.21,3.86,3.79,4.34,3.79,4.34l8.34-0.21c3.79,0.83,4.62,5.59,4.62,5.59l0.28,9.66h30.35
	c-4.07-13.31-1.38-24.07-1.38-24.07C109.67,81.64,112.16,76.33,112.16,76.33z M100.85,90.54c-3.59,8.41-0.9,24.41-0.9,24.41H76.5
	l0.28-6.28c-0.14-6.28-6.48-8.76-6.48-8.76h-5.93c-5.31,0.21-4.62-1.66-4.62-1.66l0.28-4.21l-1.17-0.9l0.07-4.34l-1.31-0.9
	l0.97-4.69c0.07-1.03-1.52-1.17-1.52-1.17c-3.03-0.48-2.34-1.66-2.34-1.66l2.34-4.55c1.93-3.38,3.38-14.9,3.38-14.9
	c4.34-15.1,22.83-14.14,22.83-14.14c13.79-0.14,22.9,8.76,22.9,8.76c6.34,7.31,3.1,19.72,3.1,19.72L100.85,90.54z"/>
</svg>
