<?xml version="1.0" encoding="utf-8"?>
<!-- Generator: Adobe Illustrator 23.0.3, SVG Export Plug-In . SVG Version: 6.00 Build 0)  -->
<svg version="1.1" id="图层_1" xmlns="http://www.w3.org/2000/svg" xmlns:xlink="http://www.w3.org/1999/xlink" x="0px" y="0px"
	 viewBox="0 0 169.8 169.83" style="enable-background:new 0 0 169.8 169.83;" xml:space="preserve">
<style type="text/css">
	.st0{fill:#7C7C7D;}
	.st1{fill:#C7C6C6;stroke:#666767;stroke-miterlimit:10;}
	.st2{fill:#FFFFFF;stroke:#666767;stroke-miterlimit:10;}
</style>
<path class="st0" d="M84.89,169.82L-0.03,84.91L84.89,0l84.91,84.91l-0.35,0.35L84.89,169.82z M1.39,84.91l83.5,83.5l83.5-83.5
	l-83.5-83.5L1.39,84.91z"/>
<path class="st0" d="M84.89,169.82L-0.03,84.91L84.89,0l84.91,84.91l-0.35,0.35L84.89,169.82z M1.39,84.91l83.5,83.5l83.5-83.5
	l-83.5-83.5L1.39,84.91z"/>
<path class="st1" d="M110.56,86.45c-0.79,0-1.54,0.2-2.21,0.53l-5.5-2.91l11.41-6.54l-11.01-5.83l3.36-1.93
	c0.93,1.16,2.34,1.93,3.95,1.93c2.8,0,5.07-2.27,5.07-5.07s-2.27-5.07-5.07-5.07c-0.86,0-1.66,0.24-2.37,0.62L88.67,51.83
	c-0.38-2.42-2.46-4.28-4.99-4.28c-2.77,0-5.02,2.23-5.06,4.99L59.61,63.13c-0.92-0.97-2.22-1.58-3.66-1.58
	c-2.8,0-5.07,2.27-5.07,5.07s2.27,5.07,5.07,5.07c1.38,0,2.62-0.55,3.54-1.45l4.62,2.52l-11,6.13l11.4,6.23l-5,2.79
	c-0.92-0.9-2.17-1.46-3.56-1.46c-2.8,0-5.07,2.27-5.07,5.07s2.27,5.07,5.07,5.07c1.46,0,2.77-0.63,3.69-1.61l19.16,10.25
	c-0.11,0.42-0.19,0.84-0.19,1.29c0,2.8,2.27,5.07,5.07,5.07s5.07-2.27,5.07-5.07c0-0.48-0.09-0.93-0.21-1.36l18.03-10.55
	c0.93,1.2,2.36,1.98,4,1.98c2.8,0,5.07-2.27,5.07-5.07S113.36,86.45,110.56,86.45z M108.4,77.65l-8.48,4.86l-8.08-4.28l8.48-4.86
	L108.4,77.65z M83.94,83.2l4.98-3.29L97,84.19l-13.18,8.13L70.4,84.99l7.96-4.43L83.94,83.2z M70,72.63l13.82-7.7l13.58,6.89
	l-8.48,4.86l-4.98-2.39l-5.4,3.01L70,72.63z M60.9,67.66c0.07-0.34,0.11-0.68,0.11-1.04c0-0.37-0.04-0.73-0.12-1.07l18.4-10.44
	c0.87,1.53,2.5,2.58,4.39,2.58c1.95,0,3.63-1.12,4.48-2.74l17.93,9.35c-0.36,0.7-0.59,1.48-0.59,2.32c0,0.18,0.03,0.35,0.05,0.53
	l-5.22,2.99L83.82,61.4l-16.68,9.67L60.9,67.66z M59,78.76l7.96-4.43L75.5,79l-7.96,4.43L59,78.76z M87.07,102.78
	c-0.9-0.82-2.08-1.33-3.39-1.33c-1.26,0-2.4,0.48-3.28,1.23L60.96,92.06c0.02-0.18,0.05-0.36,0.05-0.54c0-0.32-0.04-0.64-0.1-0.95
	l6.44-3.89l16.44,8.98l16.13-9.93l6.24,3.3c-0.41,0.73-0.67,1.57-0.67,2.48c0,0.14,0.03,0.27,0.04,0.4L87.07,102.78z"/>
<polygon class="st2" points="84.24,73.74 75.32,78.88 84.25,84.26 93.6,79.16 "/>
</svg>
