<?xml version="1.0" encoding="utf-8"?>
<!-- Generator: Adobe Illustrator 23.0.3, SVG Export Plug-In . SVG Version: 6.00 Build 0)  -->
<svg version="1.1" id="图层_1" xmlns="http://www.w3.org/2000/svg" xmlns:xlink="http://www.w3.org/1999/xlink" x="0px" y="0px"
	 viewBox="0 0 169.8 169.83" style="enable-background:new 0 0 169.8 169.83;" xml:space="preserve">
<style type="text/css">
	.st0{fill:#7C7C7D;}
	.st1{fill:#C7C6C6;stroke:#666767;stroke-miterlimit:10;}
</style>
<path class="st0" d="M84.89,169.82L-0.03,84.91L84.89,0l84.91,84.91l-0.35,0.35L84.89,169.82z M1.39,84.91l83.5,83.5l83.5-83.5
	l-83.5-83.5L1.39,84.91z"/>
<path class="st0" d="M84.89,169.82L-0.03,84.91L84.89,0l84.91,84.91l-0.35,0.35L84.89,169.82z M1.39,84.91l83.5,83.5l83.5-83.5
	l-83.5-83.5L1.39,84.91z"/>
<path class="st1" d="M106.31,106.65v-4.28H60.93v4.83c0,0,0.55,2.62,4.07,2.69h38.21C103.21,109.89,106.31,109.61,106.31,106.65z"/>
<path class="st1" d="M83.9,52.37L83.9,52.37c-0.87,0-1.59-0.71-1.59-1.59v-5.31c0-0.87,0.71-1.59,1.59-1.59h0
	c0.87,0,1.59,0.71,1.59,1.59v5.31C85.49,51.66,84.77,52.37,83.9,52.37z"/>
<path class="st1" d="M99.78,57.65L99.78,57.65c-0.71-0.51-0.88-1.5-0.37-2.21l3.08-4.32c0.51-0.71,1.5-0.88,2.21-0.37v0
	c0.71,0.51,0.88,1.5,0.37,2.21l-3.08,4.32C101.49,57.99,100.49,58.16,99.78,57.65z"/>
<path class="st1" d="M108.94,71.26L108.94,71.26c-0.29-0.82,0.15-1.73,0.97-2.02l5.01-1.77c0.82-0.29,1.73,0.15,2.02,0.97v0
	c0.29,0.82-0.15,1.73-0.97,2.02l-5.01,1.77C110.14,72.52,109.23,72.09,108.94,71.26z"/>
<path class="st1" d="M68.02,57.65L68.02,57.65c0.71-0.51,0.88-1.5,0.37-2.21l-3.08-4.32c-0.51-0.71-1.5-0.88-2.21-0.37v0
	c-0.71,0.51-0.88,1.5-0.37,2.21l3.08,4.32C66.31,57.99,67.31,58.16,68.02,57.65z"/>
<path class="st1" d="M58.86,71.26L58.86,71.26c0.29-0.82-0.15-1.73-0.97-2.02l-5.01-1.77c-0.82-0.29-1.73,0.15-2.02,0.97l0,0
	c-0.29,0.82,0.15,1.73,0.97,2.02l5.01,1.77C57.66,72.52,58.57,72.09,58.86,71.26z"/>
<path class="st1" d="M84.11,60.3c-16.97,0.28-19.03,15.17-19.03,15.17v22.21h37.17V75.47C99.21,60.3,84.11,60.3,84.11,60.3z
	 M93.66,83.82H82.35c-1.19,0-2.17-0.98-2.17-2.17V70.34c0-1.19,0.98-2.17,2.17-2.17s2.17,0.98,2.17,2.17v9.14h9.14
	c1.19,0,2.17,0.98,2.17,2.17S94.85,83.82,93.66,83.82z"/>
</svg>
