<?xml version="1.0" encoding="utf-8"?>
<!-- Generator: Adobe Illustrator 23.0.3, SVG Export Plug-In . SVG Version: 6.00 Build 0)  -->
<svg version="1.1" id="图层_1" xmlns="http://www.w3.org/2000/svg" xmlns:xlink="http://www.w3.org/1999/xlink" x="0px" y="0px"
	 viewBox="0 0 169.8 169.83" style="enable-background:new 0 0 169.8 169.83;" xml:space="preserve">
<style type="text/css">
	.st0{fill:#7C7C7D;}
	.st1{fill:#C7C6C6;stroke:#666767;stroke-miterlimit:10;}
	.st2{fill:#C7C6C6;stroke:#484747;stroke-miterlimit:10;}
	.st3{fill:#FFFFFF;stroke:#484747;stroke-miterlimit:10;}
	.st4{fill:#FFFEFE;stroke:#333333;stroke-miterlimit:10;}
</style>
<path class="st0" d="M84.89,169.82L-0.03,84.91L84.89,0l84.91,84.91l-0.35,0.35L84.89,169.82z M1.39,84.91l83.5,83.5l83.5-83.5
	l-83.5-83.5L1.39,84.91z"/>
<path class="st0" d="M84.89,169.82L-0.03,84.91L84.89,0l84.91,84.91l-0.35,0.35L84.89,169.82z M1.39,84.91l83.5,83.5l83.5-83.5
	l-83.5-83.5L1.39,84.91z"/>
<polygon class="st1" points="-208.52,137.31 -210.38,137.31 -210.38,98.1 -175.72,98.1 -175.72,100.07 -172.62,100.07 
	-172.62,94.48 -214.1,94.48 -214.1,141.03 -208.52,141.03 "/>
<polygon class="st1" points="-201.28,144.55 -203.14,144.55 -203.14,105.34 -168.48,105.34 -168.48,107.31 -165.38,107.31 
	-165.38,101.72 -206.86,101.72 -206.86,148.28 -201.28,148.28 "/>
<polygon class="st1" points="-185.24,151.69 -196.31,151.69 -196.31,112.48 -161.66,112.48 -161.66,122.72 -158.55,122.72 
	-158.55,108.86 -200.03,108.86 -200.03,155.41 -185.24,155.41 "/>
<rect x="-182.21" y="129.41" class="st2" width="8.41" height="8.41"/>
<rect x="-182.21" y="137.83" class="st2" width="8.41" height="8.41"/>
<rect x="-182.21" y="146.24" class="st2" width="8.41" height="8.41"/>
<rect x="-173.79" y="146.24" class="st2" width="8.41" height="8.41"/>
<rect x="-165.38" y="146.24" class="st2" width="8.41" height="8.41"/>
<rect x="-159.45" y="126.1" class="st3" width="8.41" height="8.41"/>
<rect x="-173.79" y="137.83" class="st2" width="8.41" height="8.41"/>
<rect x="-172.05" y="127.29" transform="matrix(0.7071 0.7071 -0.7071 0.7071 43.8248 157.1991)" class="st3" width="8.41" height="8.41"/>
<rect x="-163.66" y="135.69" transform="matrix(0.7071 0.7071 -0.7071 0.7071 52.2202 153.7216)" class="st3" width="8.41" height="8.41"/>
<path class="st1" d="M76.49,50.13h31.7c3.12,0,5.67,2.55,5.67,5.67v23.83c0,3.12-2.55,5.67-5.67,5.67h-1.64v8.69l-8.93-8.69H76.49
	c-3.12,0-5.67-2.55-5.67-5.67V55.8C70.82,52.68,73.37,50.13,76.49,50.13z"/>
<path class="st1" d="M73.73,87.78c-3.12,0-5.67-2.55-5.67-5.67V64.47H57.59c-3.12,0-5.67,2.55-5.67,5.67v23.83
	c0,3.12,2.55,5.67,5.67,5.67h1.64v8.69l8.93-8.69h21.12c3.12,0,5.67-2.55,5.67-5.67v-6.19H73.73z"/>
<circle class="st4" cx="80.95" cy="66.68" r="4"/>
<circle class="st4" cx="92.06" cy="66.68" r="4"/>
<circle class="st4" cx="103.16" cy="66.68" r="4"/>
</svg>
