<?xml version="1.0" encoding="utf-8"?>
<!-- Generator: Adobe Illustrator 23.0.3, SVG Export Plug-In . SVG Version: 6.00 Build 0)  -->
<svg version="1.1" id="图层_1" xmlns="http://www.w3.org/2000/svg" xmlns:xlink="http://www.w3.org/1999/xlink" x="0px" y="0px"
	 viewBox="0 0 118.78 120.46" style="enable-background:new 0 0 118.78 120.46;" xml:space="preserve">
<style type="text/css">
	.st0{fill:#FFFFFF;}
</style>
<path class="st0" d="M81.95,76.23c-0.33,0-0.67-0.01-1.01-0.04l-4.93-0.37c-7.33-0.55-12.85-6.96-12.3-14.3l1.73-23.02
	c0.26-3.48,2.25-6.83,5.46-9.2c3.03-2.24,6.8-3.37,10.3-3.11l3.53,0.38c7.27,0.54,12.79,6.96,12.24,14.29l-1.73,23.02
	C94.71,70.89,88.85,76.23,81.95,76.23z M81.24,72.21c5.16,0.4,9.63-3.48,10.01-8.61l1.73-23.02c0.38-5.14-3.48-9.63-8.61-10.01
	l-3.53-0.38c-2.47-0.19-5.33,0.69-7.57,2.34c-2.27,1.68-3.67,3.96-3.85,6.28l-1.73,23.02c-0.38,5.13,3.48,9.63,8.62,10.01
	L81.24,72.21z"/>
<path class="st0" d="M94.48,33.01l-3.97-0.45L93,10.3c-0.12-4.73-2.58-5.47-2.86-5.54L89.92,4.7c-6.3-2.13-8.53,1.2-9.01,2.14
	l-3.35,22.49l-3.96-0.59l3.43-23.01l0.09-0.22c1.15-2.84,5.54-7.45,14.01-4.62c1.03,0.27,5.76,1.93,5.88,9.47l0,0.13l-0.01,0.13
	L94.48,33.01z"/>
<path class="st0" d="M91.46,114.83c-0.02-1.55-0.38-38.17,16.45-52.01l2.54,3.09c-15.35,12.62-15,48.5-14.99,48.86L91.46,114.83z"/>
<path class="st0" d="M112.43,66.63l-18.3-1.42l0.31-3.99l17.18,1.33c0.85-0.57,2.89-2.34,3.15-6.23c0.02-0.21,0.24-3.67-4.17-6.34
	L94.77,48.1l0.47-3.97l16.65,1.98l0.35,0.2c7.13,4.05,6.55,10.12,6.52,10.37c-0.48,7.23-5.63,9.64-5.85,9.74L112.43,66.63z"/>
<path class="st0" d="M113.23,48.31l-3.96-0.53c2.96-21.97-14.57-33.15-15.32-33.62l2.11-3.4C96.26,10.89,116.54,23.73,113.23,48.31z
	"/>
<path class="st0" d="M31.82,17.73l-3.09-2.54c0.63-0.77,15.8-18.65,50.67-10.89l-0.87,3.9C46.2,1.01,32.4,17.05,31.82,17.73z"/>
<path class="st0" d="M29.16,109.33c-1.92,0-3.7-0.27-5.34-0.82c-6.6-2.19-8.22-7.98-8.29-8.23l-0.09-0.32l0.87-12.76
	c0.98-6.75-2.52-8.43-2.67-8.49l-0.39-0.18l-0.32-0.34c-3.69-4.19-2.16-10.51-2.09-10.77l3.88,0.97l-1.94-0.49l1.94,0.48
	c-0.01,0.04-1,4.27,1,6.9c1.54,0.88,5.75,4.08,4.57,12.42l-0.8,11.81c0.34,0.92,1.75,3.96,5.68,5.23
	c5.4,1.74,16.15,0.42,36.72-15.79l2.48,3.14C49.81,103.56,38.01,109.33,29.16,109.33z"/>
<rect x="34.55" y="109.47" transform="matrix(0.124 -0.9923 0.9923 0.124 -72.8826 140.3699)" class="st0" width="17.02" height="4"/>
<rect x="32.01" y="24.36" transform="matrix(0.032 -0.9995 0.9995 0.032 -23.4278 88.5721)" class="st0" width="4" height="64.04"/>
<rect x="35.11" y="1.47" transform="matrix(0.2643 -0.9644 0.9644 0.2643 -4.2557 59.8621)" class="st0" width="4" height="62.5"/>
<path class="st0" d="M51.06,69.91H13.12l-0.32-0.11c-0.5-0.18-12.32-4.45-12.79-16.43L0,53.12l6.22-29.41
	c0.05-0.13,5.38-12.65,23.33-9.21l0.33,0.09l30.9,11.71c0.32,0.11,9.32,3.33,8.31,16.82l-3.99-0.3c0.77-10.29-5.43-12.67-5.69-12.76
	L28.64,18.39c-13.68-2.55-18.09,5.54-18.65,6.69L4.02,53.45c0.46,8.26,8.16,11.79,9.81,12.46h37.06c7-0.65,11.98-8.75,12.03-8.83
	l3.42,2.07c-0.25,0.41-6.15,9.98-15.2,10.75L51.06,69.91z"/>
<path class="st0" d="M57.27,59.01c-2.65-1.04-7.55-4.68-7.18-11.02c0.02-3.53,2.34-10.25,11.08-10.9l0.3,3.99
	c-7.32,0.54-7.38,6.7-7.38,6.96l0,0.13c-0.32,5.11,4.6,7.1,4.65,7.12L57.27,59.01z"/>
</svg>
