<?xml version="1.0" encoding="utf-8"?>
<!-- Generator: Adobe Illustrator 23.0.3, SVG Export Plug-In . SVG Version: 6.00 Build 0)  -->
<svg version="1.1" id="图层_1" xmlns="http://www.w3.org/2000/svg" xmlns:xlink="http://www.w3.org/1999/xlink" x="0px" y="0px"
	 viewBox="0 0 200 200" style="enable-background:new 0 0 200 200;" xml:space="preserve">
<style type="text/css">
	.st0{fill:#898989;}
</style>
<g>
	<path class="st0" d="M18.18,141.82c0.45,1.36,1.36,2.73,3.18,3.18c-1.82,2.73-2.73,5.91-2.73,9.55c0,10,8.18,18.18,18.18,18.18
		c10,0,18.18-8.18,18.18-18.18c0-3.18-1.36-6.36-2.73-9.09h50.45c-1.82,2.73-2.73,5.91-2.73,9.09c0,10,8.18,18.18,18.18,18.18
		s18.18-8.18,18.18-18.18c0-3.64-0.91-6.82-2.73-9.55c1.36-0.45,2.27-1.36,2.73-2.73l28.18-105.91h30.91c2.73,0,4.55-0.85,4.55-5.55
		c0-2.73-1.82-4.55-4.55-4.55h-34.55c-1.82,0-4.64,2.36-5.09,4.18l-6.36,24.09H4.55C1.82,54.55,0,56.36,0,59.09L0,60L18.18,141.82
		L18.18,141.82z M37.64,81.82H15.09L11,63.64h24.82L37.64,81.82z M142.18,81.82h-26.27l1.82-18.18h29L142.18,81.82z M112.73,109.09
		l1.82-18.18h24.91l-5,18.18H112.73z M127.64,136.36H110l1.82-18.18h20.36L127.64,136.36z M118.18,163.64c-5,0-9.09-4.09-9.09-9.09
		c0-5,4.09-9.09,9.09-9.09c5,0,9.09,4.09,9.09,9.09C127.27,159.55,123.18,163.64,118.18,163.64L118.18,163.64z M81.82,118.18h19.45
		l-1.82,18.18H81.82V118.18z M81.82,90.91h22.64l-1.82,18.18H81.82V90.91z M81.82,63.64h25.36l-1.82,18.18H81.82V63.64z
		 M52.27,118.18h19.45v18.18H54.09L52.27,118.18z M49.09,90.91h22.64v18.18H50.91L49.09,90.91z M45.91,63.64h25.82v18.18H48.18
		L45.91,63.64z M36.36,163.64c-5,0-9.09-4.09-9.09-9.09c0-5,4.09-9.09,9.09-9.09c5,0,9.09,4.09,9.09,9.09
		C45.45,159.55,41.36,163.64,36.36,163.64L36.36,163.64z M23.73,118.18h18.45L44,136.36H27.36L23.73,118.18z M21.45,109.09
		l-4.09-18.18H39l1.82,18.18H21.45z M41.82,109.09"/>
</g>
</svg>
