<?xml version="1.0" encoding="utf-8"?>
<!-- Generator: Adobe Illustrator 23.0.3, SVG Export Plug-In . SVG Version: 6.00 Build 0)  -->
<svg version="1.1" id="图层_1" xmlns="http://www.w3.org/2000/svg" xmlns:xlink="http://www.w3.org/1999/xlink" x="0px" y="0px"
	 viewBox="0 0 314.84 80.42" style="enable-background:new 0 0 314.84 80.42;" xml:space="preserve">
<style type="text/css">
	.st0{fill:#C4A45B;}
</style>
<g>
	<polygon class="st0" points="4.24,4.08 26.26,4.08 26.26,0.13 0.28,0.13 0.28,26.11 4.24,26.11 	"/>
	<polygon class="st0" points="54.7,4.08 76.73,4.08 76.73,26.11 80.69,26.11 80.69,0.13 54.7,0.13 	"/>
	<polygon class="st0" points="4.24,54.55 0.28,54.55 0.28,80.54 26.26,80.54 26.26,76.58 4.24,76.58 	"/>
	<polygon class="st0" points="76.73,76.58 54.7,76.58 54.7,80.54 80.69,80.54 80.69,54.55 76.73,54.55 	"/>
	<polygon class="st0" points="11.84,15.73 9.04,18.53 26.01,35.49 9.45,35.49 9.45,39.45 35.56,39.45 	"/>
	<polygon class="st0" points="11.84,64.95 35.56,41.22 9.45,41.22 9.45,45.18 26.01,45.18 9.04,62.15 	"/>
	<polygon class="st0" points="69.06,15.73 45.33,39.45 71.45,39.45 71.45,35.49 54.89,35.49 71.85,18.53 	"/>
	<polygon class="st0" points="71.45,41.22 45.33,41.22 69.06,64.95 71.85,62.15 54.89,45.18 71.45,45.18 	"/>
	<polygon class="st0" points="62.26,9.03 45.3,25.99 45.3,9.44 41.34,9.44 41.34,35.55 65.06,11.83 	"/>
	<polygon class="st0" points="35.6,25.99 18.64,9.03 15.84,11.83 39.56,35.55 39.56,9.44 35.6,9.44 	"/>
	<polygon class="st0" points="65.06,69.04 41.34,45.32 41.34,71.43 45.3,71.43 45.3,54.88 62.26,71.84 	"/>
	<polygon class="st0" points="18.64,71.84 35.6,54.88 35.6,71.43 39.56,71.43 39.56,45.32 15.84,69.04 	"/>
	<rect x="92.75" y="65.35" class="st0" width="40.88" height="0.85"/>
	<rect x="274.13" y="65.35" class="st0" width="40.88" height="0.85"/>
	<path class="st0" d="M145.83,67.93h3.68v2.33c-0.35,0.31-0.87,0.61-1.55,0.88c-0.68,0.28-1.38,0.41-2.1,0.41
		c-0.82,0-1.6-0.18-2.34-0.55c-0.73-0.36-1.29-0.92-1.68-1.67c-0.38-0.75-0.58-1.68-0.58-2.8c0-0.9,0.16-1.74,0.48-2.52
		c0.19-0.45,0.45-0.86,0.79-1.24s0.78-0.68,1.34-0.91c0.55-0.23,1.21-0.35,1.96-0.35c0.63,0,1.21,0.11,1.72,0.33
		c0.52,0.22,0.92,0.51,1.19,0.87c0.28,0.36,0.51,0.86,0.7,1.5l1.49-0.41c-0.22-0.84-0.53-1.52-0.95-2.05
		c-0.42-0.52-0.99-0.93-1.72-1.22c-0.73-0.29-1.55-0.44-2.45-0.44c-1.25,0-2.35,0.26-3.3,0.77c-0.96,0.51-1.69,1.3-2.2,2.35
		c-0.51,1.06-0.76,2.19-0.76,3.41c0,1.23,0.26,2.34,0.77,3.34c0.51,1,1.27,1.76,2.27,2.28c1,0.53,2.12,0.79,3.35,0.79
		c0.91,0,1.8-0.16,2.66-0.49c0.86-0.33,1.7-0.82,2.52-1.46v-4.64l-5.3,0.01V67.93z"/>
	<path class="st0" d="M158.74,60.33l-4.8,12.51h1.76l1.37-3.79h5.23l1.46,3.79h1.89l-5.12-12.51H158.74z M157.55,67.7l1.37-3.67
		c0.29-0.79,0.51-1.59,0.67-2.39c0.19,0.68,0.49,1.54,0.89,2.59l1.31,3.46H157.55z"/>
	<path class="st0" d="M184.38,66.18c0.59-0.29,1.02-0.67,1.31-1.14c0.29-0.47,0.44-0.98,0.44-1.51c0-0.57-0.16-1.12-0.49-1.65
		c-0.33-0.53-0.78-0.92-1.36-1.17c-0.58-0.25-1.34-0.38-2.3-0.38h-4.69v12.51h4.77c0.8,0,1.47-0.07,2.02-0.21
		c0.55-0.14,1.01-0.35,1.37-0.62c0.36-0.27,0.67-0.66,0.92-1.16c0.25-0.5,0.37-1.05,0.37-1.63c0-0.73-0.2-1.36-0.61-1.89
		C185.72,66.78,185.14,66.4,184.38,66.18z M178.95,61.8h2.5c0.9,0,1.53,0.06,1.9,0.17c0.37,0.12,0.65,0.33,0.85,0.65
		c0.2,0.32,0.3,0.68,0.3,1.1c0,0.44-0.11,0.8-0.32,1.09c-0.21,0.29-0.53,0.5-0.95,0.62c-0.32,0.1-0.84,0.15-1.58,0.15h-2.7V61.8z
		 M184.77,70.26c-0.16,0.3-0.38,0.54-0.63,0.7c-0.26,0.16-0.57,0.27-0.96,0.34c-0.22,0.04-0.59,0.06-1.13,0.06h-3.11v-4.3h2.89
		c0.8,0,1.41,0.07,1.83,0.21c0.42,0.14,0.76,0.38,0.99,0.73c0.24,0.34,0.36,0.75,0.36,1.22C185.02,69.61,184.94,69.96,184.77,70.26z
		"/>
	<path class="st0" d="M199.37,60.93c-0.93-0.55-1.97-0.83-3.12-0.83c-1.76,0-3.2,0.59-4.32,1.76c-1.11,1.17-1.67,2.8-1.67,4.88
		c0,1.1,0.24,2.14,0.72,3.12c0.48,0.98,1.18,1.76,2.11,2.33c0.93,0.57,1.98,0.85,3.16,0.85c1.09,0,2.1-0.26,3.04-0.77
		c0.94-0.51,1.66-1.27,2.18-2.27c0.51-1,0.77-2.14,0.77-3.4c0-1.25-0.24-2.37-0.73-3.36C201.01,62.25,200.3,61.48,199.37,60.93z
		 M199.31,70.32c-0.8,0.88-1.83,1.31-3.08,1.31c-1.22,0-2.24-0.43-3.05-1.3c-0.81-0.87-1.22-2.05-1.22-3.56
		c0-1.88,0.42-3.23,1.27-4.03c0.84-0.8,1.85-1.21,3.02-1.21c0.82,0,1.57,0.21,2.23,0.63c0.66,0.42,1.17,1.01,1.51,1.77
		c0.34,0.76,0.52,1.65,0.52,2.67C200.51,68.2,200.11,69.44,199.31,70.32z"/>
	<polygon class="st0" points="205.16,61.8 209.28,61.8 209.28,72.84 210.94,72.84 210.94,61.8 215.08,61.8 215.08,60.33 
		205.16,60.33 	"/>
	<polygon class="st0" points="217.58,61.8 221.71,61.8 221.71,72.84 223.36,72.84 223.36,61.8 227.5,61.8 227.5,60.33 217.58,60.33 
			"/>
	<polygon class="st0" points="232.63,67.1 239.55,67.1 239.55,65.63 232.63,65.63 232.63,61.8 240.02,61.8 240.02,60.33 
		230.98,60.33 230.98,72.84 240.31,72.84 240.31,71.36 232.63,71.36 	"/>
	<path class="st0" d="M251.96,70.83c-0.64,0.53-1.43,0.8-2.35,0.8c-0.76,0-1.47-0.2-2.12-0.59c-0.65-0.39-1.14-0.99-1.45-1.78
		c-0.31-0.79-0.47-1.72-0.47-2.79c0-0.82,0.13-1.63,0.39-2.4c0.26-0.78,0.72-1.39,1.36-1.86c0.65-0.46,1.45-0.69,2.41-0.69
		c0.84,0,1.53,0.21,2.08,0.62c0.55,0.42,0.97,1.08,1.26,1.99l1.63-0.38c-0.34-1.15-0.93-2.05-1.78-2.69
		c-0.85-0.64-1.91-0.96-3.16-0.96c-1.1,0-2.11,0.25-3.03,0.76c-0.92,0.5-1.63,1.24-2.12,2.21c-0.5,0.97-0.75,2.11-0.75,3.41
		c0,1.19,0.22,2.31,0.66,3.35c0.44,1.04,1.08,1.84,1.93,2.38c0.84,0.55,1.94,0.82,3.29,0.82c1.3,0,2.4-0.36,3.31-1.07
		c0.9-0.71,1.53-1.75,1.87-3.11l-1.66-0.42C253.04,69.5,252.61,70.3,251.96,70.83z"/>
	<polygon class="st0" points="266.92,65.46 260.42,65.46 260.42,60.33 258.76,60.33 258.76,72.84 260.42,72.84 260.42,66.94 
		266.92,66.94 266.92,72.84 268.57,72.84 268.57,60.33 266.92,60.33 	"/>
	<path class="st0" d="M149.81,18.16h27.31v-3.59h-25.31c0.62-1.37,1.11-2.84,1.38-4.37l-3.65-1.23c0,0-1.56,7.6-8.81,13.41
		l2.66,2.88C143.38,25.27,146.93,22.49,149.81,18.16z"/>
	<path class="st0" d="M162.82,19.24h-4.11v6.64c0,0,0.06,0.56,0,1.48h-17.06v3.53h16.41c-1.36,4.44-5.34,10.65-16.83,13.61l1.4,3.81
		c0,0,16.43-3.09,19.72-17.42h16.95v-3.53h-16.46V19.24z"/>
	<path class="st0" d="M192.42,48.3h3.63V27.55c0,0,1.25,3.33,4.41,5.64l1.9-2.66c0,0-4-3.73-6.14-9.62h5.13v-3.33h-5.3V9.63h-3.63
		v7.94h-5.87v3.33h5.12c-0.36,1.22-2.68,8.74-7.49,16.18l3.03,1.95c0,0,3.7-5.56,5.22-10.88V48.3z"/>
	<path class="st0" d="M250.63,11.28H234.5v10.3h16.13V11.28z M247.18,18.69h-9.29v-4.92h9.29V18.69z"/>
	<path class="st0" d="M269.26,11.28h-16.13v10.3h16.13V11.28z M265.81,18.69h-9.29v-4.92h9.29V18.69z"/>
	<path class="st0" d="M250.68,48.3V35.37H234.5V48.3h3.31v-1.59h9.37v1.59H250.68z M237.81,44.12v-5.93h9.37v5.93H237.81z"/>
	<path class="st0" d="M253.11,48.3h3.31v-1.59h9.37v1.59h3.5V35.37h-16.18V48.3z M256.41,38.19h9.37v5.93h-9.37V38.19z"/>
	<path class="st0" d="M232.96,35.16c0,0,12.79-0.21,18.5-7.81h0.93h6.57h11.8v-2.98h-5.93c-0.34-0.54-0.91-1.31-1.89-2.29
		l-3.32,0.74c0,0,0.71,0.44,1.38,1.55h-7.86c0.25-0.62,0.46-1.28,0.63-1.97l-3.54-0.48c0,0-0.24,1.04-1.15,2.46h-16.11v2.98h13.47
		c-2.64,2.23-7.03,4.4-14.3,4.84L232.96,35.16z"/>
	<path class="st0" d="M163.23,32.42c-0.41,1.74-0.78,2.63-1.52,4.37c2.05,2.87,8.07,9.25,18.01,11.87l1.25-3.89
		C180.98,44.77,169.32,42.32,163.23,32.42z"/>
	<path class="st0" d="M197.74,45.31l2.61,2.66c0,0,6.79-4.54,6.79-16.57V16.43h-3.48v13.48C203.66,29.91,204.09,40.45,197.74,45.31z
		"/>
	<path class="st0" d="M223.06,48.47c0,0,1.83-0.15,2.65-2.7c0,0,0.77-2.16,0.87-6.11h-3.41c0,0,0.1,5.04-1.4,5.09h-1.84
		c0,0-0.63,0-0.63-1.16V11.52h-15.65v3.56l11.84-0.02v29.19c0,0-0.14,4.09,3.27,4.24H223.06z"/>
	<path class="st0" d="M253.11,28.96c3.08,2.35,10.19,6.15,18.82,6.33l0.31-2.65c0,0-7.74-0.05-13.22-3.67H253.11z"/>
	<path class="st0" d="M297.13,19v-8.97h-4.26l0.14,9.82c-0.05,17.25-17.05,25.25-17.05,25.25l2.1,3.21
		C298.62,37.9,297.13,19,297.13,19z"/>
	<path class="st0" d="M313.22,48.3l1.9-3.41c0,0-12.98-5.62-17.07-19.26c-0.47,3.27-1.05,4.78-1.58,6.06
		C298.74,36.5,304.43,44.42,313.22,48.3z"/>
	<path class="st0" d="M116.05,9.54l-3.33-1.93c0,0-5.84,10.34-19.82,14.22l1.31,3.42c0,0,11.7-3.52,18.72-11.34
		c0.84,0.76,7.58,6.43,19.44,10.77l1.33-3.19c0,0-11.91-3.8-18.68-10.26C115.39,10.69,115.64,10.27,116.05,9.54z"/>
	<rect x="100.78" y="22.83" class="st0" width="25.67" height="3.73"/>
	<polygon class="st0" points="94.72,49.03 132.56,49.03 132.56,45.51 115.32,45.51 115.32,34.23 131.04,34.23 131.04,30.66 
		115.32,30.66 115.32,27.68 111.22,27.68 111.22,30.66 96.12,30.66 96.12,34.23 111.22,34.23 111.22,45.51 94.72,45.51 	"/>
	<path class="st0" d="M102.26,36.21l-2.9,1.84c2.24,3.21,3.57,6.43,3.57,6.43l3.08-1.59C104.78,39.12,102.26,36.21,102.26,36.21z"/>
	<path class="st0" d="M123.13,44.67c0,0,2.88-3.13,4.19-7.21l-3.47-1.6c0,0-1.76,4.26-4.39,6.83L123.13,44.67z"/>
</g>
</svg>
