<?xml version="1.0" encoding="utf-8"?>
<!-- Generator: Adobe Illustrator 23.0.3, SVG Export Plug-In . SVG Version: 6.00 Build 0)  -->
<svg version="1.1" id="图层_1" xmlns="http://www.w3.org/2000/svg" xmlns:xlink="http://www.w3.org/1999/xlink" x="0px" y="0px"
	 viewBox="0 0 200 200" style="enable-background:new 0 0 200 200;" xml:space="preserve">
<style type="text/css">
	.st0{fill:#898989;}
</style>
<path class="st0" d="M72.56,162.76V163c-1.28,0-2.22,0.1-2.77,0.1h-0.65c-13.64,0-24.62-10.91-25-24.52
	c-0.21-6.69,2.2-13.16,6.78-18.02c4.58-4.86,10.77-7.71,17.46-7.9c0.07,0,0.73-0.04,0.79-0.04c5.24,0,10.26,1.64,14.57,4.78
	c6.06,2.14,12.18-0.85,18.16-8.87c5.95-7.96,7.2-14.27,3.72-18.75c-1.24-0.89-2.43-1.96-3.62-3.22c-0.21-0.2-0.4-0.42-0.58-0.65
	c-3.91-4.42-6.15-10.01-6.33-15.77c-0.38-13.82,10.51-25.37,24.27-25.76c0.07,0,0.71-0.01,0.77-0.01c11.58,0,21.81,8.2,24.33,19.51
	c2.03,6.28,7.23,31.16-17.76,64.57C103.58,159.42,81.14,162.76,72.56,162.76L72.56,162.76z M71.75,150.14
	c3.73,0.09,23.35-0.44,44.83-29.23c21.94-29.33,16.94-49.9,15.72-53.73c-1.4-6.14-6.46-10.2-12.19-10.2
	c-7.23,0.2-12.62,5.94-12.44,12.8c0.11,3.64,1.84,6.3,3.26,7.87c0.05,0.05,0.09,0.1,0.13,0.16c0.79,0.86,1.54,1.5,2.28,1.98
	c0.47,0.31,0.9,0.68,1.27,1.1c3.86,4.36,11.35,16.51-2.62,35.18c-9.02,12.07-18.26,14.59-24.42,14.6c-3.17,0-6.32-0.65-9.36-1.92
	c-0.52-0.22-1.02-0.51-1.47-0.87c-1.57-1.23-4.15-2.71-7.57-2.71c-3.74,0.1-6.8,1.48-9.07,3.88c-2.27,2.41-3.46,5.57-3.37,8.88
	c0.19,6.77,5.64,12.06,12.4,12.06c0.03,0,0.04,0.01,0.01,0.01c0.24-0.04,0.49-0.07,0.64-0.09
	C70.46,149.94,71.12,149.99,71.75,150.14L71.75,150.14z M100.72,188.96c-11.86,0-23.36-2.32-34.19-6.87
	c-3.21-1.36-4.71-5.05-3.36-8.25c1.35-3.22,5.05-4.7,8.25-3.37c9.27,3.9,19.13,5.89,29.3,5.89c41.71,0,75.63-33.92,75.63-75.63
	c0-41.7-33.92-75.63-75.63-75.63s-75.63,33.93-75.63,75.64c0,14.26,3.99,28.14,11.54,40.16c1.84,2.95,0.96,6.84-1.99,8.69
	c-2.95,1.85-6.84,0.96-8.69-1.99c-8.82-14.04-13.47-30.24-13.47-46.86c0-48.65,39.58-88.24,88.24-88.24s88.24,39.58,88.24,88.24
	C188.95,149.38,149.37,188.96,100.72,188.96L100.72,188.96z"/>
</svg>
