<?xml version="1.0" encoding="utf-8"?>
<!-- Generator: Adobe Illustrator 23.0.3, SVG Export Plug-In . SVG Version: 6.00 Build 0)  -->
<svg version="1.1" id="图层_1" xmlns="http://www.w3.org/2000/svg" xmlns:xlink="http://www.w3.org/1999/xlink" x="0px" y="0px"
	 viewBox="0 0 789.2 770.7" style="enable-background:new 0 0 789.2 770.7;" xml:space="preserve">
<style type="text/css">
	.st0{clip-path:url(#SVGID_1_);fill:#FFFFFF;}
	.st1{fill:#FFFFFF;}
</style>
<g>
	<g>
		<defs>
			<rect id="SVGID_3_" x="73.5" y="157.2" width="625" height="576.4"/>
		</defs>
		<clipPath id="SVGID_1_">
			<use xlink:href="#SVGID_3_"  style="overflow:visible;"/>
		</clipPath>
		<path class="st0" d="M660.9,282.9h-0.7c-2.2-0.4-4-0.4-6.1-0.4c-19.5,0-35.8,11.6-42.6,30.3L576,422.7c-5.8-2.2-11.9-3.2-18.4-3.2
			c-10.1,0-20.2,2.5-30.4,8L412,488.9c-9.8,5.1-18.1,12.6-24.9,22c-6.9-9.4-15.5-17-24.9-22l-115.6-61.8c-10.1-5.4-20.2-8-30.3-8
			c-6.5,0-12.6,1.1-18.4,3.3l-35.4-109.8c-6.5-18.8-22.8-30.3-42.6-30.3c-2.2,0-4,0-6.1,0.4h-0.7c-18.8,3.3-39,21-39.4,52.4v0.4
			l5.1,136.6c0,21,6.9,43,20.2,64.7c7.2,11.6,16.3,21.3,24.9,30.7l0.4,0.4l70.1,67.6c13,12.6,25.7,24.2,34,37.9l30.4,49.1
			c4,6.5,10.8,10.5,18.1,10.5c4,0,8-1.1,11.6-3.2c10.5-6.5,13.4-19.1,6.9-29.6l-31.4-51.3c-10.8-17.7-25.3-31.8-40.1-46.2L154,535.1
			c-20.6-20.6-32.5-45.2-33.2-66.8l-5.1-136.6c0-2.5,0.4-6.9,4-7.6h0.4c0,0.4,0.4,0.4,0.4,0.7l39.7,124.3l2.2,9.8
			c2.2,14.4,5.8,30.3,26.7,49.9c2.9,4,6.9,6.9,9,8.3l40.5,32.2c5.1,4.3,10.1,5.1,13.7,5.1c6.1,0,11.9-2.9,15.9-8
			c8-9.4,6.9-22-2.5-29.6l-41.5-32.9c-13-10.1-15.2-18.1-14.8-20.2c1.1-1.1,3.3-1.8,5.4-1.8c2.9,0,6.9,1.1,10.1,2.9L340.1,526
			c14.4,8.7,22.8,31.8,22.4,49.5l1.4,67.9v0.4c0.4,4.3,2.2,8.3,5.1,11.6c3.3,4,7.9,6.9,13,8l3.3,0.7h0.7l3.3-0.7c5.1-1.1,9.8-4,13-8
			c2.9-3.3,4.7-7.6,5.1-11.6v-0.4l1.4-67.9c0-17.7,8.3-40.8,22.4-49.5L546,464.6c4-1.8,7.6-2.9,10.5-2.9c2.2,0,4.3,0.7,5.4,1.8
			c0,2.2-1.8,9.8-14.8,20.2l-41.5,32.9c-9.4,8-10.5,20.2-2.5,29.6c4.3,5.1,10.1,8,15.9,8c3.3,0,8.3-0.7,13.7-5.1l40.5-32.2
			c2.2-1.4,6.1-4.3,9-8.3c20.6-19.5,24.6-35.4,26.7-49.9l2.2-9.8l39.7-123.9c0.4-0.7,0.4-1.1,0.7-1.1h0.7c3.3,0.4,3.6,4.7,3.6,7.6
			l-5.1,136.6c-0.7,21.7-12.6,45.9-32.9,66.5l-69.4,67.2c-15.2,14.1-29.3,28.5-40.5,46.2l-31.4,51.3c-6.5,10.5-3.3,23.1,7.2,29.6
			c3.6,2.2,7.6,3.3,11.6,3.3c7.2,0,14.1-4,18.1-10.5l30.3-49.1c8.3-13.7,21-25.3,34-37.9l69.7-67.2l0.7-0.7
			c8.7-9.4,17.7-19.1,24.9-30.7c13-21.3,20.2-43.7,20.2-64.7l5.1-136.6v-0.7C699.9,304.2,679.7,286.2,660.9,282.9L660.9,282.9z
			 M660.9,282.9"/>
	</g>
	<path class="st1" d="M376.2,384.8c3.6,2.2,7.2,3.2,11.2,3.2c4,0,7.9-1.1,11.2-3.2c11.9-7.2,114.9-72.3,114.9-144.9
		c0-45.2-37.6-82-83.8-82c-15.2,0-29.6,4-42.6,11.6c-12.6-7.6-27.5-11.6-42.6-11.6c-46.2,0-83.8,36.8-83.8,82
		C261.3,312.6,364.3,377.6,376.2,384.8L376.2,384.8z M376.2,384.8"/>
</g>
<polygon class="st1" points="789.2,770.7 757.7,770.7 757.7,245.8 393,36.6 28.5,243.8 28.5,770.7 0,770.7 0,223.3 393,0 
	789.2,225.3 "/>
</svg>
