<?xml version="1.0" encoding="utf-8"?>
<!-- Generator: Adobe Illustrator 23.0.3, SVG Export Plug-In . SVG Version: 6.00 Build 0)  -->
<svg version="1.1" id="图层_1" xmlns="http://www.w3.org/2000/svg" xmlns:xlink="http://www.w3.org/1999/xlink" x="0px" y="0px"
	 viewBox="0 0 789.2 770.7" style="enable-background:new 0 0 789.2 770.7;" xml:space="preserve">
<style type="text/css">
	.st0{clip-path:url(#SVGID_1_);fill:#FFFFFF;}
	.st1{fill:#FFFFFF;}
</style>
<g>
	<g>
		<defs>
			<rect id="SVGID_3_" x="1" width="788.2" height="770.7"/>
		</defs>
		<clipPath id="SVGID_1_">
			<use xlink:href="#SVGID_3_"  style="overflow:visible;"/>
		</clipPath>
		<path class="st0" d="M768.6,0.5H20.9c-11,0-20,9-20,20v730.3c0,11,9,20,20,20h747.7c11,0,20-9,20-20V20.5
			C788.6,9.4,779.6,0.5,768.6,0.5z M748.6,730.7H40.9V40.5h707.7V730.7z"/>
	</g>
	<path class="st1" d="M110.6,540.9c11.9,0,21.6-9.7,21.6-21.6c0-69.7,56.7-126.4,126.4-126.4c69.7,0,126.4,56.7,126.4,126.4
		c0,11.9,9.7,21.6,21.6,21.6c11.9,0,21.6-9.7,21.6-21.6c0-68.7-41-127.9-99.8-154.6c18.9-18.2,30.6-43.8,30.6-72
		c0-55.2-44.9-100.2-100.2-100.2c-55.2,0-100.2,44.9-100.2,100.2c0,28.1,11.7,53.5,30.4,71.8C130.2,391,89,450.4,89,519.2
		C89,531.2,98.7,540.9,110.6,540.9L110.6,540.9z M259,235.7c31.4,0,56.9,25.5,56.9,56.9c0,31.4-25.5,56.9-56.9,56.9
		c-31.4,0-56.9-25.5-56.9-56.9C202.1,261.2,227.6,235.7,259,235.7L259,235.7z M469.6,267h125.9c11.9,0,21.6-9.7,21.6-21.6
		c0-11.9-9.7-21.6-21.6-21.6H469.6c-11.9,0-21.6,9.7-21.6,21.6C447.9,257.4,457.6,267,469.6,267L469.6,267z M464.1,387.6h204.4
		c11.9,0,21.6-9.7,21.6-21.6c0-11.9-9.7-21.6-21.6-21.6H464.1c-11.9,0-21.6,9.7-21.6,21.6C442.5,377.9,452.2,387.6,464.1,387.6
		L464.1,387.6z M469.6,464.9c-11.9,0-21.6,9.7-21.6,21.6s9.7,21.6,21.6,21.6h209.8c11.9,0,21.6-9.7,21.6-21.6s-9.7-21.6-21.6-21.6
		H469.6z M469.6,464.9"/>
</g>
</svg>
