<?xml version="1.0" encoding="utf-8"?>
<!-- Generator: Adobe Illustrator 23.0.3, SVG Export Plug-In . SVG Version: 6.00 Build 0)  -->
<svg version="1.1" id="图层_1" xmlns="http://www.w3.org/2000/svg" xmlns:xlink="http://www.w3.org/1999/xlink" x="0px" y="0px"
	 viewBox="0 0 789.2 770.7" style="enable-background:new 0 0 789.2 770.7;" xml:space="preserve">
<style type="text/css">
	.st0{fill:#FFFFFF;}
</style>
<g>
	<path class="st0" d="M212.7,345.3H46.3V669h166.5V345.3z M0,721.4l789.2,0v49.3H0V721.4z M743,345.3H576.5V669
		c88.3,0,78.1-0.1,166.4-0.1L743,345.3z M243.5,49.2V669h302.1V49.4L243.5,49.2z M576.5,49.4l0,246.6h212.7v49.3h-15.5l0.1,323.7
		h15.4v33.8L0,702.9V669h15.4l-0.1-323.8H0V296h212.7l0-246.6l-15.4-0.1V0h394.5v49.3L576.5,49.4z M576.5,49.4"/>
	<path class="st0" d="M675.1,545.7h37v89.4h-37V545.7z M607.3,545.7h37v89.4h-37V545.7z M144.9,545.7h37v89.4h-37V545.7z
		 M77.1,545.7h37v89.4h-37V545.7z M144.9,385.3h37v123.4h-37V385.3z M77.1,385.3h37v123.4h-37V385.3z M675.1,385.3h37v123.4h-37
		V385.3z M607.3,385.3h37v123.4h-37V385.3z M459.3,545.7h43.2v89.4h-43.2V545.7z M459.3,385.3h43.2v123.3h-43.2V385.3z M286.7,545.7
		h43.2v89.4h-43.2V545.7z M286.7,385.3h43.2v123.3h-43.2V385.3z M373,545.7h43.2v89.4H373V545.7z M373,385.3h43.2v123.3H373V385.3z
		 M360.7,92.4h67.8v74h74v71h-74v70.8h-67.8v-70.8h-74v-71h74V92.4z M360.7,92.4"/>
</g>
</svg>
