<?xml version="1.0" encoding="utf-8"?>
<!-- Generator: Adobe Illustrator 23.0.3, SVG Export Plug-In . SVG Version: 6.00 Build 0)  -->
<svg version="1.1" id="图层_1" xmlns="http://www.w3.org/2000/svg" xmlns:xlink="http://www.w3.org/1999/xlink" x="0px" y="0px"
	 viewBox="0 0 819.1 820" style="enable-background:new 0 0 819.1 820;" xml:space="preserve">
<style type="text/css">
	.st0{clip-path:url(#SVGID_2_);fill:#FFFFFF;}
	.st1{fill:#FFFFFF;}
</style>
<g>
	<g>
		<defs>
			<rect id="SVGID_1_" x="0.1" width="819.8" height="820.7"/>
		</defs>
		<clipPath id="SVGID_2_">
			<use xlink:href="#SVGID_1_"  style="overflow:visible;"/>
		</clipPath>
		<path class="st0" d="M409.6,0.5C183.4,0.5,0,183.9,0,410.1s183.4,409.6,409.6,409.6s409.6-183.4,409.6-409.6
			c0-108.6-43.1-212.8-120-289.6C622.4,43.7,518.2,0.5,409.6,0.5L409.6,0.5z M409.6,762.4c-194.5,0-352.2-157.7-352.2-352.2
			c0-194.5,157.7-352.2,352.2-352.2c194.5,0,352.2,157.7,352.2,352.2C761.8,604.7,604.1,762.4,409.6,762.4L409.6,762.4z
			 M409.6,762.4"/>
	</g>
	<path class="st1" d="M603.2,410.1c0.9,3.7,0.9,7.5,0,11.1c-1.2,2.7-3,5.1-5.3,7L470.5,554.5c-11.4,10.7-29.2,10.4-40.2-0.6
		c-11-11-11.3-28.8-0.7-40.2l73.7-74.3H245.3c-10.6,0.2-20.5-5.3-25.8-14.4c-5.4-9.1-5.4-20.4,0-29.6c5.4-9.1,15.2-14.7,25.8-14.4
		h257.9l-75.4-74.3c-11.2-11.3-11.2-29.6,0.1-40.9c11.3-11.3,29.5-11.4,40.9-0.1l124,123.4c2.4,2,4.2,4.6,5.3,7.6
		C601,400.5,602.9,405.2,603.2,410.1L603.2,410.1z M603.2,410.1"/>
</g>
</svg>
