<?xml version="1.0" encoding="utf-8"?>
<!-- Generator: Adobe Illustrator 23.0.3, SVG Export Plug-In . SVG Version: 6.00 Build 0)  -->
<svg version="1.1" id="图层_1" xmlns="http://www.w3.org/2000/svg" xmlns:xlink="http://www.w3.org/1999/xlink" x="0px" y="0px"
	 viewBox="0 0 624 62.11" style="enable-background:new 0 0 624 62.11;" xml:space="preserve">
<style type="text/css">
	.st0{fill:#040000;}
</style>
<g>
	<path class="st0" d="M7.02,24.01c1.68,7.44-1.68,16.8-0.24,23.46c-0.48,1.74-1.62,2.88-3.12,3.66c-0.78,0.3-1.68-0.24-1.02-1.44
		c-1.14,0.36-0.9,0-1.38-0.54c-1.2-1.26-1.26-1.5-0.42-4.2C1.08,44.23,0,43.69,0,42.85c0.12-2.58,0.96-5.64,1.26-7.98
		c0.18-2.16,0-4.86,0.24-7.26c0.12-1.44,1.44-1.86,0.48-3.84C3.6,21.91,5.22,23.29,7.02,24.01z M0.72,8.17
		c-0.48,2.58,0.72,4.74,1.98,6.3c4.26,0.54,5.64-3.06,4.98-6.06c-1.26-0.3-0.48-1.8-1.62-1.92C4.68,6.85,4.2,6.37,3.18,5.77
		C2.76,6.97,1.98,7.81,0.72,8.17z"/>
	<path class="st0" d="M50.4,13.21c0.54,0.84-0.36,1.74-0.42,2.64c-0.06,0.24,0.48,0.3,0.42,0.66c-0.84,7.68-8.58,14.28-14.7,18
		c1.5,0.6,2.58,1.02,4.8,1.26c4.14,0.54,6.78,3.66,9.9,5.52c1.8,1.08,2.88,2.46,4.86,3.72c-0.48,0.42-0.6,0.96,0.18,1.08
		c-0.18,1.92-2.04,0.72-2.16,2.64c-2.76-0.12-4.68-2.7-6.6-4.38c-2.34-0.54-3.96-2.94-6.9-3.36c-0.06,0.36-0.78,0.6-1.14,0.66
		c-1.5-0.96-3.54-0.9-4.32-1.86c-5.28,0.66-9-0.66-12.42,2.22c1.62,3,1.5,7.74,1.68,10.74c-1.14,0.24-2.46,0.9-2.82,1.26
		c-4.32-1.44-3.3-6.06-3.96-9.42c-0.06-0.48-0.54-0.9-0.66-1.32c-1.14-4.56,0.42-9.06,0.24-13.62c-0.18-3.96-0.18-7.86,0.24-11.88
		c-0.96,0.54-1.62,0.18-3.12,0.24c-1.32-1.5-1.26-2.82-1.74-5.04c1.38-0.72,3.3,0,3.3-1.32c1.8-0.9,4.2-0.6,5.28-2.64
		c1.86-0.48,3.66-0.12,4.8-1.5c1.14,0.48,1.68-0.48,2.64,0c0.48-0.06,0.48-0.6,0.48-1.14c6.66-0.18,13.26-2.22,17.34,2.88
		c2.1,0.48,3.9,1.38,3.9,3.96C49.74,13.81,50.04,12.55,50.4,13.21z M24.96,15.01c-0.84,0.3-0.78-0.24-1.14-0.24
		c-1.56,1.8-1.56,0.12-3.12,1.8c2.16,2.34,1.08,2.52,1.98,6.18c-0.48,0.48-1.08-0.06-1.74,0c-0.48,2.88,0.24,7.14-0.06,10.8
		c0.36,0.54,1.86-1.14,1.8,0.78c9.48-5.22,18.18-6.78,22.92-19.8c-1.5-3.48-7.62-3.18-10.98-2.46
		C30.9,11.95,28.38,13.81,24.96,15.01z"/>
	<path class="st0" d="M88.56,44.71c-5.76,3.78-11.82,6.18-20.52,6.48c-4.32-1.2-8.34-3.72-8.58-8.88c-0.12-0.24-0.36-0.36-0.66-0.54
		c0.66-4.26-2.4-2.88-4.98-4.32c0-2.1,0.96-3.18,1.62-4.44c1.56,0.42,1.86-0.48,3.18,0.66c0.54,0,0.48-0.84,1.08-0.78
		c0.48-4.38,4.26-7.26,6.3-10.68c1.14-0.72,3-0.72,3.36-2.46c0.3,0.18,0.48,0.36,0.48,0.84c0.54-1.44,2.94-1.2,3.36-1.98
		c2.82,0.72,4.98-0.66,8.16,0.96c0.78,2.22,2.28,1.44,2.64,3.72c0.6,4.2-2.76,6.9-4.98,9.36c-1.14,0.24-1.74-0.3-2.04,1.02
		c-2.4,0.24-3.54,3.6-5.58,3.12c-0.24,0.48-0.6,0.78-0.72,1.38c-0.78-0.78-0.96-0.06-1.8-0.78c-1.2,2.16-5.7,0.54-5.82,3.42
		c0.06-0.36,0.42,1.44,0.42,1.5c1.32,2.64,5.28,3.48,9.24,3c1.8-0.18,3.78-1.38,5.82-2.1c1.32-0.42,2.88-0.54,3.9-0.84
		c0.3-0.12,0.9-1.2,1.2-1.26c0.36-0.12,0.9,0.54,1.2,0.42c1.8-0.36,1.2-1.98,2.34-2.34C88.2,40.93,88.32,42.37,88.56,44.71z
		 M64.5,33.67c3.96-0.06,4.74-2.22,7.98-2.64c0.78-1.44,2.7-2.46,3.78-2.22c0.78-1.92,3.96-2.28,3.9-5.04
		c-6.9-2.34-10.98,2.34-14.7,6.6C65.4,31.03,64.26,33.37,64.5,33.67z"/>
	<path class="st0" d="M92.58,24.67c0.48-2.76-0.66-6.18,2.76-8.28c0-0.48,0-0.9,0-1.38c2.34-1.32,3.78-4.68,6.6-4.86
		c0.24-2.34,1.92-1.98,2.94-3.48c0.48-0.12,1.2-0.12,1.2,0.24c0.84,0.24,0.48-0.78,0.9-0.9c2.04-0.9,4.32,1.62,5.94,0
		c2.82,0.12,4.62,1.56,6.42,3.36c0.78,0.06,1.14-0.24,1.62-0.48c3.3,0.48,3.06,7.08,0,6.72c-1.74-0.18-3.6-6.36-6.3-4.44
		c-0.96-0.12-2.04-0.54-2.04-0.96c-3.66-0.54-3.72,0-5.94,1.38c-0.36,0.18-0.48,0.54-0.48,1.14c-2.4,0.72-4.62,3.66-6.48,6.48
		c-2.28,3.54-4.2,8.64-3.72,13.02c0.54,4.98,2.88,14.7,9.3,13.74c3.06-0.48,7.74-0.96,10.5-2.46c0.78-0.42,1.32-1.38,2.04-1.8
		c0.54-0.3,1.08,0.24,1.74-0.42c1.02-0.96,2.04-2.34,3.6-2.94c0.42-0.12,0.96,0.06,1.56-0.18c1.56-0.66,2.4-1.98,4.26-1.56
		c0.66,0,0,1.44,0.84,1.32c0.72,1.56-2.88,2.7-4.68,4.92c-1.74,2.1-3.9,4.2-7.32,5.34c-0.3,0.06-0.72-0.12-0.9,0
		c-0.9,0.48-0.84,0.72-2.28,1.14c-3.12,0.9-6.12,2.16-9.12,1.56c-5.4-1.08-9.84-3.84-12.3-8.94c-1.38-4.5-4.14-11.76-1.74-16.5
		C91.68,25.09,92.28,24.61,92.58,24.67z"/>
	<path class="st0" d="M158.34,23.47c0.72,0.18,0.48,0.18,1.2,0c0.96,1.32,2.16,2.4,3.06,3.84c2.7,6.84-0.78,12.84-4.02,17.04
		c-0.42,0.06-0.42-0.18-0.48-0.48c-0.9,2.22-3.12,3.18-4.5,4.98c-1.38-0.18-1.92,0.42-2.1,1.44c-2.1,0.54-4.86,1.2-6.42,0.42
		c-0.24,0.18-0.24,0.6-0.72,0.48c0.36-0.84-0.78-0.12-0.72-0.72c-2.94,0.06-4.74-1.14-6.36-3.54c-4.68-1.5-5.4-8.1-4.5-14.46
		c1.2,0.12,0.18-1.56,1.38-2.1c1.08-3.96,4.08-7.92,8.1-9.72c0.78-0.84,1.68-1.74,3.06-1.92c0.66-0.24,1.44-0.78,2.7-0.54
		c3.42-0.42,6.18,0.9,8.22,3.42C157.56,21.61,158.34,22.15,158.34,23.47z M141.84,27.61c-2.22,4.68-5.94,8.22-2.7,15.78
		c1.5,2.46,4.14,1.92,7.62,1.68c0.12-0.66,1.5-0.72,1.62-1.38c2.52,0.42,3.72-2.4,5.88-3.12c0.48-2.04,1.92-3.06,3.3-4.26
		c0.6-2.82,1.14-4.02,0.66-7.44c-1.14-0.66-2.16-2.7-3.96-2.64c0.12-0.78,0.12-0.48,0-1.2c-2.88-0.54-4.5,0.12-6.96-1.38
		C145.26,24.61,144,26.83,141.84,27.61z"/>
	<path class="st0" d="M184.92,21.85c-5.94-0.12-7.98,4.44-10.98,7.68c-0.48,4.26-1.62,6.78,2.76,8.88c5.22,0.9,8.7-2.22,10.92-3.18
		c0.3-2.88-0.06-4.68-0.42-6.84c0.84-0.66,1.44-1.86,2.46-1.98c4.14-0.48,3.42,3.42,3.18,7.5c-0.12,1.44,0.36,3.54,0.6,4.86
		c0.18,0.84,0.78,1.26,1.02,1.92c0.24,0.96,0.06,2.16,0,3.12c-0.06,0.84,0.12,1.86,0.18,2.52c0.06,0.42-0.54,0.48-0.54,0.48
		c0.18,1.68,0.84,4.68,0.72,5.76c0.36,7.32-7.2,9.6-12.72,9.54c-1.38-0.06-5.34,0.06-4.38-1.14c-0.66-0.18-2.58-0.42-3.3-0.78
		c-0.78-0.42-2.76-0.6-2.04-1.62c-1.26-0.12-1.62-0.96-2.34-0.66c-0.9,0.36-0.96-1.44-1.5-2.1c-2.04-2.58-2.76-5.28,1.26-7.44
		c0,0.24,1.14,0.48,1.5,0.48c0.66,6.78,11.16,10.2,17.28,6c2.64-4.56,0.42-10.26-0.3-14.88c-0.24,0.12-1.5,2.4-1.86,0.6
		c-3.66,2.34-12.18,4.56-16.26-0.36c-1.68-2.04-2.64-7.5-1.44-11.28c1.2-3.54,5.1-8.28,9.42-9.9c1.44-0.6,5.64-1.74,6.9-2.1
		c1.2,0.3,1.86,1.14,3.18,1.26c1.32,2.82,4.62,2.28,0.54,5.1C186.96,22.21,186.66,23.53,184.92,21.85z"/>
	<path class="st0" d="M220.2,29.05c0.84,0.08,1.6,0,2.28-0.24c0.44-0.04,0.88-0.04,1.32,0c0.28,0.48,0.6,0.52,0.96,0.12
		c0.64,0.6,1.4,0.84,2.28,0.72c0.44,0.12,0.97,0.25,1.59,0.39c0.62,0.14,0.73,0.41,0.33,0.81c0.24,0.48,0.12,0.72-0.36,0.72
		s-0.84,0.14-1.08,0.42c-2.16,0.48-4.22,1.02-6.18,1.62c-0.68,1.4-1.3,2.76-1.86,4.08c0.8,0.28,1.64,0.42,2.52,0.42
		c1.28,0.16,2.48,0.54,3.6,1.14c1.36,0.56,2.54,1.36,3.54,2.4c-0.12,0.4-0.07,0.64,0.15,0.72c0.22,0.08,0.11,0.24-0.33,0.48
		c-0.24,0.2-0.22,0.5,0.06,0.9c0.28,0.4,0.18,0.66-0.3,0.78c-0.24,0.48-0.68,0.76-1.32,0.84c-1.72-0.52-3.21-1.45-4.47-2.79
		c-1.26-1.34-2.61-2.51-4.05-3.51c-0.88,1.16-1.88,2.36-3,3.6c-0.8,0.72-1.62,1.16-2.46,1.32c-0.52,0.36-0.85,0.21-0.99-0.45
		c-0.14-0.66-0.03-1.17,0.33-1.53c-0.4-0.56-0.34-1.02,0.18-1.38c-0.12-0.96-0.1-1.04,0.06-0.24c0.6,0.28,1.01,0.07,1.23-0.63
		c0.22-0.7,0.55-1.33,0.99-1.89c0.56-0.76,0.86-1.48,0.9-2.16c-0.96,0.48-2,0.86-3.12,1.14c-1.56,0.88-3.3,1.4-5.22,1.56
		c-0.76-0.28-1.44-0.12-2.04,0.48c-0.28,0.4-0.68,0.44-1.2,0.12c-0.52-0.32-0.8-0.56-0.84-0.72c-0.32-0.44-0.66-1.02-1.02-1.74
		c0.08-1.12,0.42-1.78,1.02-1.98c-0.52,1.04-0.28,1.84,0.72,2.4c1.96-0.24,3.8-0.82,5.52-1.74c1.72-0.92,3.48-1.68,5.28-2.28
		c0.44-0.28,0.98-0.5,1.62-0.66c0.64-0.16,1-0.54,1.08-1.14c0.04-0.84-0.28-1.3-0.96-1.38l-1.86-0.12c0.52-0.32,1.1-0.72,1.74-1.2
		C218,28.69,219.12,28.89,220.2,29.05z M216.3,11.05c0.84,0.52,1.82,0.78,2.94,0.78c0.64,0.4,0.86,1.08,0.66,2.04
		c-0.04,1.44-0.18,2.68-0.42,3.72c-0.36,1.4-0.86,2.6-1.5,3.6c-0.36,0.76-0.66,1.44-0.9,2.04c0.92-0.08,1.72-0.6,2.4-1.56
		c0.68-0.28,1.26-0.75,1.74-1.41s1.1-1.01,1.86-1.05c1.32,0.16,2.62,0.44,3.9,0.84c0.6,0.16,0.82,0.54,0.66,1.14
		c-0.44,0.88-1.12,1.4-2.04,1.56c-1.6,0.72-3.16,1.56-4.68,2.52c-1.08,0.56-2.22,1.1-3.42,1.62c-0.36,0.48-0.88,0.72-1.56,0.72
		c-0.76,0.52-1.6,0.8-2.52,0.84c-1.24,1-2.62,1.7-4.14,2.1c0.36-0.4,1.04-0.84,2.04-1.32c0.84-0.52,1.6-0.92,2.28-1.2l4.32-3
		c-0.24-0.44-0.55-0.56-0.93-0.36c-0.38,0.2-0.67,0.2-0.87,0c-0.52,1.04-1.12,1.16-1.8,0.36c-0.56-1.2-0.8-2.48-0.72-3.84
		c-0.12-2.28-0.02-4.58,0.3-6.9c-0.36-0.88-1.06-1.42-2.1-1.62c0.56-1,1.36-1.72,2.4-2.16C215,10.83,215.7,11.01,216.3,11.05z
		 M247.68,18.91c0.72,0.44,1.36,1,1.92,1.68c0.8,0.6,1.16,1.48,1.08,2.64c-0.32,0.28-0.52,0.66-0.6,1.14
		c-0.08,0.48-0.34,0.7-0.78,0.66c-0.28,0.92-0.88,1.46-1.8,1.62c-0.56,0.52-1.14,0.96-1.74,1.32c0.92,0,1.76,0.22,2.52,0.66
		c0.16,0.76,0.44,1.46,0.84,2.1c0.4,1.32-0.2,2.22-1.8,2.7c-0.64,0.28-1.3,0.4-1.98,0.36c-0.76-0.52-1.6-0.86-2.52-1.02
		c-1.12-0.16-2.2-0.48-3.24-0.96c-0.08,0.96-0.52,1.78-1.32,2.46c0.08,0.52-0.2,0.74-0.84,0.66c-0.32-0.44-0.9-0.64-1.74-0.6
		c-1.76-1.12-2.62-2.92-2.58-5.4c-0.32-0.92-1.06-1.4-2.22-1.44c-0.4,0-0.3-0.2,0.3-0.6c0.32-1,1.1-1.3,2.34-0.9
		c1.44,0.56,2.88,1.1,4.32,1.62c0.52,0.16,0.87,0.47,1.05,0.93c0.18,0.46,0.53,0.73,1.05,0.81c1.96-0.8,3.48-2.22,4.56-4.26
		c0.04-0.4,0.18-0.84,0.42-1.32c0.24-0.48,0.04-0.66-0.6-0.54c-0.56-0.08-1.04,0.05-1.44,0.39c-0.4,0.34-0.84,0.37-1.32,0.09
		c-1.28-0.64-2.66-1-4.14-1.08c1.64-1.32,3.42-2.3,5.34-2.94c0.84-0.44,1.76-0.82,2.76-1.14L247.68,18.91z"/>
	<path class="st0" d="M266.64,28.45c0.36-0.36,0.88-0.38,1.56-0.06l3.12,1.2c0.6,0.56,0.94,1.08,1.02,1.56
		c0.44,0.68,0.28,1.22-0.48,1.62c-0.64,1.16-1.12,2.42-1.44,3.78c-0.32,0.76-0.18,1.35,0.42,1.77c0.6,0.42,1.18,0.75,1.74,0.99
		c1.28,0.68,2.46,1.58,3.54,2.7c0.12-0.16,0.28-0.12,0.48,0.12c0.2,0.24,0.36,0.14,0.48-0.3c0.44-0.16,0.66-0.05,0.66,0.33
		s0.2,0.61,0.6,0.69c0.8,0.64,1.56,1.36,2.28,2.16c3.32,0.56,6.64,0.96,9.96,1.2l6.84-0.6c0.52,0.32,1.08,0.4,1.68,0.24
		c2.92,0,5.78,0.28,8.58,0.84c0.8,0.08,1.34,0.56,1.62,1.44c0.04,0.4,0.28,0.78,0.72,1.14c0.2,0.44,0.02,0.64-0.54,0.6
		c-0.28,0.56-0.74,1.04-1.38,1.44c-1.64,0.32-3.24,0.38-4.8,0.18c-3.24-0.2-6.5-0.46-9.78-0.78c-1.96,0.2-3.69-0.1-5.19-0.9
		s-3.09-1.36-4.77-1.68c-1.48-0.48-2.98-0.48-4.5,0c-0.72,0.08-1.38,0.14-1.98,0.18c-0.84-0.08-1.76-0.32-2.76-0.72
		c-0.52-0.2-1.04-0.11-1.56,0.27c-0.52,0.38-1.06,0.35-1.62-0.09c-0.36-0.28-0.56-0.7-0.6-1.26c0.28-0.4,0.42-0.84,0.42-1.32
		c-0.16-1,0.3-1.48,1.38-1.44c0.2-0.44,0.45-0.59,0.75-0.45c0.3,0.14,0.63,0.09,0.99-0.15c-0.32-0.56-0.9-1-1.74-1.32
		c-3.12-1-5.16-3.04-6.12-6.12c0.04-1.6,0.12-3.18,0.24-4.74c-0.96-1-2.02-2-3.18-3C264.24,28.45,265.36,28.61,266.64,28.45z
		 M267.06,17.59c2.44-0.04,4.42,0.8,5.94,2.52c0.44,0.76,0.8,1.56,1.08,2.4c0.08,0.56-0.09,0.84-0.51,0.84s-0.75,0.12-0.99,0.36
		c-0.52-0.04-1.1-0.36-1.74-0.96c-2-1.76-4.06-3.48-6.18-5.16C265.42,17.71,266.22,17.71,267.06,17.59z M294.6,4.69
		c0,0.68,0.36,1.02,1.08,1.02c1.88,0.24,2.66,1.18,2.34,2.82c-1.2,0.6-2.34,1.52-3.42,2.76c-1.36,1.24-2.7,2.66-4.02,4.26
		c-0.48,0.32-0.54,0.58-0.18,0.78l0.9,0.6c1,0.6,1.5,1.52,1.5,2.76c-1.08,1.2-2.16,2.32-3.24,3.36c-0.76,1.12-1.62,2.1-2.58,2.94
		c-0.92,0.96-1.46,2.08-1.62,3.36c0.08,0.8,0.24,1.3,0.48,1.5c0.04-0.32,0.17-0.7,0.39-1.14c0.22-0.44,0.25-0.4,0.09,0.12
		c0.08,0.4,0.14,0.87,0.18,1.41c0.04,0.54,0.34,0.83,0.9,0.87c1.52-0.52,3.08-0.62,4.68-0.3c0.84-0.08,1.35,0.29,1.53,1.11
		c0.18,0.82-0.07,1.43-0.75,1.83c-1.04,0.08-2.02,0.28-2.94,0.6c-0.68,0.32-0.68,0.66,0,1.02c1.2,1.28,2.6,1.96,4.2,2.04
		c0.64-3.32,0.96-6.78,0.96-10.38c0.2-1.96,0.06-3.76-0.42-5.4c-1.08,0.12-2,0.66-2.76,1.62c-0.6,0.52-0.68,0.28-0.24-0.72
		c0.4-0.64,0.8-1.24,1.2-1.8c1.16-0.64,2.3-0.76,3.42-0.36c0.72,0.2,1.22,0.72,1.5,1.56c0.12,0.76,0.14,1.62,0.06,2.58
		c-0.16,2.52-0.18,5.08-0.06,7.68c0.12,0.96,0.14,1.8,0.06,2.52c0.2,2.56,0.26,5.08,0.18,7.56c0.16,0.92-0.12,1.4-0.84,1.44
		c-0.12-0.36-0.34-0.49-0.66-0.39c-0.32,0.1-0.6-0.01-0.84-0.33c-0.52,0.44-1.1,0.58-1.74,0.42c-0.96-0.28-1.88-0.56-2.76-0.84
		c-0.68-0.24-1.32-0.44-1.92-0.6c-0.32-0.32-0.28-0.68,0.12-1.08c0.4-0.4,0.5-0.82,0.3-1.26c-0.6,0.44-1.28,0.44-2.04,0
		c-0.52-0.32-0.86-0.24-1.02,0.24c-0.36-0.16-0.7-0.16-1.02,0c-1.6-1.16-2.44-2.82-2.52-4.98c0.12-1.4,0.23-2.8,0.33-4.2
		c0.1-1.4,0.63-2.56,1.59-3.48c0.92-2.28,1.76-4.56,2.52-6.84c-0.96,0-1.88,0.38-2.76,1.14c-1.2,0.72-2.36,1.36-3.48,1.92
		c-0.92,0.16-1.6-0.02-2.04-0.54c-0.16-0.76-0.32-1.22-0.48-1.38c1.76-1.08,3.44-2.48,5.04-4.2c0.76-0.68,1.5-1.44,2.22-2.28
		l4.14-5.04c0.56-0.48,0.86-1.04,0.9-1.68c-1.8,1.08-3.56,2.02-5.28,2.82c-1.28,0.88-2.46,1.8-3.54,2.76
		c-0.4,0.32-0.78,0.24-1.14-0.24c-1.04-0.48-1.56-1.42-1.56-2.82c-0.48-1.2-0.32-2.36,0.48-3.48c0.76-0.84,1.56-1.44,2.4-1.8
		c0.2,1.2,0.38,2.46,0.54,3.78c3.32-1.16,6.48-2.64,9.48-4.44c0.72-0.44,1.22-0.96,1.5-1.56C294.22,4.37,294.44,4.49,294.6,4.69z
		 M287.04,35.89c0,1.08,0.36,1.24,1.08,0.48c-0.08-0.92-0.46-1.52-1.14-1.8L287.04,35.89z M290.88,26.17
		c0.84-0.24,1.65-0.15,2.43,0.27c0.78,0.42,1.05,1.09,0.81,2.01c-0.28,1.76-1.3,2.28-3.06,1.56c-1-0.8-2.08-1.2-3.24-1.2
		c0.76-0.88,0.5-1.46-0.78-1.74c-0.16-0.48,0.13-0.74,0.87-0.78c0.74-0.04,1.33-0.18,1.77-0.42
		C290.04,26.07,290.44,26.17,290.88,26.17z M288.36,34.57c0.56,0.72,1,0.62,1.32-0.3c-0.68-0.64-1.4-0.94-2.16-0.9
		C287.72,33.89,288,34.29,288.36,34.57z M288.36,38.41c0.88,0.52,1.4,1.32,1.56,2.4c0.76-0.68,0.84-1.42,0.24-2.22
		c-0.28-0.84-0.76-1.34-1.44-1.5C288.44,37.49,288.32,37.93,288.36,38.41z"/>
	<path class="st0" d="M325.26,44.77c0-0.44-0.08-0.75-0.24-0.93c-0.16-0.18-0.32-0.31-0.48-0.39c-0.16-0.08-0.34-0.18-0.54-0.3
		c-0.16-0.04-0.26-0.16-0.3-0.36l0.06-1.68c0-0.96,0.23-1.55,0.69-1.77c0.46-0.22,1.13-0.33,2.01-0.33c0.36,0,0.78,0.04,1.26,0.12
		c0.44,0.16,0.87,0.36,1.29,0.6c0.42,0.24,0.77,0.53,1.05,0.87c0.28,0.34,0.42,0.75,0.42,1.23c0,0.56-0.2,1.21-0.6,1.95
		c-0.4,0.74-0.91,1.43-1.53,2.07c-0.62,0.64-1.28,1.17-1.98,1.59c-0.7,0.42-1.37,0.63-2.01,0.63c-0.04,0-0.06-0.02-0.06-0.06v-0.06
		c0-0.52,0.16-1.04,0.48-1.56C325.1,45.87,325.26,45.33,325.26,44.77z"/>
	<path class="st0" d="M401.22,7.27c1.44,0.04,2.62,0.6,3.54,1.68c0.32,1.76,0.26,3.54-0.18,5.34c-0.32,1.08-0.48,1.98-0.48,2.7
		c-0.48,0.68-0.92,1.34-1.32,1.98c-1,1.48-1.74,3.06-2.22,4.74c-0.36,0.6-0.36,1.2,0,1.8c0.36,0.6,0.94,0.72,1.74,0.36
		c0.52-1.36,1.38-1.8,2.58-1.32c2.92-1.4,5.76-2.48,8.52-3.24c0.8-0.28,1.58-0.42,2.34-0.42c0.32-0.04,0.77-0.11,1.35-0.21
		c0.58-0.1,0.91,0.07,0.99,0.51c1,0.28,1.74,0.9,2.22,1.86c0.52,0.52,0.66,1.18,0.42,1.98c-0.92,0.96-2.04,1.88-3.36,2.76
		c-0.68,0.72-1.52,1.24-2.52,1.56c-0.4,0.44-0.82,0.68-1.26,0.72c-1,0.36-1.84,0.92-2.52,1.68c-0.36,0.32-0.5,0.26-0.42-0.18
		c-0.6,0.08-1.12,0.02-1.56-0.18c-0.24-0.52,0.02-0.9,0.78-1.14c1.72-1.6,3.16-3.4,4.32-5.4c-0.92-0.16-1.78-0.02-2.58,0.42
		c-1.2,0.8-2.48,1.64-3.84,2.52c-0.04,1.88-0.14,3.92-0.3,6.12c-0.2,1.32-0.1,2.56,0.3,3.72c0.84-0.2,1.6-0.42,2.28-0.66
		c1.36-0.12,2.62-0.14,3.78-0.06c1.04-0.16,2.08-0.22,3.12-0.18l4.86,0.96c1,0.48,1.68,1.22,2.04,2.22
		c-0.36,0.68-0.66,1.34-0.9,1.98c-0.28,0.28-0.49,0.64-0.63,1.08c-0.14,0.44-0.37,0.4-0.69-0.12c-1.08,0.2-2.18-0.02-3.3-0.66
		c-0.96-0.48-2.02-1-3.18-1.56c-1.24-0.48-2.42-1.12-3.54-1.92c-1.12-0.8-2.4-1.14-3.84-1.02c-0.12,0.8-0.04,1.6,0.24,2.4
		c0.28,0.8,0.12,1.54-0.48,2.22c-0.04,1.72-0.52,3.18-1.44,4.38c-0.44,0.24-0.61,0.56-0.51,0.96c0.1,0.4-0.07,0.68-0.51,0.84
		c-0.2,0.52-0.42,0.42-0.66-0.3c-0.12-0.76-0.46-1.36-1.02-1.8c-0.16-0.6-0.44-1.28-0.84-2.04c-0.12-0.52-0.04-1.02,0.24-1.5
		c-0.24-1.36-0.62-2.62-1.14-3.78c-0.52,0.44-1.16,0.74-1.92,0.9c-0.76,0.16-1.14,0.66-1.14,1.5c0.04,1.04-0.3,1.76-1.02,2.16
		c-0.56,0.8-1.2,0.74-1.92-0.18c-0.4-0.84-0.54-1.72-0.42-2.64c-0.12-0.8-0.12-1.48,0-2.04c0-1.36,0.42-2.56,1.26-3.6
		c0.04-0.64,0.24-0.52,0.6,0.36c0.6,0.96,1.06,1.98,1.38,3.06c1.16,0.32,2.18,0.32,3.06,0c-0.28-1-0.78-1.9-1.5-2.7
		c0.88,0.6,1.57,1.38,2.07,2.34c0.5,0.96,1.25,1.68,2.25,2.16c0.16-1.52,0.16-3.08,0-4.68c-0.04-0.88-0.1-1.66-0.18-2.34
		c0.16-1.2,0.08-2.24-0.24-3.12c-0.2-0.2-0.24-0.51-0.12-0.93c0.12-0.42-0.02-0.55-0.42-0.39c-0.96,0.24-1.84,0.28-2.64,0.12
		c-0.2-0.84-0.72-1.36-1.56-1.56c0.36-0.68,0.3-1.36-0.18-2.04c0.04-0.68,0-1.26-0.12-1.74c0.4-1.24,0.4-2.5,0-3.78
		c-0.12-2.68-0.08-5.38,0.12-8.1c-0.12-0.8-0.5-0.9-1.14-0.3c-1.28,0.24-1.96,1.06-2.04,2.46l-1.56,6.6c0.16,2.6-0.36,5-1.56,7.2
		c-1.12,3.52-2.32,6.96-3.6,10.32c-0.6,1.2-1.04,2.43-1.32,3.69c-0.28,1.26-0.98,2.31-2.1,3.15c-0.76-0.64-1.14-1.42-1.14-2.34
		c-0.36-0.64-0.66-1.24-0.9-1.8c0.44-0.76,0.48-1.6,0.12-2.52c0.36,0.04,0.45-0.06,0.27-0.3c-0.18-0.24-0.17-0.34,0.03-0.3
		c0.64-0.52,0.96-1.24,0.96-2.16c0.36-1.04,0.2-1.74-0.48-2.1c-1.92,3.08-4.24,5.68-6.96,7.8c-0.24-1.6-0.08-3.16,0.48-4.68
		c0.04-0.8,0.24-1.26,0.6-1.38l2.34-3.78c0.12-0.36,0.34-0.74,0.66-1.14c0.32-0.4,0.3-0.74-0.06-1.02l1.2-1.02
		c1.72-2.76,3.16-5.66,4.32-8.7c1-1.56,0.96-3.1-0.12-4.62c-0.2-0.76-0.34-1.46-0.42-2.1c0.32-0.36,0.39-0.83,0.21-1.41
		c-0.18-0.58-0.11-1.09,0.21-1.53c0.52-0.32,0.83-0.29,0.93,0.09c0.1,0.38,0.33,0.75,0.69,1.11c1.36,0.96,2.58,2.1,3.66,3.42
		c0.12,1.52-0.04,3.02-0.48,4.5c-1.04,3.44-2.54,6.72-4.5,9.84c0.48,1.28,0.82,2.6,1.02,3.96c1.08-1.8,1.76-3.7,2.04-5.7
		c0.68-2.88,1.46-5.58,2.34-8.1c0.56-1.64,1.08-3.3,1.56-4.98c0.44-1.28,1.04-2.52,1.8-3.72c0.76-0.4,1.1-1.06,1.02-1.98l2.52-1.38
		C400.24,6.79,400.78,6.91,401.22,7.27z"/>
	<path class="st0" d="M450.72,14.29c1.04,0.64,1.98,1.34,2.82,2.1c0.6,0.8,0.76,1.66,0.48,2.58c-0.08,1.68-1,2.74-2.76,3.18
		c-1.76,1.48-3.46,3-5.1,4.56c-0.48,1.04-0.74,2.08-0.78,3.12c1.88,1.92,3.08,4.16,3.6,6.72c0.08,0.6,0.02,1.19-0.18,1.77
		c-0.2,0.58-0.44,1.11-0.72,1.59c-0.32,0.68-0.9,0.98-1.74,0.9c-1.04-0.8-1.55-1.79-1.53-2.97c0.02-1.18-0.11-2.29-0.39-3.33
		c-0.44-0.44-0.7-0.96-0.78-1.56c0.08-1.2,0.06-2.4-0.06-3.6c-0.36-0.56-0.22-1.08,0.42-1.56c0.68-0.56,1.3-1.32,1.86-2.28
		c0.92-1.32,1.83-2.62,2.73-3.9s1.27-2.84,1.11-4.68c0.12-0.6-0.02-1.08-0.42-1.44c-0.4-0.36-0.46-0.8-0.18-1.32L450.72,14.29z
		 M466.32,8.95c1,0.52,1.98,1.2,2.94,2.04c0.76,0.4,1.24,0.96,1.44,1.68c0.04,2.2-0.1,4.28-0.42,6.24c0,1-0.2,1.86-0.6,2.58
		c-0.32,1.8-0.8,3.54-1.44,5.22c1-0.08,1.98-0.48,2.94-1.2c1.08-0.72,2.2-0.94,3.36-0.66c2.28,0.2,3.4,1.46,3.36,3.78
		c0.04,0.64,0.04,1.18,0,1.62c-0.12,1.16-0.18,2.28-0.18,3.36c-0.32,0.56-0.37,1.14-0.15,1.74c0.22,0.6,0.23,1.18,0.03,1.74
		c-0.48,0.72-0.62,1.55-0.42,2.49c0.2,0.94,0.08,1.77-0.36,2.49c0.16,1.44-0.22,2.68-1.14,3.72c-0.32,0.76-0.94,1.14-1.86,1.14
		c-1.28,0.24-2.34,0.18-3.18-0.18l-3.84-0.54c-0.56-0.36-1.1-0.5-1.62-0.42c0.16-0.8,0.08-1.54-0.24-2.22
		c-0.32-0.68-0.34-1.38-0.06-2.1c-0.48-0.84-0.72-1.86-0.72-3.06c0.16-0.96,0.3-1.86,0.42-2.7c-0.08-1.44,0.36-2.74,1.32-3.9
		c1.44,0.12,2.74,0.36,3.9,0.72c1.28,0.36,1.94,1.24,1.98,2.64c0.12,1.32-0.4,2.22-1.56,2.7c-1.36-1.08-2.62-2.28-3.78-3.6
		c-0.52,0.6-0.56,1.36-0.12,2.28c-0.16,2,0.68,3.56,2.52,4.68c1.36-0.12,2.66-0.38,3.9-0.78c0.8-0.2,1.22-0.7,1.26-1.5
		c0.04-0.8,0.16-1.5,0.36-2.1c0.36-3.28,0.48-6.46,0.36-9.54c-1.08-0.4-2.12-0.3-3.12,0.3c-1.52,0.32-3.02,0.8-4.5,1.44
		c-0.24,1-0.72,1.76-1.44,2.28c-0.6-2.72-0.66-5.52-0.18-8.4c0.6-2.6,1.06-5.28,1.38-8.04c0.4-1.56,0.32-3.08-0.24-4.56
		c-0.44-0.64-0.92-0.79-1.44-0.45c-0.52,0.34-1.02,0.71-1.5,1.11c-1.16,1.88-2.14,3.86-2.94,5.94c-0.48,1.56-1.06,3.08-1.74,4.56
		l-1.62,4.5c0.72,0.64,1,1.38,0.84,2.22c0,1.28-0.14,2.54-0.42,3.78v5.1c-0.2,1.52-0.72,2.78-1.56,3.78
		c-0.48,0.68-0.92,0.78-1.32,0.3c-0.4-0.48-0.8-0.9-1.2-1.26c-0.8-0.28-1.62-0.62-2.46-1.02c-0.76,0.36-1.06,0.1-0.9-0.78
		c0.64-3.12,1.76-5.96,3.36-8.52c0.28-0.56,0.38-1.02,0.3-1.38c-0.84,0.44-1.76,0.38-2.76-0.18c-0.48-0.52-0.92-1.1-1.32-1.74
		c1.4-0.32,2.72-0.74,3.96-1.26c0.6,0.16,1.24,0.24,1.92,0.24c2.48-3.72,4.52-7.62,6.12-11.7c0.6-2,1.92-3.54,3.96-4.62H466.32z
		 M453.24,35.95c-0.04,0.68,0.18,0.84,0.66,0.48c0.48-0.36,0.64-0.82,0.48-1.38c0.16-1.04,0.04-1.6-0.36-1.68
		C453.54,34.17,453.28,35.03,453.24,35.95z"/>
	<path class="st0" d="M527.52,0.19c0.84-0.08,1.3,0.32,1.38,1.2c0.08,0.68,0.2,1.34,0.36,1.98c-0.76,2-1.56,3.98-2.4,5.94
		c-0.84,2.52-2.2,4.76-4.08,6.72c1.2,0.04,2.32-0.24,3.36-0.84c3.76-1.52,7.68-2.38,11.76-2.58c0.48-0.28,1.02-0.4,1.62-0.36
		c0.52,0.32,1.12,0.52,1.8,0.6c0.36,0.24,0.8,0.32,1.32,0.24c0.48,0.08,0.71,0.38,0.69,0.9c-0.02,0.52,0.21,0.88,0.69,1.08
		c0.04,0.92-0.28,1.4-0.96,1.44c-0.12,0.16-0.09,0.35,0.09,0.57c0.18,0.22,0.09,0.23-0.27,0.03c-0.48,0.44-0.99,0.55-1.53,0.33
		c-0.54-0.22-1.09-0.31-1.65-0.27c-0.6,0.32-1.2,0.43-1.8,0.33c-0.6-0.1-1.12,0.07-1.56,0.51c-2,0.28-3.9,0.6-5.7,0.96
		c-0.64,0-0.91,0.24-0.81,0.72c0.1,0.48,0.17,0.92,0.21,1.32c0.4,1.12,0.28,2.2-0.36,3.24l-2.34,2.94c0.4,0.44,0.84,0.54,1.32,0.3
		c1.16-0.28,1.96,0.16,2.4,1.32c0.76,0.32,1.16,0.9,1.2,1.74c0.28,0.68,0.18,1.27-0.3,1.77c-0.48,0.5-0.9,1.03-1.26,1.59
		c-0.56,0.68-0.36,0.82,0.6,0.42c1.48-0.32,2.84-0.4,4.08-0.24c0.2,0.36,0.53,0.54,0.99,0.54c0.46,0,0.67,0.24,0.63,0.72
		c1.04,0.92,1.28,1.94,0.72,3.06c-0.2,0.4-0.5,0.8-0.9,1.2c-1.8,3.4-3.68,6.76-5.64,10.08c-0.52,1.16-1.22,2.2-2.1,3.12
		c-0.72,0.92-1.64,1.68-2.76,2.28c-0.8,0.8-1.6,1.16-2.4,1.08c-0.32-0.6-0.7-1.24-1.14-1.92c-0.08-0.64,0.18-1.12,0.78-1.44
		c-0.12-0.52,0.08-0.82,0.6-0.9c-0.16-0.6,0.08-0.74,0.72-0.42c1.16-1.28,2.1-2.66,2.82-4.14c0.48-0.52,0.94-1.16,1.38-1.92
		l4.14-6.84c0.6-0.72,0.94-1.46,1.02-2.22c-2.04,0.52-4.04,1.2-6,2.04c-0.4,0.36-1,0.42-1.8,0.18c-0.8,0.28-1.5,0.82-2.1,1.62
		c-0.32-0.48-0.54-0.96-0.66-1.44c-0.24-1.16-0.14-2.4,0.3-3.72c1.56-1.6,3.04-3.34,4.44-5.22c-0.44-0.68-1.05-0.94-1.83-0.78
		c-0.78,0.16-1.43,0.57-1.95,1.23c-0.52,0.66-1.16,1.09-1.92,1.29c-0.48-0.04-1.04,0.1-1.68,0.42c0.08-0.76,0.06-1.56-0.06-2.4
		c0.4-0.64,0.78-1.3,1.14-1.98c0.2-0.28,0.48-0.58,0.84-0.9c1.24-1.32,2.52-2.78,3.84-4.38c0.84-0.68,1.52-1.5,2.04-2.46
		c0.04-0.52,0.26-0.62,0.66-0.3c0.2-1.12,0.96-1.78,2.28-1.98c0.8-0.36,1.34-0.72,1.62-1.08c-0.64,0.08-1.24,0.12-1.8,0.12
		c-2.4,0.12-4.58,0.28-6.54,0.48c-1.28,0.04-2.36,0.04-3.24,0c-0.6,0.52-1.26,0.96-1.98,1.32c-0.32,0.08-0.49,0.27-0.51,0.57
		c-0.02,0.3-0.07,0.27-0.15-0.09c-0.56,1-0.86,2.06-0.9,3.18c-0.16,0.68-0.32,1.28-0.48,1.8c-0.32,0.32-0.6,0.7-0.84,1.14
		c-0.08,0.28-0.12,0.5-0.12,0.66c-0.2,0.56-0.4,1.16-0.6,1.8c-0.88,1.56-1.66,3.06-2.34,4.5c-0.12,0.8-0.32,1.34-0.6,1.62
		c-0.52,1.2-1.14,2.32-1.86,3.36c-1.16,1.68-2.44,3.24-3.84,4.68c-0.64,0.48-1.31,0.98-2.01,1.5c-0.7,0.52-1.43,0.52-2.19,0
		c-0.6-1.08-1.24-2.12-1.92-3.12c0.2-0.36,0.2-0.84,0-1.44c0.36-0.76,0.86-1.42,1.5-1.98c0.64-0.56,1-1.26,1.08-2.1
		c0.2-0.36,0.2-0.7,0-1.02c-0.2-0.32-0.08-0.64,0.36-0.96c-0.24-0.72-0.3-1.54-0.18-2.46c0.12-0.72,0.18-1.4,0.18-2.04
		c0.08-0.84-0.04-1.42-0.36-1.74c-1.24,0.28-2.32-0.02-3.24-0.9c-0.92-0.88-1.9-1.6-2.94-2.16c-0.6-0.28-0.58-0.52,0.06-0.72
		c1.16,0.04,2.38,0.04,3.66,0c0.68-0.12,1.4-0.25,2.16-0.39c0.76-0.14,1.12-0.65,1.08-1.53c0.32-1.72,0.5-3.38,0.54-4.98
		c0.4-1,0.48-1.98,0.24-2.94c-0.48,0.32-1,0.58-1.56,0.78c-1.12,0.36-2.26,0.3-3.42-0.18c-0.68,0-1.2-0.22-1.56-0.66
		c1.72-0.76,3.24-1.86,4.56-3.3c0.4-0.24,0.75-0.62,1.05-1.14c0.3-0.52,0.75-0.7,1.35-0.54c0.72-0.24,1.4-0.16,2.04,0.24
		c0.76-0.16,1.2,0.06,1.32,0.66c0.12,0.52,0.16,0.84,0.12,0.96c0.32,1.4,0.32,2.86,0,4.38c-0.4,2.48-0.7,5.08-0.9,7.8
		c0.84,0.24,1.4,0.76,1.68,1.56c0.4,2.56,0,4.84-1.2,6.84l-0.9,2.22c0.08,0.84,0.12,1.66,0.12,2.46c1.12-0.92,2.04-1.98,2.76-3.18
		c0.56-0.48,1.02-0.86,1.38-1.14c0.2-0.48,0.48-0.94,0.84-1.38c0.4-0.6,0.92-1.22,1.56-1.86c0.24-0.44,0.38-0.84,0.42-1.2
		c0.8-1.2,1.46-2.42,1.98-3.66c0.48-0.84,0.74-1.76,0.78-2.76c-0.68,0.68-1.36,0.84-2.04,0.48c0.08-0.84,0.22-1.52,0.42-2.04
		c0.12-0.56,0.58-0.7,1.38-0.42c1.28-1.32,2.18-2.96,2.7-4.92c0.36-2.68,1.04-5.26,2.04-7.74c-0.32-1.28-0.04-2.4,0.84-3.36
		c0.2-1.12,0.9-1.74,2.1-1.86L527.52,0.19z M513.9,30.25c0.68-0.16,1.22-0.7,1.62-1.62c0.48-0.76,0.58-1.28,0.3-1.56
		C515.1,28.07,514.46,29.13,513.9,30.25z M515.61,26.11c0.1-0.24,0.01-0.28-0.27-0.12C515.42,26.31,515.51,26.35,515.61,26.11z
		 M516.06,26.65c0.08,0.4,0.18,0.44,0.3,0.12c0.12-0.32,0.02-0.44-0.3-0.36V26.65z M517.8,23.35c0.08-0.24,0-0.28-0.24-0.12
		C517.64,23.55,517.72,23.59,517.8,23.35z M522.72,16.75c0.36,0.04,0.45-0.06,0.27-0.3c-0.18-0.24-0.39-0.26-0.63-0.06
		C521.84,16.83,521.96,16.95,522.72,16.75z M523.32,7.06c0.12-0.26,0.06-0.35-0.18-0.27C523.14,7.23,523.2,7.32,523.32,7.06z
		 M523.26,3.55c0.08,1.04,0.08,2.1,0,3.18c0.28-0.24,0.52-0.74,0.72-1.5c0.04-0.4,0.13-0.87,0.27-1.41
		c0.14-0.54-0.05-0.75-0.57-0.63L523.26,3.55z M543.78,15.64c0.08-0.26,0.02-0.29-0.18-0.09C543.64,15.87,543.7,15.9,543.78,15.64z"
		/>
	<path class="st0" d="M581.82,1.63l2.1,0.96c0.6,1.28,0.88,2.72,0.84,4.32c-0.48,1-0.6,2.04-0.36,3.12l2.88-1.08
		c1.36-0.08,2.68-0.48,3.96-1.2c0.12-0.28,0.32-0.23,0.6,0.15c0.28,0.38,0.48,0.31,0.6-0.21c0.8-0.12,1.38,0.09,1.74,0.63
		s0.82,0.95,1.38,1.23c1,1.24,1.08,2.32,0.24,3.24c-0.48,0.48-0.94,0.88-1.38,1.2c-1.24,0.68-2.5,1.36-3.78,2.04
		c-1.32,0.52-2.6,1.16-3.84,1.92c-0.44,0.2-0.5,0.35-0.18,0.45c0.32,0.1,0.54,0.23,0.66,0.39c0.04,1.36-0.62,2.32-1.98,2.88
		c-0.88,0.04-1.28,0.66-1.2,1.86c0.08,0.52,0.33,0.69,0.75,0.51s0.83-0.29,1.23-0.33c3.52-1.08,6.94-2.28,10.26-3.6
		c0.24-0.6,0.66-0.74,1.26-0.42c0.28-0.36,0.64-0.52,1.08-0.48c0.2,0.4,0.22,0.8,0.06,1.2c0.48,0.16,0.94,0.32,1.38,0.48
		c0.92,0.16,1.22,0.64,0.9,1.44c-0.76,0.6-1.6,1.2-2.52,1.8c-2.76,1.04-5.38,2.46-7.86,4.26c-3.04,2.16-5.94,4.54-8.7,7.14
		c0.32,0.36,0.7,0.33,1.14-0.09c0.44-0.42,0.86-0.59,1.26-0.51c1.68-0.84,3.46-1.56,5.34-2.16c0.48,0.08,0.85-0.07,1.11-0.45
		c0.26-0.38,0.59-0.49,0.99-0.33c1-0.2,1.94,0.18,2.82,1.14c0.8,0.88,0.92,1.74,0.36,2.58c-1,1.64-2.16,3.24-3.48,4.8
		c-1.04,1.24-2.22,2.28-3.54,3.12c-0.52-0.28-1-0.34-1.44-0.18c-0.48-0.04-0.92,0.34-1.32,1.14c0.2,0.48,0.74,0.7,1.62,0.66
		c2.48,0.24,4.82,0.82,7.02,1.74c1.28,0.68,2.32,1.7,3.12,3.06c0.48,0.36,0.59,0.77,0.33,1.23c-0.26,0.46-0.23,0.87,0.09,1.23
		c-0.04,0.28-0.24,0.54-0.6,0.78c0.08,0.84-0.24,1.1-0.96,0.78c-2.28-0.8-4.4-2.24-6.36-4.32c-1.32-1.04-2.58-2.1-3.78-3.18
		c-0.92-0.92-1.76-0.92-2.52,0c-0.44,0.12-0.89,0.33-1.35,0.63c-0.46,0.3-0.87,0.23-1.23-0.21c-0.8,0.28-1.06-0.12-0.78-1.2
		c-0.88-0.8-0.88-1.58,0-2.34c1.04-0.36,1.72-1.1,2.04-2.22c0.16-0.6,0.01-0.76-0.45-0.48c-0.46,0.28-0.85,0.5-1.17,0.66
		c-1.24,0.76-2.32,0.7-3.24-0.18c-0.4-0.52-0.58-1.04-0.54-1.56c-0.64-0.76-0.64-1.6,0-2.52c0.52-1.88,1.58-3.54,3.18-4.98
		c0.6-0.8,1.24-1.38,1.92-1.74c2.16-1.88,4.4-3.66,6.72-5.34c0.44-0.4,0.48-0.55,0.12-0.45c-0.36,0.1-0.66,0.25-0.9,0.45
		c-3.8,1.68-7.6,3.34-11.4,4.98c-3.84,1.92-8.04,2.82-12.6,2.7c-0.44-0.24-0.97-0.38-1.59-0.42c-0.62-0.04-0.97-0.38-1.05-1.02
		c-0.48-1.2-0.34-2.18,0.42-2.94c0.48-0.36,0.59-0.25,0.33,0.33c-0.26,0.58-0.41,1.03-0.45,1.35c1.4,1.28,3.14,1.58,5.22,0.9
		c4.96-1.52,9.84-3.42,14.64-5.7c-0.04-0.76-0.3-1.56-0.78-2.4c-0.64-0.28-0.98-0.74-1.02-1.38c-0.2-0.84-0.14-1.44,0.18-1.8
		c-0.28-0.56-0.14-0.94,0.42-1.14c0.12-0.32,0.52-0.56,1.2-0.72c0.16-1.32,0.24-2.66,0.24-4.02c-1.12-0.56-2.34-0.9-3.66-1.02
		c1.36-0.28,2.64-0.8,3.84-1.56l0.24-4.14c0.4-1.4,0.26-2.68-0.42-3.84c-1.4-0.4-2.52-0.04-3.36,1.08c0.6-1.08,1.42-1.98,2.46-2.7
		C580.8,1.91,581.3,1.91,581.82,1.63z M573.72,15.61c0.92,0.64,1.53,1.46,1.83,2.46s0.67,1.94,1.11,2.82
		c0.08,0.44,0.27,0.88,0.57,1.32c0.3,0.44,0.11,0.66-0.57,0.66c-0.56,0.16-1,0.52-1.32,1.08c-1.16-0.96-1.92-2.08-2.28-3.36
		c-0.48-1.16-0.74-2.22-0.78-3.18c-0.12-0.92-0.16-1.8-0.12-2.64C572.76,14.89,573.28,15.17,573.72,15.61z M587.28,37.45
		c-0.56,0.2-0.69,0.5-0.39,0.9c0.3,0.4,0.33,0.78,0.09,1.14c1.08,0.08,1.78-0.52,2.1-1.8l0.6-0.9c0.24-0.32,0.16-0.42-0.24-0.3
		C588.68,36.73,587.96,37.05,587.28,37.45z"/>
	<path class="st0" d="M616.32,45.43c0.32-0.6,0.78-1.12,1.38-1.56c0.6-0.44,1.32-0.66,2.16-0.66c0.56,0,1.09,0.24,1.59,0.72
		c0.5,0.48,0.75,0.96,0.75,1.44c0,0.2-0.05,0.45-0.15,0.75c-0.1,0.3-0.25,0.6-0.45,0.9c-0.2,0.3-0.45,0.54-0.75,0.72
		c-0.3,0.18-0.63,0.27-0.99,0.27c-1.04,0-1.74-0.06-2.1-0.18c-0.36-0.12-0.59-0.29-0.69-0.51c-0.1-0.22-0.17-0.51-0.21-0.87
		C616.86,46.17,616.68,45.83,616.32,45.43z M617.76,32.53c0-2.4,0.1-4.79,0.3-7.17c0.2-2.38,0.3-4.79,0.3-7.23
		c0-0.6-0.05-1.22-0.15-1.86c-0.1-0.64-0.15-1.28-0.15-1.92c0-0.8,0.32-1.34,0.96-1.62c0.64-0.28,1.4-0.42,2.28-0.42
		c0.6,0,1.11,0.16,1.53,0.48c0.42,0.32,0.79,0.64,1.11,0.96v0.6c0.04,0.32,0.06,0.52,0.06,0.6v0.96c0,0.4-0.1,0.72-0.3,0.96
		l-0.18,2.1c-0.04,1.04-0.09,2.13-0.15,3.27c-0.06,1.14-0.13,2.19-0.21,3.15c-0.04,1.04-0.08,1.74-0.12,2.1
		c-0.04,1.8-0.17,3.57-0.39,5.31c-0.22,1.74-0.57,3.47-1.05,5.19c-0.04,0.2-0.14,0.42-0.3,0.66c-0.08,0.32-0.21,0.62-0.39,0.9
		c-0.18,0.28-0.39,0.54-0.63,0.78c-0.16,0.24-0.34,0.36-0.54,0.36c-0.56,0-0.98-0.37-1.26-1.11c-0.28-0.74-0.47-1.58-0.57-2.52
		c-0.1-0.94-0.15-1.85-0.15-2.73V32.53z"/>
</g>
</svg>
