<?xml version="1.0" encoding="utf-8"?>
<!-- Generator: Adobe Illustrator 23.0.3, SVG Export Plug-In . SVG Version: 6.00 Build 0)  -->
<svg version="1.1" id="图层_1" xmlns="http://www.w3.org/2000/svg" xmlns:xlink="http://www.w3.org/1999/xlink" x="0px" y="0px"
	 viewBox="0 0 594 53.94" style="enable-background:new 0 0 594 53.94;" xml:space="preserve">
<style type="text/css">
	.st0{fill:#040000;}
</style>
<g>
	<path class="st0" d="M5.33,23.57c1.68,7.44-1.68,16.8-0.24,23.46c-0.48,1.74-1.62,2.88-3.12,3.66c-0.78,0.3-1.68-0.24-1.02-1.44
		c-1.14,0.36-0.9,0-1.38-0.54c-1.2-1.26-1.26-1.5-0.42-4.2c0.24-0.72-0.84-1.26-0.84-2.1c0.12-2.58,0.96-5.64,1.26-7.98
		c0.18-2.16,0-4.86,0.24-7.26c0.12-1.44,1.44-1.86,0.48-3.84C1.91,21.47,3.53,22.85,5.33,23.57z M-0.97,7.73
		c-0.48,2.58,0.72,4.74,1.98,6.3c4.26,0.54,5.64-3.06,4.98-6.06c-1.26-0.3-0.48-1.8-1.62-1.92C2.99,6.41,2.51,5.93,1.49,5.33
		C1.07,6.53,0.29,7.37-0.97,7.73z"/>
	<path class="st0" d="M48.71,12.77c0.54,0.84-0.36,1.74-0.42,2.64c-0.06,0.24,0.48,0.3,0.42,0.66c-0.84,7.68-8.58,14.28-14.7,18
		c1.5,0.6,2.58,1.02,4.8,1.26c4.14,0.54,6.78,3.66,9.9,5.52c1.8,1.08,2.88,2.46,4.86,3.72c-0.48,0.42-0.6,0.96,0.18,1.08
		c-0.18,1.92-2.04,0.72-2.16,2.64c-2.76-0.12-4.68-2.7-6.6-4.38c-2.34-0.54-3.96-2.94-6.9-3.36c-0.06,0.36-0.78,0.6-1.14,0.66
		c-1.5-0.96-3.54-0.9-4.32-1.86c-5.28,0.66-9-0.66-12.42,2.22c1.62,3,1.5,7.74,1.68,10.74c-1.14,0.24-2.46,0.9-2.82,1.26
		c-4.32-1.44-3.3-6.06-3.96-9.42c-0.06-0.48-0.54-0.9-0.66-1.32c-1.14-4.56,0.42-9.06,0.24-13.62c-0.18-3.96-0.18-7.86,0.24-11.88
		c-0.96,0.54-1.62,0.18-3.12,0.24c-1.32-1.5-1.26-2.82-1.74-5.04c1.38-0.72,3.3,0,3.3-1.32c1.8-0.9,4.2-0.6,5.28-2.64
		c1.86-0.48,3.66-0.12,4.8-1.5c1.14,0.48,1.68-0.48,2.64,0c0.48-0.06,0.48-0.6,0.48-1.14c6.66-0.18,13.26-2.22,17.34,2.88
		c2.1,0.48,3.9,1.38,3.9,3.96C48.05,13.37,48.35,12.11,48.71,12.77z M23.27,14.57c-0.84,0.3-0.78-0.24-1.14-0.24
		c-1.56,1.8-1.56,0.12-3.12,1.8c2.16,2.34,1.08,2.52,1.98,6.18c-0.48,0.48-1.08-0.06-1.74,0c-0.48,2.88,0.24,7.14-0.06,10.8
		c0.36,0.54,1.86-1.14,1.8,0.78c9.48-5.22,18.18-6.78,22.92-19.8c-1.5-3.48-7.62-3.18-10.98-2.46
		C29.21,11.51,26.69,13.37,23.27,14.57z"/>
	<path class="st0" d="M86.87,44.27c-5.76,3.78-11.82,6.18-20.52,6.48c-4.32-1.2-8.34-3.72-8.58-8.88c-0.12-0.24-0.36-0.36-0.66-0.54
		c0.66-4.26-2.4-2.88-4.98-4.32c0-2.1,0.96-3.18,1.62-4.44c1.56,0.42,1.86-0.48,3.18,0.66c0.54,0,0.48-0.84,1.08-0.78
		c0.48-4.38,4.26-7.26,6.3-10.68c1.14-0.72,3-0.72,3.36-2.46c0.3,0.18,0.48,0.36,0.48,0.84c0.54-1.44,2.94-1.2,3.36-1.98
		c2.82,0.72,4.98-0.66,8.16,0.96c0.78,2.22,2.28,1.44,2.64,3.72c0.6,4.2-2.76,6.9-4.98,9.36c-1.14,0.24-1.74-0.3-2.04,1.02
		c-2.4,0.24-3.54,3.6-5.58,3.12c-0.24,0.48-0.6,0.78-0.72,1.38c-0.78-0.78-0.96-0.06-1.8-0.78c-1.2,2.16-5.7,0.54-5.82,3.42
		c0.06-0.36,0.42,1.44,0.42,1.5c1.32,2.64,5.28,3.48,9.24,3c1.8-0.18,3.78-1.38,5.82-2.1c1.32-0.42,2.88-0.54,3.9-0.84
		c0.3-0.12,0.9-1.2,1.2-1.26c0.36-0.12,0.9,0.54,1.2,0.42c1.8-0.36,1.2-1.98,2.34-2.34C86.51,40.49,86.63,41.93,86.87,44.27z
		 M62.81,33.23c3.96-0.06,4.74-2.22,7.98-2.64c0.78-1.44,2.7-2.46,3.78-2.22c0.78-1.92,3.96-2.28,3.9-5.04
		c-6.9-2.34-10.98,2.34-14.7,6.6C63.71,30.59,62.57,32.93,62.81,33.23z"/>
	<path class="st0" d="M124.79,11.93c0.42,1.32,1.08,0.96,1.38,2.16c0.42,1.74,0.48,1.56,0.66,3.18c0.18,1.44,2.04,3.48,1.2,4.68
		c1.62,1.44-0.6,5.1,1.62,6.24c0.18,0.66-0.48,0.48-0.72,0.72c0.66,0.3,1.02,0.9,1.2,1.68c-0.18,0.6-0.78,0.54-0.78,0.54
		c0.06,0.9,0.3,0.54,1.02,0.18c0.3,1.08-0.3,4.08,1.14,4.56c-0.66,0.78,0.06,1.5-0.66,1.92c0.24,0.36,0.12,0.48,0.84,0.36
		c0.72,1.14-0.24,0.78-0.24,1.26c0.3,0.72,0.72-0.06,1.02,0.54c-1.26,0.3,0.96,1.56-0.54,1.86c1.56,1.2,0.72,1.62,1.68,2.94
		c-0.24,0-0.48,0-0.66,0c0.18,0.84,0.48,1.56,0.9,2.16c-0.42,0.06-0.48-0.3-0.9-0.24c-0.06,1.02,0.72,1.02,0.18,1.92
		c-0.42-0.48-0.72,0.12-0.42,0.96c-0.84-0.48-3.06,0.42-4.14,0.54c-2.4-1.74,0.96-5.7-2.7-8.04c-1.08-6.18-0.48-7.8-1.5-13.86
		c-0.18-0.3-0.66-1.2-1.08-1.26c0.42-0.24-0.66-9.42-1.02-10.08c0.12,0.24-1.92,5.16-1.26,6.36c-0.3,0.96-1.02,0.54-1.38,1.26
		c0.54,3.9-2.1,7.2-3.48,11.34c-0.06,2.58,0.06,4.68-0.6,6.12c-0.3,0-1.56,1.74-1.62,1.92c-0.84-0.24-0.78-1.68-1.98-1.56
		c-2.94-3.9-4.44-9.36-6.06-14.7c-1.68-4.08-3.36-9.3-4.26-13.14c-0.84,0.48-0.18,4.98-0.42,5.76c-0.3-0.12-0.48-0.18-0.48-0.6
		c-0.54,4.26-1.14,6.42-1.38,10.62c-0.6-0.06-0.24,2.94-0.96,2.7c1.26,3.9-2.16,5.58-2.04,9.36c-0.54,0.06-0.42,0.78-1.2,0.72
		c0.06,1.38-0.36,2.28-0.18,3.84c-1.14,0.84-1.8,2.16-2.34,3.6c-2.28,0.66-2.4-1.5-3.96-2.16c1.32-5.88,3.54-12.3,4.38-18.78
		c0.78,0.12,0.12-1.14,0.96-0.96c-0.48-3.36,1.14-7.44,1.86-12.48c0.12-0.96-0.12-1.92,0-2.88c0.36-3,1.68-4.44,1.8-7.2
		c0.96,0.66,0.48-0.84,1.2-1.02c0.06-0.42,0.9-0.6,0.96,0.54c0.72,0.12,0.6-0.6,0.84-0.96c3.6,0.72,5.34,3.12,5.34,7.86
		c0.18,0.24,0.78,0.9,1.08,1.02c0.72,5.58,3,13.2,4.92,17.46c2.22-2.46,4.32-10.32,4.68-11.64c0.3-1.02-0.12-2.88,0.18-3.96
		c0.48-1.62,1.8-3.24,2.1-5.04c0.18-0.9,0.06-1.02,0.9-2.1C122.69,8.33,123.71,8.15,124.79,11.93z"/>
	<path class="st0" d="M163.31,23.03c0.72,0.18,0.48,0.18,1.2,0c0.96,1.32,2.16,2.4,3.06,3.84c2.7,6.84-0.78,12.84-4.02,17.04
		c-0.42,0.06-0.42-0.18-0.48-0.48c-0.9,2.22-3.12,3.18-4.5,4.98c-1.38-0.18-1.92,0.42-2.1,1.44c-2.1,0.54-4.86,1.2-6.42,0.42
		c-0.24,0.18-0.24,0.6-0.72,0.48c0.36-0.84-0.78-0.12-0.72-0.72c-2.94,0.06-4.74-1.14-6.36-3.54c-4.68-1.5-5.4-8.1-4.5-14.46
		c1.2,0.12,0.18-1.56,1.38-2.1c1.08-3.96,4.08-7.92,8.1-9.72c0.78-0.84,1.68-1.74,3.06-1.92c0.66-0.24,1.44-0.78,2.7-0.54
		c3.42-0.42,6.18,0.9,8.22,3.42C162.53,21.17,163.31,21.71,163.31,23.03z M146.81,27.17c-2.22,4.68-5.94,8.22-2.7,15.78
		c1.5,2.46,4.14,1.92,7.62,1.68c0.12-0.66,1.5-0.72,1.62-1.38c2.52,0.42,3.72-2.4,5.88-3.12c0.48-2.04,1.92-3.06,3.3-4.26
		c0.6-2.82,1.14-4.02,0.66-7.44c-1.14-0.66-2.16-2.7-3.96-2.64c0.12-0.78,0.12-0.48,0-1.2c-2.88-0.54-4.5,0.12-6.96-1.38
		C150.23,24.17,148.97,26.39,146.81,27.17z"/>
	<path class="st0" d="M180.47,5.69c3.36,0.52,4.93,2.06,4.71,4.62c-0.22,2.56-0.91,4.96-2.07,7.2c-1.04,2.68-0.14,3.54,2.7,2.58
		c1.6-0.44,2.35-0.21,2.25,0.69c-0.1,0.9-0.71,1.75-1.83,2.55c-2.2,0.52-3.47,1.7-3.81,3.54c-0.34,1.84-0.35,3.82-0.03,5.94
		c3.44-1.48,6.49-3.7,9.15-6.66c2.66-2.96,5.67-5.36,9.03-7.2c1.84-1.36,3.8-1.97,5.88-1.83c2.08,0.14,3.66,1.29,4.74,3.45
		c-3.52,4.52-7.74,8.36-12.66,11.52c-1.36,0.88-1.59,1.24-0.69,1.08c0.9-0.16,1.81-0.56,2.73-1.2c2.52-1.92,5.26-2.36,8.22-1.32
		c-0.16,0.52-0.74,1.07-1.74,1.65c-1,0.58-1.9,1.05-2.7,1.41c-1.68,0.96-3.49,1.42-5.43,1.38c-1.94-0.04-3.07,0.96-3.39,3
		c-0.44,2.76,0.58,4.36,3.06,4.8c2.48,0.44,4.82,0.36,7.02-0.24c3.84-0.12,7.24-1.23,10.2-3.33c2.96-2.1,4.5-5.17,4.62-9.21
		l0.78,7.14c0.76,0.56,1.33,1.42,1.71,2.58c0.38,1.16,0.05,2.18-0.99,3.06c-3.76,1.44-7.63,2.12-11.61,2.04
		c-3.98-0.08-8.01-0.18-12.09-0.3c-3.36-0.48-4.92-2.23-4.68-5.25c0.24-3.02-0.32-5.59-1.68-7.71c-1.76-0.4-2.23-0.9-1.41-1.5
		c0.82-0.6,1.87-0.62,3.15-0.06c2.36,1.44,3.62,0.66,3.78-2.34c-0.8-3.2-2.26-3.98-4.38-2.34c-2.12,1.64-3.94,3.32-5.46,5.04
		c-4.64,3-6.18,7.24-4.62,12.72c0.4,1.2,0.42,2.62,0.06,4.26c-0.36,1.64-1.04,1.8-2.04,0.48c-0.56-1.52-1.56-2.31-3-2.37
		c-1.44-0.06-2.28-0.75-2.52-2.07c-1.44-0.92-1.99-1.95-1.65-3.09c0.34-1.14,1.25-2.07,2.73-2.79c1.96-0.92,3.12-2.25,3.48-3.99
		c0.36-1.74,0.44-3.63,0.24-5.67c-1.16,1-2.65,1.41-4.47,1.23c-1.82-0.18-2.79-1.31-2.91-3.39c2.24,0.2,4.58-0.62,7.02-2.46
		c1.24-4.4,1.88-8.92,1.92-13.56c-0.04-1.12-0.48-1.98-1.32-2.58c-0.84-0.6-0.9-1.1-0.18-1.5H180.47z M176.87,41.12
		c-1.16,0.22-1.14,0.81,0.06,1.77c1.4,1.04,2.39,1,2.97-0.12c0.58-1.12,0.49-2.12-0.27-3C178.95,40.45,178.03,40.9,176.87,41.12z
		 M199.79,23.75c-1.4-0.48-2.07-0.46-2.01,0.06c0.06,0.52,0.71,1.06,1.95,1.62c0.84,1.48,1.76,1.49,2.76,0.03
		c1-1.46,1.04-2.23,0.12-2.31L199.79,23.75z"/>
	<path class="st0" d="M270.71,4.55c0.88-0.08,1.46,0.18,1.74,0.78c0.64,0.36,1.34,0.76,2.1,1.2c0.76,0.44,1.04,1.1,0.84,1.98
		c-0.56,1.36-1.44,2.54-2.64,3.54c-0.92,0.84-1.9,1.64-2.94,2.4c1.12,0.28,2.24,0.6,3.36,0.96c-0.44,0.64-0.9,1.24-1.38,1.8
		c-2.32,0-4.46,0.38-6.42,1.14c-1.76,0.96-3.42,0.88-4.98-0.24l-0.84,2.94c-1.28,5.16-2.86,10.18-4.74,15.06
		c-1,3.48-2.36,6.76-4.08,9.84c-0.76,1.48-1.68,2.84-2.76,4.08c-0.64,0.92-1.32,0.92-2.04,0c1.2-0.8,2.04-1.96,2.52-3.48
		c0.4-0.96,0.84-1.96,1.32-3c-0.16-0.56-0.58-0.58-1.26-0.06c-1.36-0.28-2.72-0.52-4.08-0.72c-0.52,0.2-0.81,0.05-0.87-0.45
		c-0.06-0.5-0.25-0.87-0.57-1.11c-0.68-2.04-1.46-4.08-2.34-6.12c-0.52-0.72-0.58-1.5-0.18-2.34c-0.4-0.84-0.28-1.62,0.36-2.34
		c1.84-1.8,3.88-3.34,6.12-4.62c0.08-0.96,0.2-2.12,0.36-3.48c0.08-0.8,0.02-1.38-0.18-1.74c-1.92,0.96-3.74,2.14-5.46,3.54
		c-0.6,0.52-1.26,0.96-1.98,1.32c-0.52,0.6-1.18,0.94-1.98,1.02c-1-0.72-1.48-1.7-1.44-2.94c-0.68-0.84-0.8-1.76-0.36-2.76
		c1.28-1.32,2.52-2.58,3.72-3.78c-0.2,1.36-0.32,2.72-0.36,4.08c1.72-0.52,3.3-1.3,4.74-2.34c0.96-0.4,1.7-0.96,2.22-1.68
		c0.52-0.08,0.98-0.26,1.38-0.54l0.66-8.22c0.08-1.28-0.36-2.02-1.32-2.22c-0.24-0.2-0.59-0.25-1.05-0.15
		c-0.46,0.1-0.59-0.01-0.39-0.33c1-0.36,2.12-0.52,3.36-0.48c1.92,0.16,2.74,1.3,2.46,3.42c-0.2,0.76-0.42,1.56-0.66,2.4
		c-0.16,1.52-0.28,3.08-0.36,4.68c-0.04,0.64,0.17,0.9,0.63,0.78c0.46-0.12,0.93-0.2,1.41-0.24c-0.52,0.68-1,1.4-1.44,2.16
		c-0.48,0.68-0.68,1.5-0.6,2.46c0.12,0.84,0.1,1.68-0.06,2.52c-0.12,0.68,0.02,0.91,0.42,0.69c0.4-0.22,0.78-0.45,1.14-0.69
		c0.44-0.64,0.74-0.78,0.9-0.42c-0.6,1.48-1.4,2.88-2.4,4.2l-0.06,8.64c-0.08,1.32-0.06,2.64,0.06,3.96
		c-0.04,0.36-0.02,0.78,0.06,1.26c0.08,0.48,0.26,0.5,0.54,0.06c1.56-3.84,3-7.7,4.32-11.58c0.76-2.44,1.56-4.8,2.4-7.08
		c0.56-1.48,0.96-3.02,1.2-4.62c0.24-0.24,0.18-0.46-0.18-0.66c-0.36-0.2-0.38-0.3-0.06-0.3c0.16-0.12,0.24-0.4,0.24-0.84
		c0.92-0.08,1.64-0.38,2.16-0.9c0.44,0.72,0.5,1.4,0.18,2.04c0.92,0.28,1.9,0.18,2.94-0.3c0.6-0.36,1-0.8,1.2-1.32
		c0.68-0.56,1.26-1.32,1.74-2.28s0.82-1.94,1.02-2.94c-0.76,0.24-1.5,0.38-2.22,0.42c-1.52,0.4-2.82-0.04-3.9-1.32
		c-0.72-0.32-0.94-0.74-0.66-1.26c2.32-0.44,4.64-1.14,6.96-2.1c0.56-0.76,1.28-1.36,2.16-1.8L270.71,4.55z M243.17,32.93
		c-0.56,0.28-0.59,0.57-0.09,0.87c0.5,0.3,0.87,0.61,1.11,0.93c0.4,0.96,1.08,1.72,2.04,2.28c0.28-1.2,0.44-2.48,0.48-3.84
		c-0.04-0.32-0.04-0.72,0-1.2c0.04-0.48-0.12-0.68-0.48-0.6C245.11,31.73,244.09,32.25,243.17,32.93z M249.95,42.83
		c0.12-0.24,0.06-0.32-0.18-0.24C249.77,42.99,249.83,43.07,249.95,42.83z M272.21,18.77c0.32,0.52,0.74,0.74,1.26,0.66
		c0.52-0.08,0.94,0.06,1.26,0.42c-0.24,1.48-1.08,2.34-2.52,2.58c-2.08,1.64-4.06,3.36-5.94,5.16c0.88,0.16,1.68-0.12,2.4-0.84
		c0.56-0.84,1.34-1.54,2.34-2.1c0.92-0.32,1.86-0.6,2.82-0.84c0.96,0.6,2.02,1,3.18,1.2c0.84,0.6,1.42,1.38,1.74,2.34
		c0.12,1.16-0.33,1.86-1.35,2.1s-1.83,0.02-2.43-0.66c-0.64,0.4-1.32,0.8-2.04,1.2c-0.6,0.04-0.76,0.26-0.48,0.66
		c0.28,0.4,0.38,0.8,0.3,1.2c-0.24,0.76,0.04,1.06,0.84,0.9c0.36,0.04,0.81,0.03,1.35-0.03c0.54-0.06,0.75,0.09,0.63,0.45
		c-0.64,0.72-1.12,1.48-1.44,2.28c-0.8,0.44-1.2,1.1-1.2,1.98c0.12,0.92,0.12,1.84,0,2.76c1.12,0.2,2.26,0.26,3.42,0.18
		c1.68,0.16,3.04,0.7,4.08,1.62c0.4,0.2,0.42,0.46,0.06,0.78c-0.36,0.32-0.34,0.64,0.06,0.96c-1.04,1.16-2.26,1.52-3.66,1.08
		c-1.28-0.28-2.52-0.44-3.72-0.48c-0.88-0.4-1.86-0.46-2.94-0.18c-1.28-0.04-2.61,0.14-3.99,0.54c-1.38,0.4-2.79,0.54-4.23,0.42
		c-1.04,1-2.1,0.84-3.18-0.48c-0.64-0.4-0.64-0.5,0-0.3c0.56,0.04,0.69-0.1,0.39-0.42c-0.3-0.32-0.49-0.52-0.57-0.6
		c1.44,0.56,2.98,0.52,4.62-0.12c2-0.36,3.86-1.16,5.58-2.4c0.4-0.92,0.42-1.84,0.06-2.76c-1.36,0.24-2.76,0.18-4.2-0.18
		c-1.28,0.4-1.92,0.06-1.92-1.02c0.68,0.24,1.16,0.06,1.44-0.54c-0.52,0.2-0.82,0.06-0.9-0.42c1.04,0.28,2.15,0.2,3.33-0.24
		c1.18-0.44,1.93-1.04,2.25-1.8c0.24-1.24,0.02-2.14-0.66-2.7c-1.96-0.68-3.68-0.16-5.16,1.56c-0.76-0.08-1.4-0.4-1.92-0.96
		c-0.08-0.92-0.18-1.72-0.3-2.4c0.64-0.48,1.02-1,1.14-1.56c1.28-1.64,2.7-3.2,4.26-4.68c-0.64-0.2-1.36-0.28-2.16-0.24
		c-0.4-0.04-0.91,0-1.53,0.12c-0.62,0.12-0.75,0-0.39-0.36c2.04-0.76,4.14-1.52,6.3-2.28c0.84-0.12,1.28-0.64,1.32-1.56
		c0.6,0.04,1.12-0.18,1.56-0.66L272.21,18.77z M260.75,17.93c0.48,0.12,0.68,0.02,0.6-0.3c-0.08-0.32-0.28-0.4-0.6-0.24
		C260.51,17.59,260.51,17.77,260.75,17.93z M271.01,26.75c0.72,0.68,0.68,1.48-0.12,2.4c0.84,0.16,1.36-0.3,1.56-1.38
		c0.4-1.24-0.08-1.84-1.44-1.8V26.75z"/>
	<path class="st0" d="M296.87,44.33c0-0.44-0.08-0.75-0.24-0.93c-0.16-0.18-0.32-0.31-0.48-0.39c-0.16-0.08-0.34-0.18-0.54-0.3
		c-0.16-0.04-0.26-0.16-0.3-0.36l0.06-1.68c0-0.96,0.23-1.55,0.69-1.77c0.46-0.22,1.13-0.33,2.01-0.33c0.36,0,0.78,0.04,1.26,0.12
		c0.44,0.16,0.87,0.36,1.29,0.6c0.42,0.24,0.77,0.53,1.05,0.87c0.28,0.34,0.42,0.75,0.42,1.23c0,0.56-0.2,1.21-0.6,1.95
		c-0.4,0.74-0.91,1.43-1.53,2.07c-0.62,0.64-1.28,1.17-1.98,1.59c-0.7,0.42-1.37,0.63-2.01,0.63c-0.04,0-0.06-0.02-0.06-0.06v-0.06
		c0-0.52,0.16-1.04,0.48-1.56C296.71,45.43,296.87,44.89,296.87,44.33z"/>
	<path class="st0" d="M372.83,6.83c1.44,0.04,2.62,0.6,3.54,1.68c0.32,1.76,0.26,3.54-0.18,5.34c-0.32,1.08-0.48,1.98-0.48,2.7
		c-0.48,0.68-0.92,1.34-1.32,1.98c-1,1.48-1.74,3.06-2.22,4.74c-0.36,0.6-0.36,1.2,0,1.8c0.36,0.6,0.94,0.72,1.74,0.36
		c0.52-1.36,1.38-1.8,2.58-1.32c2.92-1.4,5.76-2.48,8.52-3.24c0.8-0.28,1.58-0.42,2.34-0.42c0.32-0.04,0.77-0.11,1.35-0.21
		c0.58-0.1,0.91,0.07,0.99,0.51c1,0.28,1.74,0.9,2.22,1.86c0.52,0.52,0.66,1.18,0.42,1.98c-0.92,0.96-2.04,1.88-3.36,2.76
		c-0.68,0.72-1.52,1.24-2.52,1.56c-0.4,0.44-0.82,0.68-1.26,0.72c-1,0.36-1.84,0.92-2.52,1.68c-0.36,0.32-0.5,0.26-0.42-0.18
		c-0.6,0.08-1.12,0.02-1.56-0.18c-0.24-0.52,0.02-0.9,0.78-1.14c1.72-1.6,3.16-3.4,4.32-5.4c-0.92-0.16-1.78-0.02-2.58,0.42
		c-1.2,0.8-2.48,1.64-3.84,2.52c-0.04,1.88-0.14,3.92-0.3,6.12c-0.2,1.32-0.1,2.56,0.3,3.72c0.84-0.2,1.6-0.42,2.28-0.66
		c1.36-0.12,2.62-0.14,3.78-0.06c1.04-0.16,2.08-0.22,3.12-0.18l4.86,0.96c1,0.48,1.68,1.22,2.04,2.22
		c-0.36,0.68-0.66,1.34-0.9,1.98c-0.28,0.28-0.49,0.64-0.63,1.08c-0.14,0.44-0.37,0.4-0.69-0.12c-1.08,0.2-2.18-0.02-3.3-0.66
		c-0.96-0.48-2.02-1-3.18-1.56c-1.24-0.48-2.42-1.12-3.54-1.92c-1.12-0.8-2.4-1.14-3.84-1.02c-0.12,0.8-0.04,1.6,0.24,2.4
		c0.28,0.8,0.12,1.54-0.48,2.22c-0.04,1.72-0.52,3.18-1.44,4.38c-0.44,0.24-0.61,0.56-0.51,0.96c0.1,0.4-0.07,0.68-0.51,0.84
		c-0.2,0.52-0.42,0.42-0.66-0.3c-0.12-0.76-0.46-1.36-1.02-1.8c-0.16-0.6-0.44-1.28-0.84-2.04c-0.12-0.52-0.04-1.02,0.24-1.5
		c-0.24-1.36-0.62-2.62-1.14-3.78c-0.52,0.44-1.16,0.74-1.92,0.9c-0.76,0.16-1.14,0.66-1.14,1.5c0.04,1.04-0.3,1.76-1.02,2.16
		c-0.56,0.8-1.2,0.74-1.92-0.18c-0.4-0.84-0.54-1.72-0.42-2.64c-0.12-0.8-0.12-1.48,0-2.04c0-1.36,0.42-2.56,1.26-3.6
		c0.04-0.64,0.24-0.52,0.6,0.36c0.6,0.96,1.06,1.98,1.38,3.06c1.16,0.32,2.18,0.32,3.06,0c-0.28-1-0.78-1.9-1.5-2.7
		c0.88,0.6,1.57,1.38,2.07,2.34c0.5,0.96,1.25,1.68,2.25,2.16c0.16-1.52,0.16-3.08,0-4.68c-0.04-0.88-0.1-1.66-0.18-2.34
		c0.16-1.2,0.08-2.24-0.24-3.12c-0.2-0.2-0.24-0.51-0.12-0.93c0.12-0.42-0.02-0.55-0.42-0.39c-0.96,0.24-1.84,0.28-2.64,0.12
		c-0.2-0.84-0.72-1.36-1.56-1.56c0.36-0.68,0.3-1.36-0.18-2.04c0.04-0.68,0-1.26-0.12-1.74c0.4-1.24,0.4-2.5,0-3.78
		c-0.12-2.68-0.08-5.38,0.12-8.1c-0.12-0.8-0.5-0.9-1.14-0.3c-1.28,0.24-1.96,1.06-2.04,2.46l-1.56,6.6c0.16,2.6-0.36,5-1.56,7.2
		c-1.12,3.52-2.32,6.96-3.6,10.32c-0.6,1.2-1.04,2.43-1.32,3.69c-0.28,1.26-0.98,2.31-2.1,3.15c-0.76-0.64-1.14-1.42-1.14-2.34
		c-0.36-0.64-0.66-1.24-0.9-1.8c0.44-0.76,0.48-1.6,0.12-2.52c0.36,0.04,0.45-0.06,0.27-0.3c-0.18-0.24-0.17-0.34,0.03-0.3
		c0.64-0.52,0.96-1.24,0.96-2.16c0.36-1.04,0.2-1.74-0.48-2.1c-1.92,3.08-4.24,5.68-6.96,7.8c-0.24-1.6-0.08-3.16,0.48-4.68
		c0.04-0.8,0.24-1.26,0.6-1.38l2.34-3.78c0.12-0.36,0.34-0.74,0.66-1.14c0.32-0.4,0.3-0.74-0.06-1.02l1.2-1.02
		c1.72-2.76,3.16-5.66,4.32-8.7c1-1.56,0.96-3.1-0.12-4.62c-0.2-0.76-0.34-1.46-0.42-2.1c0.32-0.36,0.39-0.83,0.21-1.41
		c-0.18-0.58-0.11-1.09,0.21-1.53c0.52-0.32,0.83-0.29,0.93,0.09c0.1,0.38,0.33,0.75,0.69,1.11c1.36,0.96,2.58,2.1,3.66,3.42
		c0.12,1.52-0.04,3.02-0.48,4.5c-1.04,3.44-2.54,6.72-4.5,9.84c0.48,1.28,0.82,2.6,1.02,3.96c1.08-1.8,1.76-3.7,2.04-5.7
		c0.68-2.88,1.46-5.58,2.34-8.1c0.56-1.64,1.08-3.3,1.56-4.98c0.44-1.28,1.04-2.52,1.8-3.72c0.76-0.4,1.1-1.06,1.02-1.98l2.52-1.38
		C371.85,6.35,372.39,6.47,372.83,6.83z"/>
	<path class="st0" d="M422.33,13.85c1.04,0.64,1.98,1.34,2.82,2.1c0.6,0.8,0.76,1.66,0.48,2.58c-0.08,1.68-1,2.74-2.76,3.18
		c-1.76,1.48-3.46,3-5.1,4.56c-0.48,1.04-0.74,2.08-0.78,3.12c1.88,1.92,3.08,4.16,3.6,6.72c0.08,0.6,0.02,1.19-0.18,1.77
		c-0.2,0.58-0.44,1.11-0.72,1.59c-0.32,0.68-0.9,0.98-1.74,0.9c-1.04-0.8-1.55-1.79-1.53-2.97c0.02-1.18-0.11-2.29-0.39-3.33
		c-0.44-0.44-0.7-0.96-0.78-1.56c0.08-1.2,0.06-2.4-0.06-3.6c-0.36-0.56-0.22-1.08,0.42-1.56c0.68-0.56,1.3-1.32,1.86-2.28
		c0.92-1.32,1.83-2.62,2.73-3.9s1.27-2.84,1.11-4.68c0.12-0.6-0.02-1.08-0.42-1.44c-0.4-0.36-0.46-0.8-0.18-1.32L422.33,13.85z
		 M437.93,8.51c1,0.52,1.98,1.2,2.94,2.04c0.76,0.4,1.24,0.96,1.44,1.68c0.04,2.2-0.1,4.28-0.42,6.24c0,1-0.2,1.86-0.6,2.58
		c-0.32,1.8-0.8,3.54-1.44,5.22c1-0.08,1.98-0.48,2.94-1.2c1.08-0.72,2.2-0.94,3.36-0.66c2.28,0.2,3.4,1.46,3.36,3.78
		c0.04,0.64,0.04,1.18,0,1.62c-0.12,1.16-0.18,2.28-0.18,3.36c-0.32,0.56-0.37,1.14-0.15,1.74c0.22,0.6,0.23,1.18,0.03,1.74
		c-0.48,0.72-0.62,1.55-0.42,2.49c0.2,0.94,0.08,1.77-0.36,2.49c0.16,1.44-0.22,2.68-1.14,3.72c-0.32,0.76-0.94,1.14-1.86,1.14
		c-1.28,0.24-2.34,0.18-3.18-0.18l-3.84-0.54c-0.56-0.36-1.1-0.5-1.62-0.42c0.16-0.8,0.08-1.54-0.24-2.22
		c-0.32-0.68-0.34-1.38-0.06-2.1c-0.48-0.84-0.72-1.86-0.72-3.06c0.16-0.96,0.3-1.86,0.42-2.7c-0.08-1.44,0.36-2.74,1.32-3.9
		c1.44,0.12,2.74,0.36,3.9,0.72c1.28,0.36,1.94,1.24,1.98,2.64c0.12,1.32-0.4,2.22-1.56,2.7c-1.36-1.08-2.62-2.28-3.78-3.6
		c-0.52,0.6-0.56,1.36-0.12,2.28c-0.16,2,0.68,3.56,2.52,4.68c1.36-0.12,2.66-0.38,3.9-0.78c0.8-0.2,1.22-0.7,1.26-1.5
		c0.04-0.8,0.16-1.5,0.36-2.1c0.36-3.28,0.48-6.46,0.36-9.54c-1.08-0.4-2.12-0.3-3.12,0.3c-1.52,0.32-3.02,0.8-4.5,1.44
		c-0.24,1-0.72,1.76-1.44,2.28c-0.6-2.72-0.66-5.52-0.18-8.4c0.6-2.6,1.06-5.28,1.38-8.04c0.4-1.56,0.32-3.08-0.24-4.56
		c-0.44-0.64-0.92-0.79-1.44-0.45c-0.52,0.34-1.02,0.71-1.5,1.11c-1.16,1.88-2.14,3.86-2.94,5.94c-0.48,1.56-1.06,3.08-1.74,4.56
		l-1.62,4.5c0.72,0.64,1,1.38,0.84,2.22c0,1.28-0.14,2.54-0.42,3.78v5.1c-0.2,1.52-0.72,2.78-1.56,3.78
		c-0.48,0.68-0.92,0.78-1.32,0.3c-0.4-0.48-0.8-0.9-1.2-1.26c-0.8-0.28-1.62-0.62-2.46-1.02c-0.76,0.36-1.06,0.1-0.9-0.78
		c0.64-3.12,1.76-5.96,3.36-8.52c0.28-0.56,0.38-1.02,0.3-1.38c-0.84,0.44-1.76,0.38-2.76-0.18c-0.48-0.52-0.92-1.1-1.32-1.74
		c1.4-0.32,2.72-0.74,3.96-1.26c0.6,0.16,1.24,0.24,1.92,0.24c2.48-3.72,4.52-7.62,6.12-11.7c0.6-2,1.92-3.54,3.96-4.62H437.93z
		 M424.85,35.51c-0.04,0.68,0.18,0.84,0.66,0.48c0.48-0.36,0.64-0.82,0.48-1.38c0.16-1.04,0.04-1.6-0.36-1.68
		C425.15,33.73,424.89,34.59,424.85,35.51z"/>
	<path class="st0" d="M500.21,0.17c0.88,0.76,1.94,1.34,3.18,1.74c0.56,0.88,0.94,1.9,1.14,3.06c-0.76,0.44-1.38,0.96-1.86,1.56
		c-1.36,1.56-2.62,3.14-3.78,4.74c-0.6,1.12-0.92,2.4-0.96,3.84c-0.12,0.52-0.16,1.11-0.12,1.77c0.04,0.66,0.42,0.89,1.14,0.69
		c0.48,0.76,1.16,1.38,2.04,1.86c0.04,0.36,0.19,0.48,0.45,0.36c0.26-0.12,0.41-0.02,0.45,0.3c1.2,0.72,1.7,1.78,1.5,3.18
		c0.16,1.16-0.42,1.92-1.74,2.28c-1.36,0.24-2.6,0.68-3.72,1.32c-1.64,1.12-3.34,2.16-5.1,3.12c1.56,0.16,3.06,0.02,4.5-0.42
		c0.44,0,0.75-0.24,0.93-0.72c0.18-0.48,0.47-0.56,0.87-0.24c0.64-0.4,1.26-0.4,1.86,0c0.96,0.4,1.64,0.9,2.04,1.5
		c0.24,0.4,0.2,0.78-0.12,1.14c-0.32,0.36-0.46,0.78-0.42,1.26c-1.28,0.84-2.7,1.28-4.26,1.32c-0.8,0.48-1.82,0.58-3.06,0.3
		c-0.6,0.32-1.24,0.38-1.92,0.18l1.74,1.8c0.88,0.52,1.48,1.26,1.8,2.22c1.64-0.24,3.32-0.46,5.04-0.66
		c1.08-0.04,2.14-0.1,3.18-0.18c1.28,0.28,2.48,0.06,3.6-0.66c1.24,0.48,2.52,0.7,3.84,0.66c1,0,1.6,0.52,1.8,1.56
		c0.2,0.4,0.22,0.78,0.06,1.14c0.64,0.24,0.56,0.58-0.24,1.02c-0.64,0.68-1.18,1.08-1.62,1.2c-0.96,0.04-1.88,0.04-2.76,0
		c-1.8-0.16-3.58-0.36-5.34-0.6c-2.84-0.2-5.64-0.14-8.4,0.18c-1.48,0.04-2.46,0.74-2.94,2.1c-0.84,1.24-1.78,2.32-2.82,3.24
		c-1.36,1.16-2.82,2.02-4.38,2.58c-0.92-0.08-1.74-0.22-2.46-0.42c-1.28-0.36-1.82-1.18-1.62-2.46c-0.28-0.56-0.18-0.72,0.3-0.48
		c0.48,0.24,0.92,0.24,1.32,0c0.92-0.28,1.58-0.94,1.98-1.98c0.2,0.4,0.43,0.41,0.69,0.03c0.26-0.38,0.33-0.67,0.21-0.87
		c-2.08,0.36-4.08,0.98-6,1.86c-1.08,0.48-2.24,0.72-3.48,0.72c-1.44,0.48-2.8,0.4-4.08-0.24c-0.84-0.04-1.64-0.34-2.4-0.9
		c-0.52-0.2-0.58-0.33-0.18-0.39c0.4-0.06,0.76-0.15,1.08-0.27c1.6,0.12,3.16-0.02,4.68-0.42c3.04-1.04,6.06-2.1,9.06-3.18
		c1.44-0.2,2.94-0.58,4.5-1.14c0.64-1.16,1.18-2.32,1.62-3.48c-0.24-0.28-0.24-0.48,0-0.6c0.24-0.12,0.3-0.34,0.18-0.66
		c-0.32-0.24-0.31-0.37,0.03-0.39c0.34-0.02,0.47-0.19,0.39-0.51c-0.04-0.6-0.42-0.82-1.14-0.66c-1.68,0.6-3.3,1.02-4.86,1.26
		c-0.24-0.16-0.53-0.15-0.87,0.03c-0.34,0.18-0.31,0.13,0.09-0.15c1.48-0.28,3-0.82,4.56-1.62c0.24-0.04,0.56-0.19,0.96-0.45
		c0.4-0.26,0.4-0.43,0-0.51c-0.08-1.12,0.06-2.26,0.42-3.42l3.18-4.5c-0.72-0.36-1.44-0.46-2.16-0.3c-1.36-0.24-2.36-0.94-3-2.1
		l-1.68-3.24c2.12,0.52,4.22,0.4,6.3-0.36c0.36-1.04,0.46-2.1,0.3-3.18c-0.84,0.88-1.82,1.26-2.94,1.14l-3.18,0.12
		c-0.64,0.48-0.94,0.34-0.9-0.42c1.36-1.68,2.72-3.32,4.08-4.92c0.32-0.72,0.81-1.2,1.47-1.44c0.66-0.24,1.21-0.6,1.65-1.08
		c-0.12-0.92,0.24-1.22,1.08-0.9c1.12-1.12,2.04-2.34,2.76-3.66c-1,0.04-2,0.5-3,1.38c-2.32,2.12-4.42,4.3-6.3,6.54
		c-0.52,0.48-0.8,0.92-0.84,1.32c-0.44,0.56-0.9,0.5-1.38-0.18c-0.92-1.2-1.3-2.6-1.14-4.2c-0.04-1.12,0.2-2.1,0.72-2.94
		c0.2-0.76,0.48-1.55,0.84-2.37c0.36-0.82,0.96-1.19,1.8-1.11c-0.16,0.96-0.22,1.98-0.18,3.06c0.12,1.12,0.18,2.24,0.18,3.36
		c2.28-1.68,4.64-3.26,7.08-4.74c1.04-0.36,1.88-0.92,2.52-1.68c-0.04-0.84,0.26-1.52,0.9-2.04C499.35,0.29,499.77,0.29,500.21,0.17
		z M497.75,46.55c1.8,0.08,3.48,0.2,5.04,0.36c1.04,0.16,1.96,0.62,2.76,1.38c1.88,0.6,3.14,1.74,3.78,3.42
		c0.2,0.44,0.12,0.84-0.24,1.2c-0.36,0.36-0.42,0.78-0.18,1.26c-0.16,0.88-0.7,0.98-1.62,0.3c-2.48-0.08-4.62-0.9-6.42-2.46
		c-1.44-1.52-3.06-2.74-4.86-3.66c-0.52-0.24-0.8-0.68-0.84-1.32c-0.2,0.04-0.3-0.12-0.3-0.48
		C495.87,46.87,496.83,46.87,497.75,46.55z M495.77,47.33c0.12,0.36,0.33,0.51,0.63,0.45c0.3-0.06,0.23-0.21-0.21-0.45
		C496.07,47.09,495.93,47.09,495.77,47.33z"/>
	<path class="st0" d="M544.67,11.33c2.6,0.64,3.67,2.12,3.21,4.44c-0.46,2.32-1.01,4.38-1.65,6.18c0.76,0.12,2.04,0.09,3.84-0.09
		c1.8-0.18,2.54,0.69,2.22,2.61c-0.96,0.6-1.3,1.49-1.02,2.67c0.28,1.18,0.04,2.27-0.72,3.27c-1.4,1.48-1.43,2.25-0.09,2.31
		c1.34,0.06,2.63,0.35,3.87,0.87c1.6,0.52,2.57,1.39,2.91,2.61c0.34,1.22,0.35,2.35,0.03,3.39c-0.92,0.16-1.92-0.26-3-1.26
		c-1.08-1-2.16-1.68-3.24-2.04c-2-1.24-3.76-1.14-5.28,0.3c-1.52,1.44-3.32,2.32-5.4,2.64c-1.48-2.28-0.78-3.74,2.1-4.38
		c-1.52-0.04-2.83-0.48-3.93-1.32c-1.1-0.84-1.13-2.16-0.09-3.96c-1.8,0.52-3.59,1.22-5.37,2.1c-1.78,0.88-3.65,1.4-5.61,1.56
		c-1.56,0.04-2.34-0.71-2.34-2.25c0-1.54,0.38-2.01,1.14-1.41c2.04,0.52,4.07,0.26,6.09-0.78c2.02-1.04,3.99-1.96,5.91-2.76
		c2.28-0.6,3.8-2.13,4.56-4.59c0.76-2.46,0.64-4.65-0.36-6.57c-0.84,0.24-1.17-0.24-0.99-1.44c0.18-1.2,0.61-2.18,1.29-2.94
		L544.67,11.33z M544.67,27.23c-0.72,0.56-1.5,1.39-2.34,2.49c-0.84,1.1-0.86,1.83-0.06,2.19c1.8,0.68,3.31,0.24,4.53-1.32
		c1.22-1.56,1.19-2.88-0.09-3.96L544.67,27.23z M568.91,7.67c3.4,1.68,4.1,3.86,2.1,6.54c-2,2.68-3.48,5.32-4.44,7.92
		c1.12,0.64,2.39,0.78,3.81,0.42c1.42-0.36,2.89-0.72,4.41-1.08c1.44-1.08,2.94-1.27,4.5-0.57c1.56,0.7,2.58,1.89,3.06,3.57
		l-10.56,2.28c0.48,4.2,0.44,8.36-0.12,12.48c0.68,2.88,0.09,5.08-1.77,6.6c-1.86,1.52-3.93,1.34-6.21-0.54
		c3.52-1.04,5.38-3.34,5.58-6.9c0.2-3.56,0.26-7.08,0.18-10.56c-2.36,0.32-4.75,0.99-7.17,2.01c-2.42,1.02-4.87,1.57-7.35,1.65
		c-1.12-0.4-1.55-0.63-1.29-0.69c0.26-0.06,0.05-0.39-0.63-0.99c1.44,0.12,3.02-0.33,4.74-1.35c1.72-1.02,3.38-1.87,4.98-2.55
		c0.72-0.32,1.72-0.74,3-1.26c1.28-0.52,1.52-0.8,0.72-0.84c-1-1.52-1.11-3.25-0.33-5.19c0.78-1.94,1.27-3.85,1.47-5.73
		c-1.52-0.12-3.19,0.5-5.01,1.86c-1.82,1.36-3.59,1.72-5.31,1.08c-0.68-0.72-0.97-1.62-0.87-2.7c0.1-1.08,0.41-1.48,0.93-1.2
		c1.68-0.12,3.29-0.81,4.83-2.07c1.54-1.26,3.09-2.29,4.65-3.09L568.91,7.67z"/>
	<path class="st0" d="M587.93,44.99c0.32-0.6,0.78-1.12,1.38-1.56c0.6-0.44,1.32-0.66,2.16-0.66c0.56,0,1.09,0.24,1.59,0.72
		c0.5,0.48,0.75,0.96,0.75,1.44c0,0.2-0.05,0.45-0.15,0.75c-0.1,0.3-0.25,0.6-0.45,0.9c-0.2,0.3-0.45,0.54-0.75,0.72
		c-0.3,0.18-0.63,0.27-0.99,0.27c-1.04,0-1.74-0.06-2.1-0.18s-0.59-0.29-0.69-0.51c-0.1-0.22-0.17-0.51-0.21-0.87
		C588.47,45.73,588.29,45.39,587.93,44.99z M589.37,32.09c0-2.4,0.1-4.79,0.3-7.17c0.2-2.38,0.3-4.79,0.3-7.23
		c0-0.6-0.05-1.22-0.15-1.86c-0.1-0.64-0.15-1.28-0.15-1.92c0-0.8,0.32-1.34,0.96-1.62c0.64-0.28,1.4-0.42,2.28-0.42
		c0.6,0,1.11,0.16,1.53,0.48c0.42,0.32,0.79,0.64,1.11,0.96v0.6c0.04,0.32,0.06,0.52,0.06,0.6v0.96c0,0.4-0.1,0.72-0.3,0.96
		l-0.18,2.1c-0.04,1.04-0.09,2.13-0.15,3.27c-0.06,1.14-0.13,2.19-0.21,3.15c-0.04,1.04-0.08,1.74-0.12,2.1
		c-0.04,1.8-0.17,3.57-0.39,5.31c-0.22,1.74-0.57,3.47-1.05,5.19c-0.04,0.2-0.14,0.42-0.3,0.66c-0.08,0.32-0.21,0.62-0.39,0.9
		c-0.18,0.28-0.39,0.54-0.63,0.78c-0.16,0.24-0.34,0.36-0.54,0.36c-0.56,0-0.98-0.37-1.26-1.11c-0.28-0.74-0.47-1.58-0.57-2.52
		c-0.1-0.94-0.15-1.85-0.15-2.73V32.09z"/>
</g>
</svg>
