<?xml version="1.0" standalone="no"?><!DOCTYPE svg PUBLIC "-//W3C//DTD SVG 1.1//EN" "http://www.w3.org/Graphics/SVG/1.1/DTD/svg11.dtd"><svg t="1655791952294" class="icon" viewBox="0 0 1024 1024" version="1.1" xmlns="http://www.w3.org/2000/svg" p-id="7622" xmlns:xlink="http://www.w3.org/1999/xlink" width="200" height="200"><defs><style type="text/css">@font-face { font-family: feedback-iconfont; src: url("//at.alicdn.com/t/font_1031158_u69w8yhxdu.woff2?t=1630033759944") format("woff2"), url("//at.alicdn.com/t/font_1031158_u69w8yhxdu.woff?t=1630033759944") format("woff"), url("//at.alicdn.com/t/font_1031158_u69w8yhxdu.ttf?t=1630033759944") format("truetype"); }
</style></defs><path d="M755.609 932.928H268.395c-28.857 0-52.205-20.154-52.205-44.996V107.928c0-24.84 23.348-44.996 52.205-44.996h487.214c28.852 0 52.2 20.154 52.2 44.996v780.004c0 24.842-23.348 44.996-52.2 44.996z m-243.61-44.996c19.204 0 34.804-13.458 34.804-30.008 0-16.55-15.6-30.008-34.804-30.008-19.2 0-34.798 13.458-34.798 30.008-0.001 16.55 15.598 30.008 34.798 30.008z m243.61-735.008H268.394V782.92h487.214V152.924z" fill="#ffffff" p-id="7623"></path></svg>