<?xml version="1.0" standalone="no"?><!DOCTYPE svg PUBLIC "-//W3C//DTD SVG 1.1//EN" "http://www.w3.org/Graphics/SVG/1.1/DTD/svg11.dtd"><svg t="1640411101577" class="icon" viewBox="0 0 1024 1024" version="1.1" xmlns="http://www.w3.org/2000/svg" p-id="2170" xmlns:xlink="http://www.w3.org/1999/xlink" width="200" height="200"><defs><style type="text/css"></style></defs><path d="M 841.143 621.714 c -59.928 0 -112.607 29.215 -145.964 73.714 L 430.607 570.964 c 5.25 -18.785 8.25 -38.5 8.25 -58.964 s -3 -40.18 -8.25 -58.964 l 264.572 -124.464 c 33.357 44.499 86.036 73.714 145.964 73.714 c 101 0 182.857 -81.858 182.857 -182.857 S 942.142 36.57 841.143 36.57 S 658.286 118.43 658.286 219.43 c 0 14.893 2.285 29.143 5.606 43 L 399.536 386.821 c -39.644 -56.928 -105.465 -94.25 -180.107 -94.25 C 98.214 292.571 0 390.786 0 512 s 98.214 219.429 219.429 219.429 c 74.642 0 140.463 -37.322 180.107 -94.25 L 663.892 761.57 c -3.32 13.857 -5.606 28.107 -5.606 43 c 0 101 81.858 182.858 182.857 182.858 S 1024 905.57 1024 804.57 s -81.858 -182.857 -182.857 -182.857 Z m 0 -512 c 60.5 0 109.714 49.214 109.714 109.715 s -49.214 109.714 -109.714 109.714 s -109.714 -49.214 -109.714 -109.714 s 49.214 -109.715 109.714 -109.715 Z M 219.429 658.286 c -80.644 0 -146.286 -65.642 -146.286 -146.286 s 65.642 -146.286 146.286 -146.286 S 365.714 431.356 365.714 512 S 300.072 658.286 219.43 658.286 Z m 621.714 256 c -60.5 0 -109.714 -49.214 -109.714 -109.715 s 49.214 -109.714 109.714 -109.714 s 109.714 49.214 109.714 109.714 s -49.214 109.715 -109.714 109.715 Z" fill="#8a8a8a" p-id="2171"></path></svg>