<?xml version="1.0" encoding="utf-8"?>
<!-- Generator: Adobe Illustrator 23.0.3, SVG Export Plug-In . SVG Version: 6.00 Build 0)  -->
<svg version="1.1" id="图层_1" xmlns="http://www.w3.org/2000/svg" xmlns:xlink="http://www.w3.org/1999/xlink" x="0px" y="0px"
	 viewBox="0 0 169.8 169.83" style="enable-background:new 0 0 169.8 169.83;" xml:space="preserve">
<style type="text/css">
	.st0{fill:#7C7C7D;}
	.st1{fill:#C7C6C6;stroke:#666767;stroke-miterlimit:10;}
	.st2{fill:#C7C6C6;stroke:#484747;stroke-miterlimit:10;}
	.st3{fill:#FFFFFF;stroke:#484747;stroke-miterlimit:10;}
</style>
<path class="st0" d="M84.89,169.82L-0.03,84.91L84.89,0l84.91,84.91l-0.35,0.35L84.89,169.82z M1.39,84.91l83.5,83.5l83.5-83.5
	l-83.5-83.5L1.39,84.91z"/>
<path class="st0" d="M84.89,169.82L-0.03,84.91L84.89,0l84.91,84.91l-0.35,0.35L84.89,169.82z M1.39,84.91l83.5,83.5l83.5-83.5
	l-83.5-83.5L1.39,84.91z"/>
<polygon class="st1" points="-208.52,137.31 -210.38,137.31 -210.38,98.1 -175.72,98.1 -175.72,100.07 -172.62,100.07 
	-172.62,94.48 -214.1,94.48 -214.1,141.03 -208.52,141.03 "/>
<polygon class="st1" points="-201.28,144.55 -203.14,144.55 -203.14,105.34 -168.48,105.34 -168.48,107.31 -165.38,107.31 
	-165.38,101.72 -206.86,101.72 -206.86,148.28 -201.28,148.28 "/>
<polygon class="st1" points="-185.24,151.69 -196.31,151.69 -196.31,112.48 -161.66,112.48 -161.66,122.72 -158.55,122.72 
	-158.55,108.86 -200.03,108.86 -200.03,155.41 -185.24,155.41 "/>
<rect x="-182.21" y="129.41" class="st2" width="8.41" height="8.41"/>
<rect x="-182.21" y="137.83" class="st2" width="8.41" height="8.41"/>
<rect x="-182.21" y="146.24" class="st2" width="8.41" height="8.41"/>
<rect x="-173.79" y="146.24" class="st2" width="8.41" height="8.41"/>
<rect x="-165.38" y="146.24" class="st2" width="8.41" height="8.41"/>
<rect x="-159.45" y="126.1" class="st3" width="8.41" height="8.41"/>
<rect x="-173.79" y="137.83" class="st2" width="8.41" height="8.41"/>
<rect x="-172.05" y="127.29" transform="matrix(0.7071 0.7071 -0.7071 0.7071 43.8248 157.1991)" class="st3" width="8.41" height="8.41"/>
<rect x="-163.66" y="135.69" transform="matrix(0.7071 0.7071 -0.7071 0.7071 52.2202 153.7216)" class="st3" width="8.41" height="8.41"/>
<polygon class="st1" points="59.47,93.55 57.6,93.55 57.6,54.34 92.26,54.34 92.26,56.31 95.36,56.31 95.36,50.72 53.88,50.72 
	53.88,97.28 59.47,97.28 "/>
<polygon class="st1" points="66.71,100.79 64.84,100.79 64.84,61.59 99.5,61.59 99.5,63.55 102.6,63.55 102.6,57.97 61.12,57.97 
	61.12,104.52 66.71,104.52 "/>
<polygon class="st1" points="82.74,107.93 71.67,107.93 71.67,68.72 106.33,68.72 106.33,78.97 109.43,78.97 109.43,65.1 
	67.95,65.1 67.95,111.65 82.74,111.65 "/>
<rect x="85.78" y="86.65" class="st2" width="8.41" height="8.41"/>
<rect x="85.78" y="95.07" class="st2" width="8.41" height="8.41"/>
<rect x="85.78" y="103.48" class="st2" width="8.41" height="8.41"/>
<rect x="94.19" y="103.48" class="st2" width="8.41" height="8.41"/>
<rect x="102.6" y="103.48" class="st2" width="8.41" height="8.41"/>
<rect x="108.53" y="83.34" class="st3" width="8.41" height="8.41"/>
<rect x="94.19" y="95.07" class="st2" width="8.41" height="8.41"/>
<rect x="95.93" y="84.54" transform="matrix(0.7071 0.7071 -0.7071 0.7071 92.0803 -44.8171)" class="st3" width="8.41" height="8.41"/>
<rect x="104.33" y="92.93" transform="matrix(0.7071 0.7071 -0.7071 0.7071 100.4757 -48.2945)" class="st3" width="8.41" height="8.41"/>
</svg>
