<?xml version="1.0" encoding="utf-8"?>
<!-- Generator: Adobe Illustrator 23.0.3, SVG Export Plug-In . SVG Version: 6.00 Build 0)  -->
<svg version="1.1" id="图层_1" xmlns="http://www.w3.org/2000/svg" xmlns:xlink="http://www.w3.org/1999/xlink" x="0px" y="0px"
	 viewBox="0 0 192.16 56.43" style="enable-background:new 0 0 192.16 56.43;" xml:space="preserve">
<style type="text/css">
	.st0{fill:#CAA85B;}
</style>
<g>
	<rect x="0.18" y="49.93" class="st0" width="32.64" height="0.62"/>
	<rect x="159.7" y="49.93" class="st0" width="32.64" height="0.62"/>
	<path class="st0" d="M45.26,52.21h3.17v2.01c-0.3,0.27-0.75,0.52-1.34,0.76c-0.59,0.24-1.19,0.36-1.81,0.36
		c-0.71,0-1.38-0.16-2.01-0.47c-0.63-0.31-1.11-0.79-1.44-1.44c-0.33-0.65-0.5-1.45-0.5-2.41c0-0.78,0.14-1.5,0.41-2.17
		c0.16-0.39,0.39-0.74,0.68-1.07c0.29-0.32,0.67-0.58,1.15-0.78c0.48-0.2,1.04-0.3,1.69-0.3c0.54,0,1.04,0.09,1.48,0.28
		c0.45,0.19,0.79,0.44,1.03,0.75c0.24,0.31,0.44,0.74,0.6,1.29l1.29-0.35c-0.19-0.72-0.46-1.31-0.82-1.76
		c-0.36-0.45-0.85-0.8-1.48-1.05c-0.63-0.25-1.33-0.38-2.11-0.38c-1.07,0-2.02,0.22-2.84,0.66s-1.45,1.12-1.89,2.02
		c-0.44,0.91-0.66,1.89-0.66,2.94c0,1.06,0.22,2.02,0.66,2.87c0.44,0.86,1.09,1.51,1.96,1.97c0.86,0.45,1.83,0.68,2.88,0.68
		c0.78,0,1.55-0.14,2.29-0.42c0.74-0.28,1.47-0.7,2.17-1.26v-4l-4.56,0.01V52.21z"/>
	<path class="st0" d="M56.38,45.66l-4.14,10.77h1.51l1.18-3.26h4.5l1.26,3.26h1.62l-4.41-10.77H56.38z M55.35,52.01l1.18-3.16
		c0.25-0.68,0.44-1.37,0.58-2.06c0.17,0.58,0.42,1.33,0.76,2.23L59,52.01H55.35z"/>
	<path class="st0" d="M81.56,50.7c0.5-0.25,0.88-0.58,1.13-0.98s0.37-0.84,0.37-1.3c0-0.49-0.14-0.97-0.42-1.42
		c-0.28-0.45-0.67-0.79-1.17-1.01c-0.5-0.22-1.16-0.33-1.98-0.33h-4.04v10.77h4.11c0.69,0,1.27-0.06,1.74-0.18
		c0.47-0.12,0.87-0.3,1.18-0.53c0.31-0.24,0.58-0.57,0.79-1c0.21-0.43,0.32-0.9,0.32-1.41c0-0.63-0.18-1.17-0.53-1.63
		S82.21,50.89,81.56,50.7z M76.88,46.93h2.15c0.77,0,1.32,0.05,1.64,0.15c0.32,0.1,0.56,0.29,0.73,0.56
		c0.17,0.27,0.26,0.59,0.26,0.94c0,0.38-0.09,0.69-0.28,0.94c-0.18,0.25-0.46,0.43-0.82,0.54c-0.27,0.08-0.73,0.12-1.36,0.12h-2.33
		V46.93z M81.89,54.22c-0.14,0.26-0.32,0.46-0.54,0.6c-0.22,0.14-0.49,0.24-0.82,0.29c-0.19,0.03-0.51,0.05-0.97,0.05h-2.68v-3.7
		h2.49c0.69,0,1.21,0.06,1.58,0.18c0.36,0.12,0.65,0.33,0.86,0.62c0.21,0.3,0.31,0.65,0.31,1.05
		C82.11,53.65,82.04,53.95,81.89,54.22z"/>
	<path class="st0" d="M94.46,46.18c-0.8-0.48-1.69-0.71-2.69-0.71c-1.52,0-2.76,0.51-3.72,1.52c-0.96,1.01-1.44,2.41-1.44,4.2
		c0,0.95,0.21,1.84,0.62,2.69c0.41,0.85,1.02,1.52,1.81,2.01c0.8,0.49,1.7,0.73,2.72,0.73c0.94,0,1.81-0.22,2.62-0.67
		c0.81-0.44,1.43-1.1,1.87-1.96s0.66-1.84,0.66-2.93c0-1.08-0.21-2.04-0.63-2.89C95.87,47.32,95.26,46.66,94.46,46.18z M94.41,54.26
		c-0.69,0.75-1.58,1.13-2.65,1.13c-1.05,0-1.93-0.37-2.63-1.12c-0.7-0.75-1.05-1.77-1.05-3.07c0-1.62,0.36-2.78,1.09-3.47
		c0.73-0.69,1.6-1.04,2.6-1.04c0.71,0,1.35,0.18,1.92,0.54c0.57,0.36,1,0.87,1.3,1.52c0.3,0.65,0.44,1.42,0.44,2.3
		C95.45,52.44,95.1,53.51,94.41,54.26z"/>
	<polygon class="st0" points="99.45,46.93 103,46.93 103,56.43 104.43,56.43 104.43,46.93 107.99,46.93 107.99,45.66 99.45,45.66 	
		"/>
	<polygon class="st0" points="110.15,46.93 113.7,46.93 113.7,56.43 115.12,56.43 115.12,46.93 118.69,46.93 118.69,45.66 
		110.15,45.66 	"/>
	<polygon class="st0" points="123.11,51.49 129.07,51.49 129.07,50.23 123.11,50.23 123.11,46.93 129.47,46.93 129.47,45.66 
		121.68,45.66 121.68,56.43 129.72,56.43 129.72,55.16 123.11,55.16 	"/>
	<path class="st0" d="M139.76,54.71c-0.55,0.46-1.23,0.69-2.03,0.69c-0.66,0-1.27-0.17-1.83-0.51c-0.56-0.34-0.98-0.85-1.25-1.53
		c-0.27-0.68-0.4-1.48-0.4-2.4c0-0.71,0.11-1.4,0.34-2.07c0.23-0.67,0.62-1.2,1.17-1.6c0.56-0.4,1.25-0.6,2.08-0.6
		c0.72,0,1.32,0.18,1.79,0.54s0.84,0.93,1.09,1.71l1.4-0.33c-0.29-0.99-0.8-1.77-1.54-2.31c-0.73-0.55-1.64-0.82-2.72-0.82
		c-0.95,0-1.82,0.22-2.61,0.65c-0.79,0.43-1.4,1.07-1.83,1.9c-0.43,0.84-0.64,1.81-0.64,2.94c0,1.03,0.19,1.99,0.57,2.89
		c0.38,0.9,0.93,1.58,1.66,2.05c0.73,0.47,1.67,0.71,2.83,0.71c1.12,0,2.07-0.31,2.85-0.92c0.78-0.61,1.31-1.51,1.61-2.68
		l-1.43-0.36C140.68,53.56,140.31,54.24,139.76,54.71z"/>
	<polygon class="st0" points="152.64,50.08 147.04,50.08 147.04,45.66 145.61,45.66 145.61,56.43 147.04,56.43 147.04,51.35 
		152.64,51.35 152.64,56.43 154.06,56.43 154.06,45.66 152.64,45.66 	"/>
	<path class="st0" d="M49.72,9.35h23.52V6.26h-21.8c0.53-1.18,0.95-2.44,1.19-3.76l-3.14-1.06c0,0-1.34,6.55-7.59,11.55l2.29,2.48
		C44.18,15.47,47.24,13.07,49.72,9.35z"/>
	<path class="st0" d="M60.92,10.27h-3.54v5.72c0,0,0.05,0.48,0,1.27h-14.7v3.04h14.13c-1.17,3.82-4.6,9.17-14.49,11.72l1.2,3.28
		c0,0,14.15-2.66,16.98-15h14.6v-3.04H60.92V10.27z"/>
	<path class="st0" d="M89.54,35.3V17.43c0,0,1.08,2.87,3.8,4.85l1.63-2.29c0,0-3.45-3.21-5.29-8.28h4.42V8.84h-4.56V2h-3.13v6.84
		h-5.06v2.87h4.41c-0.31,1.05-2.31,7.53-6.45,13.93l2.61,1.68c0,0,3.19-4.79,4.49-9.37V35.3H89.54z"/>
	<path class="st0" d="M136.54,3.42h-13.89v8.87h13.89V3.42z M133.57,9.8h-8V5.57h8V9.8z"/>
	<path class="st0" d="M152.59,3.42H138.7v8.87h13.89V3.42z M149.61,9.8h-8V5.57h8V9.8z"/>
	<path class="st0" d="M136.59,35.3V24.17h-13.93V35.3h2.85v-1.37h8.07v1.37H136.59z M125.5,31.7v-5.1h8.07v5.1H125.5z"/>
	<path class="st0" d="M152.61,35.3V24.17h-13.93V35.3h2.85v-1.37h8.07v1.37H152.61z M141.52,31.7v-5.1h8.07v5.1H141.52z"/>
	<path class="st0" d="M137.26,17.26h0.8h5.66h10.16v-2.57h-5.11c-0.29-0.47-0.79-1.13-1.63-1.97l-2.86,0.64c0,0,0.61,0.38,1.19,1.34
		h-6.77c0.22-0.54,0.4-1.1,0.54-1.7l-3.05-0.42c0,0-0.21,0.9-0.99,2.12h-13.88v2.57h11.6c-2.27,1.92-6.05,3.79-12.32,4.17l0.72,2.55
		C121.33,23.99,132.34,23.8,137.26,17.26z"/>
	<path class="st0" d="M61.28,21.63c-0.35,1.5-0.67,2.26-1.31,3.76c1.77,2.48,6.95,7.96,15.51,10.22l1.08-3.35
		C76.56,32.26,66.52,30.15,61.28,21.63z"/>
	<path class="st0" d="M96.09,19.46c0,0,0.37,9.08-5.1,13.27l2.25,2.29c0,0,5.84-3.91,5.84-14.27V7.85h-3V19.46z"/>
	<path class="st0" d="M115.08,33.13c0,0,0.66-1.86,0.75-5.26h-2.93c0,0,0.08,4.34-1.2,4.38h-1.58c0,0-0.54,0-0.54-1V3.62H96.09v3.07
		l10.2-0.02V31.8c0,0-0.12,3.52,2.82,3.65h3.69C112.8,35.45,114.37,35.32,115.08,33.13z"/>
	<path class="st0" d="M138.68,18.65c2.66,2.03,8.78,5.3,16.21,5.45l0.27-2.29c0,0-6.67-0.04-11.38-3.16H138.68z"/>
	<path class="st0" d="M176.59,10.07V2.34h-3.67l0.12,8.46c-0.04,14.86-14.69,21.75-14.69,21.75l1.81,2.77
		C177.87,26.35,176.59,10.07,176.59,10.07z"/>
	<path class="st0" d="M190.44,35.3l1.64-2.94c0,0-11.18-4.84-14.7-16.59c-0.4,2.82-0.9,4.12-1.36,5.22
		C177.97,25.14,182.87,31.96,190.44,35.3z"/>
	<path class="st0" d="M20.65,1.93l-2.87-1.66c0,0-5.03,8.91-17.07,12.24l1.12,2.95c0,0,10.07-3.04,16.12-9.77
		c0.73,0.65,6.52,5.54,16.74,9.28l1.14-2.74c0,0-10.26-3.28-16.08-8.84C20.08,2.92,20.29,2.55,20.65,1.93z"/>
	<rect x="7.5" y="13.36" class="st0" width="22.11" height="3.21"/>
	<polygon class="st0" points="20.02,23.18 33.55,23.18 33.55,20.11 20.02,20.11 20.02,17.54 16.48,17.54 16.48,20.11 3.48,20.11 
		3.48,23.18 16.48,23.18 16.48,32.9 2.27,32.9 2.27,35.93 34.86,35.93 34.86,32.9 20.02,32.9 	"/>
	<path class="st0" d="M8.77,24.89l-2.5,1.59c1.93,2.77,3.08,5.54,3.08,5.54L12,30.64C10.94,27.4,8.77,24.89,8.77,24.89z"/>
	<path class="st0" d="M26.74,32.18c0,0,2.48-2.69,3.6-6.21l-2.99-1.37c0,0-1.51,3.67-3.78,5.88L26.74,32.18z"/>
</g>
</svg>
