<?xml version="1.0" encoding="utf-8"?>
<!-- Generator: Adobe Illustrator 23.0.3, SVG Export Plug-In . SVG Version: 6.00 Build 0)  -->
<svg version="1.1" id="图层_1" xmlns="http://www.w3.org/2000/svg" xmlns:xlink="http://www.w3.org/1999/xlink" x="0px" y="0px"
	 viewBox="0 0 200 200" style="enable-background:new 0 0 200 200;" xml:space="preserve">
<style type="text/css">
	.st0{fill:#8B8B8B;}
	.st1{fill:#898989;}
</style>
<path class="st0" d="M97.47,67.96c5.41,0,8.94-3.64,8.94-8.94s-3.64-8.94-8.94-8.94c-5.17,0-10.7,3.41-10.7,8.94
	C86.77,64.43,92.3,67.96,97.47,67.96z"/>
<path class="st0" d="M58.55,58.91c0-5.29-3.64-8.94-8.94-8.94c-5.17,0-10.7,3.41-10.7,8.94s5.53,8.94,10.7,8.94
	C55.03,67.96,58.55,64.32,58.55,58.91z"/>
<path class="st1" d="M200,122.16c0-13.17-5.88-25.87-16.46-35.74c-10.46-9.76-24.46-15.76-39.27-17.05c0-0.24,0-0.47,0-0.71
	C138.04,39.74,107,17.87,71.96,17.87C32.22,17.87,0,45.5,0,79.48c0,18.11,9.17,34.57,26.69,47.38l-6,18.11
	c-0.47,1.41,0,2.82,1.06,3.76c1.06,0.94,2.7,1.06,3.88,0.47l22.81-11.41l2.7,0.59h0.12c7.05,1.41,13.17,2.7,20.69,2.7
	c1.41,0,6.82-0.47,8.58-1.29c8.7,21.16,31.98,35.39,58.08,35.39c6.58,0,13.29-1.53,19.99-3.17l17.52,9.52
	c0.47,0.24,1.06,0.47,1.65,0.47c0.82,0,1.65-0.24,2.23-0.82c1.18-0.94,1.53-2.35,1.18-3.76l-4.47-14.7
	C191.65,150.85,200,136.39,200,122.16z M168.84,156.97c-1.18,0.82-1.65,2.35-1.18,3.64l2.47,8.35l-10.58-5.76
	c-0.47-0.24-1.06-0.47-1.65-0.47c-0.24,0-0.59,0-0.82,0.12c-6.11,1.53-12.46,3.17-18.69,3.17c-28.57,0-51.85-19.64-51.85-43.74
	s23.28-43.74,51.85-43.74c28.1,0,51.73,19.99,51.73,43.74C190.24,134.27,182.72,146.62,168.84,156.97z M35.51,125.1
	c0.47-1.41,0-2.94-1.29-3.88C17.75,109.7,9.41,95.71,9.41,79.6c0-29.04,27.98-52.67,62.43-52.67c30.1,0,57.03,18.34,62.9,42.68
	c-32.1,0.71-58.08,23.52-58.08,51.15c0,3.64,0.47,7.41,1.53,11.17c-0.12,0-0.35,0-0.47,0c-1.88,0.12-3.88,0.24-5.88,0.24
	c-6.7,0-12.46-1.18-18.69-2.47l-3.76-0.71c-0.71-0.12-1.53,0-2.23,0.24l-15.64,7.88L35.51,125.1z"/>
<path class="st0" d="M119.69,99.59c-3.64,0-7.29,3.64-7.29,7.29c0,3.64,3.64,7.29,7.29,7.29c5.53,0,8.94-3.76,8.94-7.29
	C128.63,103.35,125.22,99.59,119.69,99.59z"/>
<path class="st0" d="M157.2,99.59c-3.64,0-7.17,3.64-7.17,7.29c0,3.64,3.53,7.29,7.17,7.29c5.53,0,8.94-3.76,8.94-7.29
	S162.73,99.59,157.2,99.59z"/>
</svg>
