<?xml version="1.0" encoding="utf-8"?>
<!-- Generator: Adobe Illustrator 23.0.3, SVG Export Plug-In . SVG Version: 6.00 Build 0)  -->
<svg version="1.1" id="图层_1" xmlns="http://www.w3.org/2000/svg" xmlns:xlink="http://www.w3.org/1999/xlink" x="0px" y="0px"
	 viewBox="0 0 169.8 169.83" style="enable-background:new 0 0 169.8 169.83;" xml:space="preserve">
<style type="text/css">
	.st0{fill:#7C7C7D;}
	.st1{fill:#FFFFFF;}
	.st2{fill:#666767;}
	.st3{fill:#C7C6C6;}
</style>
<path class="st0" d="M84.89,169.82L-0.03,84.91L84.89,0l84.91,84.91l-0.35,0.35L84.89,169.82z M1.39,84.91l83.5,83.5l83.5-83.5
	l-83.5-83.5L1.39,84.91z"/>
<path class="st0" d="M84.89,169.82L-0.03,84.91L84.89,0l84.91,84.91l-0.35,0.35L84.89,169.82z M1.39,84.91l83.5,83.5l83.5-83.5
	l-83.5-83.5L1.39,84.91z"/>
<g>
	<path class="st1" d="M107.37,63.17v-8.38L92.89,69.74v5.17l-5.95,5.92c-0.97-0.7-2.16-1.11-3.45-1.11c-3.28,0-5.93,2.66-5.93,5.93
		s2.66,5.93,5.93,5.93c3.28,0,5.93-2.66,5.93-5.93c0-0.97-0.24-1.89-0.65-2.7l6.08-5.86l5.41,0.09l14.97-14.28L107.37,63.17z"/>
	<path class="st2" d="M83.49,92.09c-3.55,0-6.43-2.88-6.43-6.43c0-3.55,2.88-6.43,6.43-6.43c1.21,0,2.37,0.33,3.39,0.97l5.51-5.49
		v-5.17l15.48-15.98v9.1l8.66-0.28l-16.07,15.32l-5.4-0.09l-5.67,5.47c0.36,0.82,0.55,1.69,0.55,2.58
		C89.92,89.2,87.04,92.09,83.49,92.09z M83.49,80.22c-2.99,0-5.43,2.44-5.43,5.43c0,3,2.44,5.43,5.43,5.43s5.43-2.44,5.43-5.43
		c0-0.86-0.2-1.69-0.6-2.47l-0.17-0.33l6.5-6.26l5.41,0.09l13.88-13.23l-7.07,0.23v-7.66L93.39,69.94v5.18l-6.4,6.37l-0.34-0.25
		C85.72,80.58,84.63,80.22,83.49,80.22z"/>
</g>
<g>
	<path class="st3" d="M68.52,84.64c0.4-7.24,5.79-13.11,12.73-14.08V55.01c-15.33,1.05-27.5,13.84-27.92,29.63H68.52z"/>
	<path class="st2" d="M68.99,85.14H52.81l0.01-0.51c0.44-16.09,12.64-29.04,28.39-30.11l0.53-0.04v16.51l-0.43,0.06
		C74.57,72,69.4,77.72,69.02,84.67L68.99,85.14z M53.84,84.14h14.21c0.6-7.06,5.84-12.85,12.7-14.01V55.55
		C65.94,56.83,54.5,68.99,53.84,84.14z"/>
</g>
<g>
	<path class="st3" d="M97.68,88.98c-1.37,5.9-6.14,10.45-12.09,11.41v15.57c14.34-1.11,25.86-12.51,27.47-26.97H97.68z"/>
	<path class="st2" d="M85.09,116.49V99.96l0.42-0.07c5.75-0.92,10.34-5.25,11.68-11.02l0.09-0.39h16.34l-0.06,0.56
		c-1.65,14.75-13.39,26.28-27.93,27.41L85.09,116.49z M86.09,100.81v14.6c13.63-1.31,24.61-12.1,26.41-25.93H98.07
		C96.56,95.32,91.92,99.71,86.09,100.81z"/>
</g>
<g>
	<path class="st3" d="M81.25,100.43c-6.08-0.85-10.97-5.45-12.36-11.45H53.51c1.62,14.56,13.28,26,27.74,26.99V100.43z"/>
	<path class="st2" d="M81.75,116.51l-0.53-0.04c-14.68-1-26.54-12.54-28.21-27.44l-0.06-0.56h16.34l0.09,0.39
		c1.35,5.8,6.15,10.25,11.94,11.07l0.43,0.06V116.51z M54.07,89.48c1.81,13.96,12.91,24.76,26.68,25.95v-14.58
		c-5.88-1-10.73-5.5-12.25-11.38H54.07z"/>
</g>
<g>
	<g>
		<path class="st3" d="M89.32,69.43l9.44-10.11c-3.9-2.4-8.37-3.92-13.16-4.29V70.6c1.22,0.2,2.39,0.55,3.5,1.03L89.32,69.43z"/>
		<path class="st2" d="M89.52,72.36l-0.63-0.27c-1.09-0.48-2.23-0.81-3.38-0.99l-0.42-0.07V54.49l0.54,0.04
			c4.71,0.37,9.34,1.88,13.38,4.36l0.52,0.32L89.8,69.65L89.52,72.36z M86.09,70.18c0.87,0.17,1.73,0.41,2.57,0.73l0.18-1.7
			l9.13-9.78c-3.67-2.16-7.66-3.45-11.87-3.86V70.18z"/>
	</g>
	<g>
		<path class="st3" d="M101.02,80.24l-3.8,0.21c0.46,1.32,0.75,2.72,0.83,4.18h15.19c-0.12-4.41-1.15-8.58-2.92-12.33L101.02,80.24z
			"/>
		<path class="st2" d="M113.76,85.14H97.58l-0.03-0.47c-0.08-1.36-0.35-2.72-0.81-4.05l-0.22-0.63l4.3-0.24l9.68-8.25l0.28,0.59
			c1.85,3.93,2.84,8.15,2.96,12.53L113.76,85.14z M98.52,84.14h14.21c-0.17-3.84-1.03-7.54-2.58-11.02l-8.93,7.61l-3.32,0.19
			C98.22,81.98,98.43,83.06,98.52,84.14z"/>
	</g>
</g>
</svg>
